SplineFontDB: 3.2
FontName: CSLSans-SemiBold
FullName: CSL Sans SemiBold
FamilyName: CSL Sans SemiBold
Weight: Demi
Copyright: Copyright (c) 2019 IBM Corp. with Reserved Font Name "Plex"\n\nCopyright (c) 2019 The HMI Sans Project Authors (https://github.com/somegoodpixels/hmi-sans)\nCopyright (c) 2021 The CSL Sans Project Authors (https://github.com/cssobral2013/CSL-Sans)\nThis Font Software is licensed under the SIL Open Font License, Version 1.1.\nThis license is copied below, and is also available with a FAQ at: http://scripts.sil.org/OFL.
Version: 2.001;January 21, 2022;FontCreator 14.0.0.2808 64-bit
ItalicAngle: 0
UnderlinePosition: -225
UnderlineWidth: 100
Ascent: 800
Descent: 200
InvalidEm: 0
sfntRevision: 0x00020041
LayerCount: 2
Layer: 0 1 "Back" 1
Layer: 1 1 "Fore" 0
XUID: [1021 651 537639564 28467]
StyleMap: 0x0000
FSType: 0
OS2Version: 3
OS2_WeightWidthSlopeOnly: 0
OS2_UseTypoMetrics: 0
CreationTime: 1550580372
ModificationTime: 1642760115
PfmFamily: 81
TTFWeight: 600
TTFWidth: 5
LineGap: 0
VLineGap: 0
Panose: 0 0 8 0 0 0 0 0 0 0
OS2TypoAscent: 1000
OS2TypoAOffset: 0
OS2TypoDescent: -220
OS2TypoDOffset: 0
OS2TypoLinegap: 0
OS2WinAscent: 1000
OS2WinAOffset: 0
OS2WinDescent: 220
OS2WinDOffset: 0
HheadAscent: 1000
HheadAOffset: 0
HheadDescent: -220
HheadDOffset: 0
OS2SubXSize: 650
OS2SubYSize: 600
OS2SubXOff: 0
OS2SubYOff: 75
OS2SupXSize: 650
OS2SupYSize: 600
OS2SupXOff: 0
OS2SupYOff: 350
OS2StrikeYSize: 100
OS2StrikeYPos: 315
OS2CapHeight: 698
OS2XHeight: 525
OS2Vendor: 'UKWN'
OS2CodePages: 2000019f.00000000
OS2UnicodeRanges: a10002ff.5000a07b.00000000.00000000
Lookup: 258 0 0 "'kern' Kerning Horizontal lookup 0" { "'kern' Kerning Horizontal lookup 0 per glyph data 0"  "'kern' Kerning Horizontal lookup 0 kerning class 1"  "'kern' Kerning Horizontal lookup 0 kerning class 2"  "'kern' Kerning Horizontal lookup 0 kerning class 3"  } ['kern' ('DFLT' <'dflt' > 'cyrl' <'dflt' > 'grek' <'dflt' > 'latn' <'dflt' > ) ]
DEI: 91125

StartChar: .notdef
Encoding: 65536 -1 0
Width: 472
Flags: W
LayerCount: 2
Fore
SplineSet
440 0 m 1,0,-1
 32 0 l 1,1,-1
 32 780 l 1,2,-1
 440 780 l 1,3,-1
 440 0 l 1,0,-1
355 85 m 1,4,-1
 355 695 l 1,5,-1
 117 695 l 1,6,-1
 117 85 l 1,7,-1
 355 85 l 1,4,-1
EndSplineSet
EndChar

StartChar: exclam
Encoding: 33 33 2
Width: 305
GlyphClass: 1
Flags: W
LayerCount: 2
Fore
SplineSet
180 207 m 1,0,-1
 126 207 l 1,1,-1
 87 501 l 1,2,-1
 87 698 l 1,3,-1
 218 698 l 1,4,-1
 218 501 l 1,5,-1
 180 207 l 1,0,-1
153 -12 m 0,6,7
 74 -12 74 -12 74 57 c 2,8,-1
 74 77 l 2,9,10
 74 106 74 106 92 126 c 128,-1,11
 110 146 110 146 153 146 c 0,12,13
 195 146 195 146 213 125.5 c 128,-1,14
 231 105 231 105 231 77 c 2,15,-1
 231 57 l 2,16,17
 231 -12 231 -12 153 -12 c 0,6,7
EndSplineSet
EndChar

StartChar: quotedbl
Encoding: 34 34 3
Width: 465
GlyphClass: 7
Flags: W
LayerCount: 2
Fore
SplineSet
183 431 m 1,0,-1
 75 431 l 1,1,-1
 75 740 l 1,2,-1
 183 740 l 1,3,-1
 183 431 l 1,0,-1
390 431 m 1,4,-1
 282 431 l 1,5,-1
 282 740 l 1,6,-1
 390 740 l 1,7,-1
 390 431 l 1,4,-1
EndSplineSet
EndChar

StartChar: numbersign
Encoding: 35 35 4
Width: 663
GlyphClass: 5
Flags: W
LayerCount: 2
Fore
SplineSet
432 0 m 1,0,-1
 351 0 l 1,1,-1
 383 185 l 1,2,-1
 224 185 l 1,3,-1
 192 0 l 1,4,-1
 109 0 l 1,5,-1
 141 185 l 1,6,-1
 30 185 l 1,7,-1
 30 264 l 1,8,-1
 155 264 l 1,9,-1
 184 434 l 1,10,-1
 73 434 l 1,11,-1
 73 513 l 1,12,-1
 198 513 l 1,13,-1
 230 698 l 1,14,-1
 312 698 l 1,15,-1
 280 513 l 1,16,-1
 439 513 l 1,17,-1
 471 698 l 1,18,-1
 553 698 l 1,19,-1
 521 513 l 1,20,-1
 632 513 l 1,21,-1
 632 434 l 1,22,-1
 507 434 l 1,23,-1
 478 264 l 1,24,-1
 589 264 l 1,25,-1
 589 185 l 1,26,-1
 464 185 l 1,27,-1
 432 0 l 1,0,-1
396 264 m 1,28,-1
 426 434 l 1,29,-1
 267 434 l 1,30,-1
 237 264 l 1,31,-1
 396 264 l 1,28,-1
EndSplineSet
EndChar

StartChar: dollar
Encoding: 36 36 5
Width: 600
Flags: W
LayerCount: 2
Fore
SplineSet
352 -82 m 1,0,-1
 257 -82 l 1,1,-1
 257 6 l 1,2,3
 122 18 122 18 39 116 c 1,4,-1
 118 188 l 1,5,6
 176 115 176 115 266 103 c 1,7,-1
 266 312 l 1,8,9
 161 333 161 333 110.5 379.5 c 128,-1,10
 60 426 60 426 60 505 c 0,11,12
 60 589 60 589 113 635 c 128,-1,13
 166 681 166 681 257 691 c 1,14,-1
 257 780 l 1,15,-1
 352 780 l 1,16,-1
 352 691 l 1,17,18
 474 678 474 678 542 592 c 1,19,-1
 463 524 l 1,20,21
 423 578 423 578 344 594 c 1,22,-1
 344 402 l 1,23,24
 455 376 455 376 503.5 332.5 c 128,-1,25
 552 289 552 289 552 210 c 0,26,27
 552 135 552 135 503 80 c 128,-1,28
 454 25 454 25 352 9 c 1,29,-1
 352 -82 l 1,0,-1
344 104 m 1,30,31
 436 124 436 124 436 202 c 0,32,33
 436 235 436 235 414.5 258.5 c 128,-1,34
 393 282 393 282 344 295 c 1,35,-1
 344 104 l 1,30,31
266 419 m 1,36,-1
 266 595 l 1,37,38
 175 580 175 580 175 509 c 0,39,40
 175 472 175 472 196.5 451 c 128,-1,41
 218 430 218 430 266 419 c 1,36,-1
EndSplineSet
EndChar

StartChar: percent
Encoding: 37 37 6
Width: 956
Flags: W
LayerCount: 2
Fore
SplineSet
292 0 m 1,0,-1
 180 0 l 1,1,-1
 664 698 l 1,2,-1
 776 698 l 1,3,-1
 292 0 l 1,0,-1
227 314 m 0,4,5
 56 318 56 318 56 512 c 0,6,7
 59 710 59 710 227 710 c 0,8,9
 399 707 399 707 399 512 c 1,10,11
 394 314 394 314 227 314 c 0,4,5
229 387 m 0,12,13
 292 387 292 387 292 485 c 2,14,-1
 292 540 l 2,15,16
 292 637 292 637 227 637 c 0,17,18
 163 637 163 637 163 539 c 2,19,-1
 163 485 l 2,20,21
 163 387 163 387 229 387 c 0,12,13
729 -12 m 1,22,23
 557 -7 557 -7 557 186 c 0,24,25
 560 384 560 384 729 384 c 0,26,27
 900 381 900 381 900 186 c 1,28,29
 895 -12 895 -12 729 -12 c 1,22,23
730 61 m 0,30,31
 793 61 793 61 793 159 c 2,32,-1
 793 214 l 2,33,34
 793 311 793 311 728 311 c 0,35,36
 664 311 664 311 664 213 c 2,37,-1
 664 159 l 2,38,39
 664 61 664 61 730 61 c 0,30,31
EndSplineSet
EndChar

StartChar: ampersand
Encoding: 38 38 7
Width: 712
GlyphClass: 3
Flags: W
LayerCount: 2
Fore
SplineSet
287 -12 m 0,0,1
 179 -12 179 -12 119 42 c 128,-1,2
 59 96 59 96 59 182 c 0,3,4
 59 251 59 251 98 297.5 c 128,-1,5
 137 344 137 344 200 378 c 1,6,7
 121 458 121 458 121 542 c 0,8,9
 121 613 121 613 174.5 661.5 c 128,-1,10
 228 710 228 710 318 710 c 0,11,12
 399 710 399 710 454 668.5 c 128,-1,13
 509 627 509 627 509 554 c 0,14,15
 509 510 509 510 489 476 c 128,-1,16
 469 442 469 442 435.5 414.5 c 128,-1,17
 402 387 402 387 361 364 c 1,18,-1
 488 227 l 1,19,20
 515 298 515 298 519 378 c 1,21,-1
 674 378 l 1,22,-1
 674 276 l 1,23,-1
 607 276 l 1,24,25
 591 204 591 204 562 149 c 1,26,-1
 699 0 l 1,27,-1
 549 0 l 1,28,-1
 488 66 l 1,29,30
 414 -12 414 -12 287 -12 c 0,0,1
300 431 m 1,31,-1
 304 433 l 2,32,33
 345 455 345 455 368.5 480.5 c 128,-1,34
 392 506 392 506 392 544 c 0,35,36
 392 580 392 580 370.5 597 c 128,-1,37
 349 614 349 614 317 614 c 0,38,39
 284 614 284 614 261 594.5 c 128,-1,40
 238 575 238 575 238 542 c 0,41,42
 238 514 238 514 251.5 491 c 128,-1,43
 265 468 265 468 300 431 c 1,31,-1
303 91 m 2,44,45
 377 91 377 91 423 136 c 1,46,-1
 261 311 l 1,47,48
 224 291 224 291 204 266 c 128,-1,49
 184 241 184 241 184 202 c 0,50,51
 184 91 184 91 301 91 c 2,52,-1
 303 91 l 2,44,45
EndSplineSet
EndChar

StartChar: quotesingle
Encoding: 39 39 8
Width: 258
Flags: W
LayerCount: 2
Fore
SplineSet
183 431 m 1,0,-1
 75 431 l 1,1,-1
 75 740 l 1,2,-1
 183 740 l 1,3,-1
 183 431 l 1,0,-1
EndSplineSet
EndChar

StartChar: parenleft
Encoding: 40 40 9
Width: 337
Flags: W
LayerCount: 2
Fore
SplineSet
346 -138 m 1,0,-1
 231 -138 l 1,1,2
 153 -70 153 -70 103.5 48 c 128,-1,3
 54 166 54 166 54 311 c 0,4,5
 54 446 54 446 101 567 c 128,-1,6
 148 688 148 688 231 760 c 1,7,-1
 346 760 l 1,8,9
 257 675 257 675 213.5 567 c 128,-1,10
 170 459 170 459 170 349 c 2,11,-1
 170 273 l 2,12,13
 170 156 170 156 216.5 46 c 128,-1,14
 263 -64 263 -64 346 -138 c 1,0,-1
EndSplineSet
EndChar

StartChar: parenright
Encoding: 41 41 10
Width: 337
GlyphClass: 3
Flags: W
LayerCount: 2
Fore
SplineSet
105 -138 m 1,0,-1
 -10 -138 l 1,1,2
 67 -67 67 -67 117 40.5 c 128,-1,3
 167 148 167 148 167 273 c 2,4,-1
 167 349 l 2,5,6
 167 460 167 460 123 568 c 128,-1,7
 79 676 79 676 -10 760 c 1,8,-1
 106 760 l 1,9,10
 153 718 153 718 193 651.5 c 128,-1,11
 233 585 233 585 257.5 498.5 c 128,-1,12
 282 412 282 412 282 311 c 0,13,14
 282 162 282 162 231 45.5 c 128,-1,15
 180 -71 180 -71 105 -138 c 1,0,-1
EndSplineSet
EndChar

StartChar: asterisk
Encoding: 42 42 11
Width: 543
Flags: W
LayerCount: 2
Fore
SplineSet
173 295 m 1,0,-1
 87 354 l 1,1,-1
 200 493 l 1,2,-1
 33 542 l 1,3,-1
 66 638 l 1,4,-1
 226 574 l 1,5,-1
 218 747 l 1,6,-1
 324 747 l 1,7,-1
 317 574 l 1,8,-1
 477 638 l 1,9,-1
 510 542 l 1,10,-1
 342 493 l 1,11,-1
 455 354 l 1,12,-1
 369 296 l 1,13,-1
 271 443 l 1,14,-1
 173 295 l 1,0,-1
EndSplineSet
EndChar

StartChar: plus
Encoding: 43 43 12
Width: 600
Flags: W
LayerCount: 2
Fore
SplineSet
354 63 m 1,0,-1
 246 63 l 1,1,-1
 246 256 l 1,2,-1
 67 256 l 1,3,-1
 67 355 l 1,4,-1
 246 355 l 1,5,-1
 246 548 l 1,6,-1
 354 548 l 1,7,-1
 354 355 l 1,8,-1
 533 355 l 1,9,-1
 533 256 l 1,10,-1
 354 256 l 1,11,-1
 354 63 l 1,0,-1
EndSplineSet
EndChar

StartChar: comma
Encoding: 44 44 13
Width: 296
GlyphClass: 3
Flags: W
LayerCount: 2
Fore
SplineSet
126 -141 m 1,0,-1
 39 -141 l 1,1,2
 106 -80 106 -80 128 -9 c 1,3,4
 71 4 71 4 71 60 c 2,5,-1
 71 77 l 2,6,7
 71 108 71 108 89 128.5 c 128,-1,8
 107 149 107 149 149 149 c 0,9,10
 190 149 190 149 208.5 128 c 128,-1,11
 227 107 227 107 227 77 c 0,12,13
 227 42 227 42 222 15 c 128,-1,14
 217 -12 217 -12 200 -48 c 0,15,16
 172 -103 172 -103 126 -141 c 1,0,-1
EndSplineSet
EndChar

StartChar: hyphen
Encoding: 45 45 14
Width: 402
Flags: W
LayerCount: 2
Fore
SplineSet
343 244 m 1,0,-1
 59 244 l 1,1,-1
 59 366 l 1,2,-1
 343 366 l 1,3,-1
 343 244 l 1,0,-1
EndSplineSet
EndChar

StartChar: period
Encoding: 46 46 15
Width: 297
Flags: W
LayerCount: 2
Fore
SplineSet
148 -12 m 256,0,1
 106 -12 106 -12 88 9 c 128,-1,2
 70 30 70 30 70 60 c 2,3,-1
 70 77 l 2,4,5
 70 106 70 106 88 127.5 c 128,-1,6
 106 149 106 149 148 149 c 0,7,8
 187 149 187 149 206.5 128.5 c 128,-1,9
 226 108 226 108 226 77 c 2,10,-1
 226 60 l 2,11,12
 226 30 226 30 208 9 c 128,-1,13
 190 -12 190 -12 148 -12 c 256,0,1
EndSplineSet
EndChar

StartChar: slash
Encoding: 47 47 16
Width: 431
GlyphClass: 3
Flags: W
LayerCount: 2
Fore
SplineSet
109 -151 m 1,0,-1
 6 -151 l 1,1,-1
 290 740 l 1,2,-1
 393 740 l 1,3,-1
 109 -151 l 1,0,-1
EndSplineSet
EndChar

StartChar: zero
Encoding: 48 48 17
Width: 600
GlyphClass: 5
Flags: W
LayerCount: 2
Fore
SplineSet
300 -12 m 0,0,1
 42 -12 42 -12 42 349 c 0,2,3
 42 456 42 456 67.5 537 c 128,-1,4
 93 618 93 618 150 664 c 128,-1,5
 207 710 207 710 300 710 c 0,6,7
 433 710 433 710 495.5 613.5 c 128,-1,8
 558 517 558 517 558 349 c 0,9,10
 558 176 558 176 494.5 82 c 128,-1,11
 431 -12 431 -12 300 -12 c 0,0,1
300 94 m 2,12,13
 367 94 367 94 395.5 145.5 c 128,-1,14
 424 197 424 197 424 295 c 2,15,-1
 424 412 l 2,16,17
 424 604 424 604 300 604 c 0,18,19
 232 604 232 604 204 552.5 c 128,-1,20
 176 501 176 501 176 403 c 2,21,-1
 176 286 l 2,22,23
 176 94 176 94 295 94 c 2,24,-1
 300 94 l 2,12,13
EndSplineSet
EndChar

StartChar: one
Encoding: 49 49 18
Width: 600
Flags: W
LayerCount: 2
Fore
SplineSet
409 0 m 1,0,-1
 285 0 l 1,1,-1
 285 584 l 1,2,-1
 135 499 l 1,3,-1
 135 618 l 1,4,-1
 277 698 l 1,5,-1
 409 698 l 1,6,-1
 409 0 l 1,0,-1
EndSplineSet
EndChar

StartChar: two
Encoding: 50 50 19
Width: 600
Flags: W
LayerCount: 2
Fore
SplineSet
544 0 m 1,0,-1
 64 0 l 1,1,-1
 64 118 l 1,2,-1
 284 312 l 2,3,4
 343 364 343 364 367.5 404 c 128,-1,5
 392 444 392 444 392 497 c 256,6,7
 392 550 392 550 362.5 575.5 c 128,-1,8
 333 601 333 601 286 601 c 0,9,10
 184 601 184 601 162 495 c 1,11,-1
 52 537 l 1,12,13
 78 617 78 617 139 663.5 c 128,-1,14
 200 710 200 710 297 710 c 0,15,16
 374 710 374 710 424.5 681 c 128,-1,17
 475 652 475 652 500.5 604.5 c 128,-1,18
 526 557 526 557 526 502 c 0,19,20
 526 441 526 441 500 395 c 0,21,22
 469 343 469 343 423 297 c 128,-1,23
 377 251 377 251 321 206 c 2,24,-1
 200 106 l 1,25,-1
 544 106 l 1,26,-1
 544 0 l 1,0,-1
EndSplineSet
EndChar

StartChar: three
Encoding: 51 51 20
Width: 600
Flags: W
LayerCount: 2
Fore
SplineSet
272 -12 m 0,0,1
 180 -12 180 -12 119.5 23.5 c 128,-1,2
 59 59 59 59 27 116 c 1,3,-1
 119 188 l 1,4,5
 142 144 142 144 178 118 c 128,-1,6
 214 92 214 92 272 92 c 0,7,8
 329 92 329 92 362.5 119 c 128,-1,9
 396 146 396 146 396 200 c 0,10,11
 396 309 396 309 263 309 c 2,12,-1
 193 309 l 1,13,-1
 193 415 l 1,14,-1
 262 415 l 2,15,16
 325 415 325 415 353.5 440 c 128,-1,17
 382 465 382 465 382 505 c 0,18,19
 382 553 382 553 355.5 579.5 c 128,-1,20
 329 606 329 606 277 606 c 0,21,22
 186 606 186 606 134 522 c 1,23,-1
 52 594 l 1,24,25
 85 645 85 645 137.5 677.5 c 128,-1,26
 190 710 190 710 281 710 c 0,27,28
 379 710 379 710 446.5 662.5 c 128,-1,29
 514 615 514 615 514 528 c 0,30,31
 514 459 514 459 475 420 c 128,-1,32
 436 381 436 381 381 369 c 1,33,-1
 381 364 l 1,34,35
 444 352 444 352 485 309 c 128,-1,36
 526 266 526 266 526 193 c 0,37,38
 526 102 526 102 457 45 c 128,-1,39
 388 -12 388 -12 272 -12 c 0,0,1
EndSplineSet
EndChar

StartChar: four
Encoding: 52 52 21
Width: 600
GlyphClass: 2
Flags: W
LayerCount: 2
Fore
SplineSet
471 0 m 1,0,-1
 352 0 l 1,1,-1
 352 135 l 1,2,-1
 33 135 l 1,3,-1
 33 243 l 1,4,-1
 313 698 l 1,5,-1
 471 698 l 1,6,-1
 471 233 l 1,7,-1
 563 233 l 1,8,-1
 563 135 l 1,9,-1
 471 135 l 1,10,-1
 471 0 l 1,0,-1
352 233 m 1,11,-1
 352 578 l 1,12,-1
 344 578 l 1,13,-1
 137 233 l 1,14,-1
 352 233 l 1,11,-1
EndSplineSet
EndChar

StartChar: five
Encoding: 53 53 22
Width: 600
Flags: W
LayerCount: 2
Fore
SplineSet
295 -12 m 0,0,1
 133 -12 133 -12 58 116 c 1,2,-1
 149 188 l 1,3,4
 172 143 172 143 207 117.5 c 128,-1,5
 242 92 242 92 297 92 c 0,6,7
 357 92 357 92 388 125 c 128,-1,8
 419 158 419 158 419 215 c 0,9,10
 419 346 419 346 298 346 c 0,11,12
 257 346 257 346 230 331.5 c 128,-1,13
 203 317 203 317 183 293 c 1,14,-1
 80 307 l 1,15,-1
 106 698 l 1,16,-1
 513 698 l 1,17,-1
 513 589 l 1,18,-1
 200 589 l 1,19,-1
 183 351 l 1,20,-1
 191 351 l 1,21,22
 213 399 213 399 246.5 423.5 c 128,-1,23
 280 448 280 448 338 448 c 0,24,25
 431 448 431 448 490.5 387.5 c 128,-1,26
 550 327 550 327 550 229 c 0,27,28
 550 114 550 114 478 51 c 128,-1,29
 406 -12 406 -12 295 -12 c 0,0,1
EndSplineSet
EndChar

StartChar: six
Encoding: 54 54 23
Width: 600
GlyphClass: 2
Flags: W
LayerCount: 2
Fore
SplineSet
303 -12 m 0,0,1
 184 -12 184 -12 117.5 63 c 128,-1,2
 51 138 51 138 51 262 c 0,3,4
 51 358 51 358 89 443 c 128,-1,5
 127 528 127 528 184 593 c 128,-1,6
 241 658 241 658 301 698 c 1,7,-1
 470 698 l 1,8,9
 341 610 341 610 272.5 526.5 c 128,-1,10
 204 443 204 443 182 343 c 1,11,-1
 189 341 l 1,12,13
 237 444 237 444 349 444 c 0,14,15
 438 444 438 444 495.5 384 c 128,-1,16
 553 324 553 324 553 228 c 0,17,18
 553 115 553 115 481 51.5 c 128,-1,19
 409 -12 409 -12 303 -12 c 0,0,1
303 88 m 0,20,21
 363 90 363 90 393.5 119 c 128,-1,22
 424 148 424 148 424 209 c 0,23,24
 424 246 424 246 417.5 271 c 128,-1,25
 411 296 411 296 392 315 c 0,26,27
 359 345 359 345 303 345 c 0,28,29
 181 343 181 343 181 224 c 0,30,31
 181 187 181 187 187 162 c 128,-1,32
 193 137 193 137 213 119 c 0,33,34
 244 88 244 88 303 88 c 0,20,21
EndSplineSet
EndChar

StartChar: seven
Encoding: 55 55 24
Width: 600
Flags: W
LayerCount: 2
Fore
SplineSet
301 0 m 1,0,-1
 169 0 l 1,1,-1
 416 595 l 1,2,-1
 60 595 l 1,3,-1
 60 698 l 1,4,-1
 540 698 l 1,5,-1
 540 589 l 1,6,-1
 301 0 l 1,0,-1
EndSplineSet
EndChar

StartChar: eight
Encoding: 56 56 25
Width: 600
Flags: W
LayerCount: 2
Fore
SplineSet
300 -12 m 0,0,1
 422 -12 422 -12 488.5 45.5 c 128,-1,2
 555 103 555 103 555 191 c 0,3,4
 555 259 555 259 518 301.5 c 128,-1,5
 481 344 481 344 417 361 c 1,6,-1
 417 369 l 1,7,8
 470 388 470 388 502 428 c 128,-1,9
 534 468 534 468 534 529 c 0,10,11
 534 609 534 609 473.5 659.5 c 128,-1,12
 413 710 413 710 300 710 c 0,13,14
 188 710 188 710 127 659.5 c 128,-1,15
 66 609 66 609 66 529 c 0,16,17
 66 468 66 468 98 428 c 128,-1,18
 130 388 130 388 183 369 c 1,19,-1
 183 361 l 1,20,21
 119 344 119 344 82 301.5 c 128,-1,22
 45 259 45 259 45 191 c 0,23,24
 45 103 45 103 112 45.5 c 128,-1,25
 179 -12 179 -12 300 -12 c 0,0,1
300 91 m 1,26,27
 186 91 186 91 182 190 c 1,28,-1
 182 211 l 2,29,30
 182 306 182 306 300 310 c 0,31,32
 414 310 414 310 418 211 c 1,33,-1
 418 190 l 2,34,35
 418 96 418 96 300 91 c 1,26,27
300 408 m 0,36,37
 194 408 194 408 191 500 c 2,38,-1
 191 516 l 2,39,40
 191 559 191 559 219 583 c 128,-1,41
 247 607 247 607 300 607 c 0,42,43
 407 607 407 607 409 516 c 2,44,-1
 409 500 l 2,45,46
 409 412 409 412 300 408 c 0,36,37
EndSplineSet
EndChar

StartChar: nine
Encoding: 57 57 26
Width: 600
GlyphClass: 1
Flags: W
LayerCount: 2
Fore
SplineSet
299 0 m 1,0,-1
 130 0 l 1,1,2
 251 83 251 83 322.5 166 c 128,-1,3
 394 249 394 249 418 355 c 1,4,-1
 411 357 l 1,5,6
 389 310 389 310 351 282 c 128,-1,7
 313 254 313 254 251 254 c 0,8,9
 162 254 162 254 104.5 314 c 128,-1,10
 47 374 47 374 47 470 c 0,11,12
 47 577 47 577 116 643.5 c 128,-1,13
 185 710 185 710 297 710 c 0,14,15
 419 710 419 710 484 633 c 128,-1,16
 549 556 549 556 549 436 c 0,17,18
 549 337 549 337 509.5 251.5 c 128,-1,19
 470 166 470 166 413 101.5 c 128,-1,20
 356 37 356 37 299 0 c 1,0,-1
297 353 m 0,21,22
 419 354 419 354 419 474 c 0,23,24
 419 511 419 511 412.5 536 c 128,-1,25
 406 561 406 561 387 580 c 0,26,27
 354 610 354 610 297 610 c 0,28,29
 176 608 176 608 176 489 c 0,30,31
 176 452 176 452 182 427 c 128,-1,32
 188 402 188 402 208 384 c 0,33,34
 239 353 239 353 297 353 c 0,21,22
EndSplineSet
EndChar

StartChar: colon
Encoding: 58 58 27
Width: 317
Flags: W
LayerCount: 2
Fore
SplineSet
158 -12 m 256,0,1
 116 -12 116 -12 98 9 c 128,-1,2
 80 30 80 30 80 60 c 2,3,-1
 80 77 l 2,4,5
 80 106 80 106 98 127.5 c 128,-1,6
 116 149 116 149 158 149 c 0,7,8
 197 149 197 149 216.5 128.5 c 128,-1,9
 236 108 236 108 236 77 c 2,10,-1
 236 60 l 2,11,12
 236 30 236 30 218 9 c 128,-1,13
 200 -12 200 -12 158 -12 c 256,0,1
158 369 m 0,14,15
 117 369 117 369 98.5 389.5 c 128,-1,16
 80 410 80 410 80 441 c 2,17,-1
 80 458 l 2,18,19
 80 487 80 487 98 508.5 c 128,-1,20
 116 530 116 530 158 530 c 0,21,22
 198 530 198 530 217 509 c 128,-1,23
 236 488 236 488 236 458 c 2,24,-1
 236 441 l 2,25,26
 236 410 236 410 218 389.5 c 128,-1,27
 200 369 200 369 158 369 c 0,14,15
EndSplineSet
EndChar

StartChar: semicolon
Encoding: 59 59 28
Width: 316
GlyphClass: 2
Flags: W
LayerCount: 2
Fore
SplineSet
135 -141 m 1,0,-1
 47 -141 l 1,1,2
 114 -81 114 -81 137 -9 c 1,3,4
 80 4 80 4 80 60 c 2,5,-1
 80 77 l 2,6,7
 80 108 80 108 98 128.5 c 128,-1,8
 116 149 116 149 158 149 c 0,9,10
 199 149 199 149 217.5 128 c 128,-1,11
 236 107 236 107 236 77 c 0,12,13
 236 42 236 42 231 15 c 128,-1,14
 226 -12 226 -12 209 -48 c 0,15,16
 181 -103 181 -103 135 -141 c 1,0,-1
158 369 m 256,17,18
 116 369 116 369 98 389.5 c 128,-1,19
 80 410 80 410 80 441 c 2,20,-1
 80 458 l 2,21,22
 80 487 80 487 98 508.5 c 128,-1,23
 116 530 116 530 158 530 c 0,24,25
 198 530 198 530 217 509 c 128,-1,26
 236 488 236 488 236 458 c 2,27,-1
 236 441 l 2,28,29
 236 410 236 410 218 389.5 c 128,-1,30
 200 369 200 369 158 369 c 256,17,18
EndSplineSet
EndChar

StartChar: less
Encoding: 60 60 29
Width: 600
Flags: W
LayerCount: 2
Fore
SplineSet
502 -6 m 1,0,-1
 98 250 l 1,1,-1
 98 334 l 1,2,-1
 502 589 l 1,3,-1
 502 465 l 1,4,-1
 223 296 l 1,5,-1
 223 289 l 1,6,-1
 502 119 l 1,7,-1
 502 -6 l 1,0,-1
EndSplineSet
EndChar

StartChar: equal
Encoding: 61 61 30
Width: 600
GlyphClass: 2
Flags: W
LayerCount: 2
Fore
SplineSet
533 366 m 1,0,-1
 67 366 l 1,1,-1
 67 465 l 1,2,-1
 533 465 l 1,3,-1
 533 366 l 1,0,-1
533 146 m 1,4,-1
 67 146 l 1,5,-1
 67 245 l 1,6,-1
 533 245 l 1,7,-1
 533 146 l 1,4,-1
EndSplineSet
EndChar

StartChar: greater
Encoding: 62 62 31
Width: 600
GlyphClass: 5
Flags: W
LayerCount: 2
Fore
SplineSet
98 -6 m 1,0,-1
 98 119 l 1,1,-1
 377 289 l 1,2,-1
 377 296 l 1,3,-1
 98 465 l 1,4,-1
 98 589 l 1,5,-1
 502 334 l 1,6,-1
 502 250 l 1,7,-1
 98 -6 l 1,0,-1
EndSplineSet
EndChar

StartChar: question
Encoding: 63 63 32
Width: 491
GlyphClass: 3
Flags: W
LayerCount: 2
Fore
SplineSet
282 224 m 1,0,-1
 166 224 l 1,1,-1
 166 381 l 1,2,3
 331 385 331 385 331 499 c 0,4,5
 331 528 331 528 326 546.5 c 128,-1,6
 321 565 321 565 304 580 c 0,7,8
 277 604 277 604 235 604 c 0,9,10
 186 604 186 604 158.5 576.5 c 128,-1,11
 131 549 131 549 121 507 c 1,12,-1
 17 549 l 1,13,14
 36 619 36 619 92 664.5 c 128,-1,15
 148 710 148 710 239 710 c 0,16,17
 337 710 337 710 398.5 655.5 c 128,-1,18
 460 601 460 601 460 511 c 0,19,20
 460 453 460 453 435 411 c 128,-1,21
 410 369 410 369 370 343 c 128,-1,22
 330 317 330 317 282 309 c 1,23,-1
 282 224 l 1,0,-1
225 -12 m 0,24,25
 147 -12 147 -12 147 57 c 2,26,-1
 147 77 l 2,27,28
 147 146 147 146 225 146 c 0,29,30
 267 146 267 146 285.5 125.5 c 128,-1,31
 304 105 304 105 304 77 c 2,32,-1
 304 57 l 2,33,34
 304 -12 304 -12 225 -12 c 0,24,25
EndSplineSet
EndChar

StartChar: at
Encoding: 64 64 33
Width: 898
Flags: W
LayerCount: 2
Fore
SplineSet
675 -121 m 1,0,-1
 456 -121 l 2,1,2
 273 -121 273 -121 167.5 -7 c 128,-1,3
 62 107 62 107 62 290 c 0,4,5
 62 419 62 419 113.5 513 c 128,-1,6
 165 607 165 607 254.5 657.5 c 128,-1,7
 344 708 344 708 460 708 c 0,8,9
 578 708 578 708 663 660 c 128,-1,10
 748 612 748 612 793.5 527 c 128,-1,11
 839 442 839 442 839 330 c 0,12,13
 839 215 839 215 792.5 146 c 128,-1,14
 746 77 746 77 656 77 c 0,15,16
 602 77 602 77 573 102 c 128,-1,17
 544 127 544 127 541 167 c 1,18,-1
 536 167 l 1,19,20
 507 77 507 77 417 77 c 0,21,22
 346 77 346 77 301 131.5 c 128,-1,23
 256 186 256 186 256 290 c 0,24,25
 256 391 256 391 301.5 446.5 c 128,-1,26
 347 502 347 502 417 502 c 0,27,28
 500 502 500 502 524 425 c 1,29,-1
 529 425 l 1,30,-1
 529 493 l 1,31,-1
 624 493 l 1,32,-1
 624 206 l 2,33,34
 624 154 624 154 672 154 c 0,35,36
 712 154 712 154 734 194.5 c 128,-1,37
 756 235 756 235 756 316 c 0,38,39
 756 369 756 369 752 404 c 128,-1,40
 748 439 748 439 731 476 c 0,41,42
 689 557 689 557 614.5 594 c 128,-1,43
 540 631 540 631 459 631 c 0,44,45
 323 631 323 631 234 543 c 128,-1,46
 145 455 145 455 145 314 c 2,47,-1
 145 268 l 2,48,49
 145 131 145 131 231 44 c 128,-1,50
 317 -43 317 -43 457 -43 c 2,51,-1
 675 -43 l 1,52,-1
 675 -121 l 1,0,-1
448 159 m 256,53,54
 493 159 493 159 511 186 c 128,-1,55
 529 213 529 213 529 244 c 2,56,-1
 529 353 l 2,57,58
 529 382 529 382 506 401.5 c 128,-1,59
 483 421 483 421 448 421 c 0,60,61
 401 421 401 421 380 392 c 128,-1,62
 359 363 359 363 359 322 c 2,63,-1
 359 253 l 2,64,65
 359 213 359 213 381 186 c 128,-1,66
 403 159 403 159 448 159 c 256,53,54
EndSplineSet
EndChar

StartChar: A
Encoding: 65 65 34
Width: 670
GlyphClass: 5
Flags: W
LayerCount: 2
Fore
SplineSet
648 0 m 1,0,-1
 517 0 l 1,1,-1
 458 181 l 1,2,-1
 207 181 l 1,3,-1
 149 0 l 1,4,-1
 21 0 l 1,5,-1
 257 698 l 1,6,-1
 414 698 l 1,7,-1
 648 0 l 1,0,-1
427 289 m 1,8,-1
 335 583 l 1,9,-1
 330 583 l 1,10,-1
 237 289 l 1,11,-1
 427 289 l 1,8,-1
EndSplineSet
EndChar

StartChar: B
Encoding: 66 66 35
Width: 662
GlyphClass: 7
Flags: W
LayerCount: 2
Fore
SplineSet
433 0 m 2,0,-1
 83 0 l 1,1,-1
 83 698 l 1,2,-1
 402 698 l 2,3,4
 493 698 493 698 540 646.5 c 128,-1,5
 587 595 587 595 587 518 c 0,6,7
 587 466 587 466 568 434 c 128,-1,8
 549 402 549 402 521 386.5 c 128,-1,9
 493 371 493 371 463 370 c 1,10,-1
 463 364 l 1,11,12
 531 361 531 361 572 315.5 c 128,-1,13
 613 270 613 270 613 200 c 0,14,15
 613 119 613 119 562 59.5 c 128,-1,16
 511 0 511 0 433 0 c 2,0,-1
397 107 m 1,17,18
 481 112 481 112 481 188 c 2,19,-1
 481 222 l 1,20,21
 476 302 476 302 385 302 c 2,22,-1
 209 302 l 1,23,-1
 209 107 l 1,24,-1
 397 107 l 1,17,18
376 406 m 2,25,26
 456 409 456 409 456 483 c 2,27,-1
 456 514 l 2,28,29
 453 556 453 556 430.5 573.5 c 128,-1,30
 408 591 408 591 363 591 c 2,31,-1
 209 591 l 1,32,-1
 209 406 l 1,33,-1
 376 406 l 2,25,26
EndSplineSet
EndChar

StartChar: C
Encoding: 67 67 36
Width: 640
Flags: W
LayerCount: 2
Fore
SplineSet
352 -12 m 0,0,1
 212 -12 212 -12 132.5 80.5 c 128,-1,2
 53 173 53 173 53 347 c 0,3,4
 53 527 53 527 135.5 618.5 c 128,-1,5
 218 710 218 710 352 710 c 0,6,7
 532 710 532 710 605 550 c 1,8,-1
 498 493 l 1,9,10
 463 598 463 598 352 598 c 0,11,12
 269 598 269 598 228 544 c 128,-1,13
 187 490 187 490 187 403 c 2,14,-1
 187 295 l 2,15,16
 187 198 187 198 233 149 c 128,-1,17
 279 100 279 100 352 100 c 0,18,19
 467 100 467 100 505 212 c 1,20,-1
 607 152 l 1,21,22
 531 -12 531 -12 352 -12 c 0,0,1
EndSplineSet
EndChar

StartChar: D
Encoding: 68 68 37
Width: 688
Flags: W
LayerCount: 2
Fore
SplineSet
335 0 m 2,0,-1
 83 0 l 1,1,-1
 83 698 l 1,2,-1
 335 698 l 2,3,4
 478 698 478 698 556 605.5 c 128,-1,5
 634 513 634 513 634 349 c 0,6,7
 634 229 634 229 595 151.5 c 128,-1,8
 556 74 556 74 488 37 c 128,-1,9
 420 0 420 0 335 0 c 2,0,-1
335 112 m 2,10,11
 407 112 407 112 453.5 155 c 128,-1,12
 500 198 500 198 500 294 c 2,13,-1
 500 404 l 2,14,15
 500 497 500 497 454 541.5 c 128,-1,16
 408 586 408 586 335 586 c 2,17,-1
 209 586 l 1,18,-1
 209 112 l 1,19,-1
 335 112 l 2,10,11
EndSplineSet
EndChar

StartChar: E
Encoding: 69 69 38
Width: 598
Flags: W
LayerCount: 2
Fore
SplineSet
539 0 m 1,0,-1
 83 0 l 1,1,-1
 83 698 l 1,2,-1
 539 698 l 1,3,-1
 539 586 l 1,4,-1
 209 586 l 1,5,-1
 209 409 l 1,6,-1
 503 409 l 1,7,-1
 503 298 l 1,8,-1
 209 298 l 1,9,-1
 209 112 l 1,10,-1
 539 112 l 1,11,-1
 539 0 l 1,0,-1
EndSplineSet
EndChar

StartChar: F
Encoding: 70 70 39
Width: 575
GlyphClass: 2
Flags: W
LayerCount: 2
Fore
SplineSet
209 0 m 1,0,-1
 83 0 l 1,1,-1
 83 698 l 1,2,-1
 528 698 l 1,3,-1
 528 586 l 1,4,-1
 209 586 l 1,5,-1
 209 409 l 1,6,-1
 489 409 l 1,7,-1
 489 298 l 1,8,-1
 209 298 l 1,9,-1
 209 0 l 1,0,-1
EndSplineSet
EndChar

StartChar: G
Encoding: 71 71 40
Width: 710
Flags: W
LayerCount: 2
Fore
SplineSet
341 -12 m 0,0,1
 206 -12 206 -12 129.5 84.5 c 128,-1,2
 53 181 53 181 53 348 c 0,3,4
 53 516 53 516 135 613 c 128,-1,5
 217 710 217 710 362 710 c 0,6,7
 548 710 548 710 625 551 c 1,8,-1
 522 492 l 1,9,10
 481 598 481 598 362 598 c 0,11,12
 285 598 285 598 236.5 551 c 128,-1,13
 188 504 188 504 188 406 c 2,14,-1
 188 292 l 2,15,16
 188 193 188 193 237 146.5 c 128,-1,17
 286 100 286 100 362 100 c 0,18,19
 423 100 423 100 470.5 131.5 c 128,-1,20
 518 163 518 163 518 223 c 2,21,-1
 518 271 l 1,22,-1
 378 271 l 1,23,-1
 378 378 l 1,24,-1
 639 378 l 1,25,-1
 639 0 l 1,26,-1
 530 0 l 1,27,-1
 530 108 l 1,28,-1
 526 108 l 1,29,30
 516 56 516 56 470 22 c 128,-1,31
 424 -12 424 -12 341 -12 c 0,0,1
EndSplineSet
EndChar

StartChar: H
Encoding: 72 72 41
Width: 717
GlyphClass: 5
Flags: W
LayerCount: 2
Fore
SplineSet
634 0 m 1,0,-1
 508 0 l 1,1,-1
 508 298 l 1,2,-1
 209 298 l 1,3,-1
 209 0 l 1,4,-1
 83 0 l 1,5,-1
 83 698 l 1,6,-1
 209 698 l 1,7,-1
 209 409 l 1,8,-1
 508 409 l 1,9,-1
 508 698 l 1,10,-1
 634 698 l 1,11,-1
 634 0 l 1,0,-1
EndSplineSet
EndChar

StartChar: I
Encoding: 73 73 42
Width: 292
Flags: W
LayerCount: 2
Fore
SplineSet
209 0 m 1,0,-1
 83 0 l 1,1,-1
 83 698 l 1,2,-1
 209 698 l 1,3,-1
 209 0 l 1,0,-1
EndSplineSet
EndChar

StartChar: J
Encoding: 74 74 43
Width: 540
GlyphClass: 5
Flags: W
LayerCount: 2
Fore
SplineSet
243 -12 m 0,0,1
 176 -12 176 -12 131.5 12 c 128,-1,2
 87 36 87 36 61 77 c 128,-1,3
 35 118 35 118 26 170 c 1,4,-1
 143 195 l 1,5,6
 161 100 161 100 243 100 c 0,7,8
 335 100 335 100 335 216 c 2,9,-1
 335 698 l 1,10,-1
 461 698 l 1,11,-1
 461 194 l 2,12,13
 461 100 461 100 401.5 44 c 128,-1,14
 342 -12 342 -12 243 -12 c 0,0,1
EndSplineSet
EndChar

StartChar: K
Encoding: 75 75 44
Width: 672
GlyphClass: 3
Flags: W
LayerCount: 2
Fore
SplineSet
657 0 m 1,0,-1
 506 0 l 1,1,-1
 303 319 l 1,2,-1
 209 209 l 1,3,-1
 209 0 l 1,4,-1
 83 0 l 1,5,-1
 83 698 l 1,6,-1
 209 698 l 1,7,-1
 209 351 l 1,8,-1
 214 351 l 1,9,-1
 334 507 l 2,10,11
 379 563 379 563 426 619 c 2,12,-1
 491 698 l 1,13,-1
 636 698 l 1,14,-1
 392 406 l 1,15,-1
 657 0 l 1,0,-1
EndSplineSet
EndChar

StartChar: L
Encoding: 76 76 45
Width: 519
GlyphClass: 1
Flags: W
LayerCount: 2
Fore
SplineSet
487 0 m 1,0,-1
 83 0 l 1,1,-1
 83 698 l 1,2,-1
 209 698 l 1,3,-1
 209 112 l 1,4,-1
 487 112 l 1,5,-1
 487 0 l 1,0,-1
EndSplineSet
EndChar

StartChar: M
Encoding: 77 77 46
Width: 816
GlyphClass: 3
Flags: W
LayerCount: 2
Fore
SplineSet
733 0 m 1,0,-1
 613 0 l 1,1,-1
 613 509 l 1,2,-1
 609 509 l 1,3,-1
 555 399 l 1,4,-1
 408 131 l 1,5,-1
 261 399 l 1,6,-1
 207 511 l 1,7,-1
 203 511 l 1,8,-1
 203 0 l 1,9,-1
 83 0 l 1,10,-1
 83 698 l 1,11,-1
 226 698 l 1,12,-1
 408 352 l 1,13,-1
 412 352 l 1,14,-1
 593 698 l 1,15,-1
 733 698 l 1,16,-1
 733 0 l 1,0,-1
EndSplineSet
EndChar

StartChar: N
Encoding: 78 78 47
Width: 717
GlyphClass: 7
Flags: W
LayerCount: 2
Fore
SplineSet
634 0 m 1,0,-1
 495 0 l 1,1,-1
 279 367 l 1,2,-1
 206 513 l 1,3,-1
 203 513 l 1,4,-1
 203 0 l 1,5,-1
 83 0 l 1,6,-1
 83 698 l 1,7,-1
 222 698 l 1,8,-1
 438 331 l 1,9,-1
 512 185 l 1,10,-1
 515 185 l 1,11,-1
 515 698 l 1,12,-1
 634 698 l 1,13,-1
 634 0 l 1,0,-1
EndSplineSet
EndChar

StartChar: O
Encoding: 79 79 48
Width: 713
GlyphClass: 3
Flags: W
LayerCount: 2
Fore
SplineSet
356 -12 m 0,0,1
 215 -12 215 -12 134 83 c 128,-1,2
 53 178 53 178 53 349 c 0,3,4
 53 518 53 518 133.5 614 c 128,-1,5
 214 710 214 710 356 710 c 0,6,7
 500 710 500 710 579.5 613.5 c 128,-1,8
 659 517 659 517 659 349 c 0,9,10
 659 176 659 176 576.5 82 c 128,-1,11
 494 -12 494 -12 356 -12 c 0,0,1
356 100 m 0,12,13
 430 100 430 100 477.5 149.5 c 128,-1,14
 525 199 525 199 525 304 c 2,15,-1
 525 403 l 2,16,17
 525 500 525 500 477.5 549 c 128,-1,18
 430 598 430 598 356 598 c 0,19,20
 272 598 272 598 230 542 c 128,-1,21
 188 486 188 486 188 394 c 2,22,-1
 188 295 l 2,23,24
 188 198 188 198 235.5 149 c 128,-1,25
 283 100 283 100 356 100 c 0,12,13
EndSplineSet
EndChar

StartChar: P
Encoding: 80 80 49
Width: 637
GlyphClass: 5
Flags: W
LayerCount: 2
Fore
SplineSet
209 0 m 1,0,-1
 83 0 l 1,1,-1
 83 698 l 1,2,-1
 393 698 l 2,3,4
 491 698 491 698 545 638.5 c 128,-1,5
 599 579 599 579 599 484 c 0,6,7
 599 385 599 385 543.5 327 c 128,-1,8
 488 269 488 269 393 269 c 2,9,-1
 209 269 l 1,10,-1
 209 0 l 1,0,-1
382 379 m 2,11,12
 467 382 467 382 467 460 c 2,13,-1
 467 507 l 2,14,15
 467 588 467 588 369 588 c 2,16,-1
 209 588 l 1,17,-1
 209 379 l 1,18,-1
 382 379 l 2,11,12
EndSplineSet
EndChar

StartChar: Q
Encoding: 81 81 50
Width: 713
GlyphClass: 3
Flags: W
LayerCount: 2
Fore
SplineSet
356 100 m 0,0,1
 430 100 430 100 477.5 149.5 c 128,-1,2
 525 199 525 199 525 304 c 2,3,-1
 525 403 l 2,4,5
 525 500 525 500 477.5 549 c 128,-1,6
 430 598 430 598 356 598 c 0,7,8
 272 598 272 598 230 542 c 128,-1,9
 188 486 188 486 188 394 c 2,10,-1
 188 295 l 2,11,12
 188 198 188 198 235.5 149 c 128,-1,13
 283 100 283 100 356 100 c 0,0,1
565 70 m 1,14,-1
 688 -2 l 1,15,-1
 634 -96 l 1,16,-1
 461 4 l 1,17,18
 413 -12 413 -12 356 -12 c 0,19,20
 215 -12 215 -12 134 83 c 128,-1,21
 53 178 53 178 53 349 c 0,22,23
 53 518 53 518 133.5 614 c 128,-1,24
 214 710 214 710 356 710 c 0,25,26
 500 710 500 710 579.5 613.5 c 128,-1,27
 659 517 659 517 659 349 c 0,28,29
 659 176 659 176 577 82 c 1,30,-1
 565 70 l 1,14,-1
EndSplineSet
EndChar

StartChar: R
Encoding: 82 82 51
Width: 661
GlyphClass: 5
Flags: W
LayerCount: 2
Fore
SplineSet
612 0 m 1,0,-1
 472 0 l 1,1,-1
 338 273 l 1,2,-1
 209 273 l 1,3,-1
 209 0 l 1,4,-1
 83 0 l 1,5,-1
 83 698 l 1,6,-1
 394 698 l 2,7,8
 490 698 490 698 544.5 639 c 128,-1,9
 599 580 599 580 599 484 c 0,10,11
 599 334 599 334 466 287 c 1,12,-1
 612 0 l 1,0,-1
382 379 m 2,13,14
 467 382 467 382 467 460 c 2,15,-1
 467 507 l 2,16,17
 467 588 467 588 369 588 c 2,18,-1
 209 588 l 1,19,-1
 209 379 l 1,20,-1
 382 379 l 2,13,14
EndSplineSet
EndChar

StartChar: S
Encoding: 83 83 52
Width: 607
GlyphClass: 7
Flags: W
LayerCount: 2
Fore
SplineSet
298 -12 m 0,0,1
 133 -12 133 -12 39 104 c 1,2,-1
 125 187 l 1,3,4
 197 99 197 99 305 99 c 0,5,6
 370 99 370 99 401 126.5 c 128,-1,7
 432 154 432 154 432 201 c 0,8,9
 432 238 432 238 409 261.5 c 128,-1,10
 386 285 386 285 332 294 c 2,11,-1
 268 304 l 2,12,13
 60 337 60 337 60 506 c 0,14,15
 60 593 60 593 124 651.5 c 128,-1,16
 188 710 188 710 310 710 c 0,17,18
 464 710 464 710 548 606 c 1,19,-1
 462 525 l 1,20,21
 406 599 406 599 303 599 c 0,22,23
 242 599 242 599 214 576 c 128,-1,24
 186 553 186 553 186 513 c 256,25,26
 186 473 186 473 210 452 c 128,-1,27
 234 431 234 431 287 423 c 2,28,-1
 352 411 l 2,29,30
 462 391 462 391 509.5 341.5 c 128,-1,31
 557 292 557 292 557 208 c 0,32,33
 557 109 557 109 487.5 48.5 c 128,-1,34
 418 -12 418 -12 298 -12 c 0,0,1
EndSplineSet
EndChar

StartChar: T
Encoding: 84 84 53
Width: 579
GlyphClass: 5
Flags: W
LayerCount: 2
Fore
SplineSet
353 0 m 1,0,-1
 227 0 l 1,1,-1
 227 586 l 1,2,-1
 25 586 l 1,3,-1
 25 698 l 1,4,-1
 554 698 l 1,5,-1
 554 586 l 1,6,-1
 353 586 l 1,7,-1
 353 0 l 1,0,-1
EndSplineSet
EndChar

StartChar: U
Encoding: 85 85 54
Width: 689
Flags: W
LayerCount: 2
Fore
SplineSet
344 -12 m 0,0,1
 202 -12 202 -12 140.5 58.5 c 128,-1,2
 79 129 79 129 79 286 c 2,3,-1
 79 698 l 1,4,-1
 202 698 l 1,5,-1
 202 269 l 2,6,7
 202 180 202 180 235.5 140 c 128,-1,8
 269 100 269 100 344 100 c 0,9,10
 418 100 418 100 452 140 c 128,-1,11
 486 180 486 180 486 269 c 2,12,-1
 486 698 l 1,13,-1
 610 698 l 1,14,-1
 610 286 l 2,15,16
 610 129 610 129 549 58.5 c 128,-1,17
 488 -12 488 -12 344 -12 c 0,0,1
EndSplineSet
EndChar

StartChar: V
Encoding: 86 86 55
Width: 635
Flags: W
LayerCount: 2
Fore
SplineSet
388 0 m 1,0,-1
 244 0 l 1,1,-1
 17 698 l 1,2,-1
 146 698 l 1,3,-1
 255 356 l 1,4,-1
 318 121 l 1,5,-1
 321 121 l 1,6,-1
 384 356 l 1,7,-1
 493 698 l 1,8,-1
 619 698 l 1,9,-1
 388 0 l 1,0,-1
EndSplineSet
EndChar

StartChar: W
Encoding: 87 87 56
Width: 942
Flags: W
LayerCount: 2
Fore
SplineSet
747 0 m 1,0,-1
 605 0 l 1,1,-1
 470 559 l 1,2,-1
 468 559 l 1,3,-1
 331 0 l 1,4,-1
 188 0 l 1,5,-1
 26 698 l 1,6,-1
 152 698 l 1,7,-1
 267 143 l 1,8,-1
 270 143 l 1,9,-1
 403 698 l 1,10,-1
 542 698 l 1,11,12
 600 459 600 459 674 144 c 1,13,-1
 677 144 l 1,14,-1
 794 698 l 1,15,-1
 916 698 l 1,16,-1
 747 0 l 1,0,-1
EndSplineSet
EndChar

StartChar: X
Encoding: 88 88 57
Width: 650
Flags: W
LayerCount: 2
Fore
SplineSet
631 0 m 1,0,-1
 484 0 l 1,1,-1
 321 271 l 1,2,-1
 318 271 l 1,3,-1
 157 0 l 1,4,-1
 19 0 l 1,5,-1
 245 358 l 1,6,-1
 28 698 l 1,7,-1
 176 698 l 1,8,-1
 327 446 l 1,9,-1
 330 446 l 1,10,-1
 483 698 l 1,11,-1
 621 698 l 1,12,-1
 403 358 l 1,13,-1
 631 0 l 1,0,-1
EndSplineSet
EndChar

StartChar: Y
Encoding: 89 89 58
Width: 628
Flags: W
LayerCount: 2
Fore
SplineSet
376 0 m 1,0,-1
 250 0 l 1,1,-1
 250 274 l 1,2,-1
 10 698 l 1,3,-1
 153 698 l 1,4,-1
 316 398 l 1,5,-1
 319 398 l 1,6,-1
 480 698 l 1,7,-1
 617 698 l 1,8,-1
 376 276 l 1,9,-1
 376 0 l 1,0,-1
EndSplineSet
EndChar

StartChar: Z
Encoding: 90 90 59
Width: 596
Flags: W
LayerCount: 2
Fore
SplineSet
559 0 m 1,0,-1
 38 0 l 1,1,-1
 38 112 l 1,2,-1
 405 587 l 1,3,-1
 57 587 l 1,4,-1
 57 698 l 1,5,-1
 549 698 l 1,6,-1
 549 586 l 1,7,-1
 181 111 l 1,8,-1
 559 111 l 1,9,-1
 559 0 l 1,0,-1
EndSplineSet
EndChar

StartChar: bracketleft
Encoding: 91 91 60
Width: 328
Flags: W
LayerCount: 2
Fore
SplineSet
274 -138 m 1,0,-1
 83 -138 l 1,1,-1
 83 760 l 1,2,-1
 274 760 l 1,3,-1
 274 671 l 1,4,-1
 194 671 l 1,5,-1
 194 -49 l 1,6,-1
 274 -49 l 1,7,-1
 274 -138 l 1,0,-1
EndSplineSet
EndChar

StartChar: backslash
Encoding: 92 92 61
Width: 431
Flags: W
LayerCount: 2
Fore
SplineSet
425 -151 m 1,0,-1
 322 -151 l 1,1,-1
 38 740 l 1,2,-1
 141 740 l 1,3,-1
 425 -151 l 1,0,-1
EndSplineSet
EndChar

StartChar: bracketright
Encoding: 93 93 62
Width: 328
Flags: W
LayerCount: 2
Fore
SplineSet
245 -138 m 1,0,-1
 54 -138 l 1,1,-1
 54 -49 l 1,2,-1
 134 -49 l 1,3,-1
 134 671 l 1,4,-1
 54 671 l 1,5,-1
 54 760 l 1,6,-1
 245 760 l 1,7,-1
 245 -138 l 1,0,-1
EndSplineSet
EndChar

StartChar: asciicircum
Encoding: 94 94 63
Width: 600
Flags: W
LayerCount: 2
Fore
SplineSet
458 284 m 1,0,-1
 300 570 l 1,1,-1
 295 570 l 1,2,-1
 137 284 l 1,3,-1
 45 332 l 1,4,-1
 247 698 l 1,5,-1
 354 698 l 1,6,-1
 555 332 l 1,7,-1
 458 284 l 1,0,-1
EndSplineSet
EndChar

StartChar: underscore
Encoding: 95 95 64
Width: 559
Flags: W
LayerCount: 2
Fore
SplineSet
529 -181 m 1,0,-1
 30 -181 l 1,1,-1
 30 -77 l 1,2,-1
 529 -77 l 1,3,-1
 529 -181 l 1,0,-1
EndSplineSet
EndChar

StartChar: grave
Encoding: 96 96 65
Width: 600
Flags: W
LayerCount: 2
Fore
SplineSet
287 581 m 1,0,-1
 164 751 l 1,1,-1
 268 802 l 1,2,-1
 362 617 l 1,3,-1
 287 581 l 1,0,-1
EndSplineSet
EndChar

StartChar: a
Encoding: 97 97 66
Width: 543
Flags: W
LayerCount: 2
Fore
SplineSet
204 -12 m 0,0,1
 122 -12 122 -12 80 30.5 c 128,-1,2
 38 73 38 73 38 142 c 0,3,4
 38 301 38 301 261 301 c 2,5,-1
 351 301 l 1,6,-1
 351 341 l 2,7,8
 351 436 351 436 251 436 c 0,9,10
 204 436 204 436 176.5 416.5 c 128,-1,11
 149 397 149 397 131 368 c 1,12,-1
 58 433 l 1,13,14
 117 534 117 534 259 534 c 0,15,16
 368 534 368 534 420.5 485.5 c 128,-1,17
 473 437 473 437 473 348 c 2,18,-1
 473 0 l 1,19,-1
 362 0 l 1,20,-1
 362 89 l 1,21,-1
 357 89 l 1,22,23
 341 36 341 36 299.5 12 c 128,-1,24
 258 -12 258 -12 204 -12 c 0,0,1
243 78 m 0,25,26
 287 78 287 78 319 96.5 c 128,-1,27
 351 115 351 115 351 156 c 2,28,-1
 351 226 l 1,29,-1
 271 226 l 2,30,31
 162 226 162 226 162 163 c 2,32,-1
 162 143 l 2,33,34
 162 78 162 78 243 78 c 0,25,26
EndSplineSet
EndChar

StartChar: b
Encoding: 98 98 67
Width: 597
Flags: W
LayerCount: 2
Fore
SplineSet
346 -12 m 0,0,1
 296 -12 296 -12 258.5 13 c 128,-1,2
 221 38 221 38 202 87 c 1,3,-1
 197 87 l 1,4,-1
 197 0 l 1,5,-1
 75 0 l 1,6,-1
 75 740 l 1,7,-1
 197 740 l 1,8,-1
 197 435 l 1,9,-1
 202 435 l 1,10,11
 219 482 219 482 257 508 c 128,-1,12
 295 534 295 534 346 534 c 0,13,14
 451 534 451 534 501.5 460 c 128,-1,15
 552 386 552 386 552 261 c 0,16,17
 552 134 552 134 502 61 c 128,-1,18
 452 -12 452 -12 346 -12 c 0,0,1
308 91 m 0,19,20
 368 91 368 91 396 129 c 128,-1,21
 424 167 424 167 424 222 c 2,22,-1
 424 306 l 2,23,24
 424 364 424 364 391.5 397.5 c 128,-1,25
 359 431 359 431 308 431 c 0,26,27
 260 431 260 431 228.5 407.5 c 128,-1,28
 197 384 197 384 197 340 c 2,29,-1
 197 176 l 2,30,31
 197 134 197 134 229.5 112.5 c 128,-1,32
 262 91 262 91 308 91 c 0,19,20
EndSplineSet
EndChar

StartChar: c
Encoding: 99 99 68
Width: 512
GlyphClass: 3
Flags: W
LayerCount: 2
Fore
SplineSet
280 -12 m 0,0,1
 173 -12 173 -12 107 56 c 128,-1,2
 41 124 41 124 41 261 c 0,3,4
 41 341 41 341 68 402.5 c 128,-1,5
 95 464 95 464 148 499 c 128,-1,6
 201 534 201 534 280 534 c 0,7,8
 431 534 431 534 484 403 c 1,9,-1
 384 357 l 1,10,11
 362 434 362 434 280 434 c 0,12,13
 220 434 220 434 194.5 397 c 128,-1,14
 169 360 169 360 169 308 c 2,15,-1
 169 213 l 2,16,17
 169 159 169 159 194.5 123 c 128,-1,18
 220 87 220 87 280 87 c 0,19,20
 326 87 326 87 352 109 c 128,-1,21
 378 131 378 131 394 170 c 1,22,-1
 487 124 l 1,23,24
 433 -12 433 -12 280 -12 c 0,0,1
EndSplineSet
EndChar

StartChar: d
Encoding: 100 100 69
Width: 597
Flags: W
LayerCount: 2
Fore
SplineSet
251 -12 m 0,0,1
 145 -12 145 -12 95.5 62 c 128,-1,2
 46 136 46 136 46 261 c 256,3,4
 46 386 46 386 96 460 c 128,-1,5
 146 534 146 534 251 534 c 0,6,7
 300 534 300 534 339 509 c 128,-1,8
 378 484 378 484 395 435 c 1,9,-1
 400 435 l 1,10,-1
 400 740 l 1,11,-1
 522 740 l 1,12,-1
 522 0 l 1,13,-1
 400 0 l 1,14,-1
 400 87 l 1,15,-1
 395 87 l 1,16,17
 375 36 375 36 337 12 c 128,-1,18
 299 -12 299 -12 251 -12 c 0,0,1
289 91 m 0,19,20
 338 91 338 91 369 114 c 128,-1,21
 400 137 400 137 400 182 c 2,22,-1
 400 346 l 2,23,24
 400 388 400 388 366.5 409.5 c 128,-1,25
 333 431 333 431 289 431 c 0,26,27
 230 431 230 431 202 393.5 c 128,-1,28
 174 356 174 356 174 300 c 2,29,-1
 174 216 l 2,30,31
 174 162 174 162 203.5 126.5 c 128,-1,32
 233 91 233 91 289 91 c 0,19,20
EndSplineSet
EndChar

StartChar: e
Encoding: 101 101 70
Width: 558
Flags: W
LayerCount: 2
Fore
SplineSet
284 -12 m 0,0,1
 167 -12 167 -12 104 63 c 128,-1,2
 41 138 41 138 41 261 c 0,3,4
 41 340 41 340 68.5 402 c 128,-1,5
 96 464 96 464 150 499 c 128,-1,6
 204 534 204 534 282 534 c 0,7,8
 366 534 366 534 417.5 496.5 c 128,-1,9
 469 459 469 459 493 399 c 128,-1,10
 517 339 517 339 517 272 c 2,11,-1
 517 230 l 1,12,-1
 167 230 l 1,13,14
 167 194 167 194 173.5 169 c 128,-1,15
 180 144 180 144 200 123 c 0,16,17
 233 87 233 87 297 87 c 0,18,19
 384 87 384 87 431 160 c 1,20,-1
 499 87 l 1,21,22
 432 -12 432 -12 284 -12 c 0,0,1
390 307 m 1,23,-1
 390 316 l 2,24,25
 390 370 390 370 363 405.5 c 128,-1,26
 336 441 336 441 283 441 c 0,27,28
 223 441 223 441 195 402 c 128,-1,29
 167 363 167 363 167 307 c 1,30,-1
 390 307 l 1,23,-1
EndSplineSet
EndChar

StartChar: f
Encoding: 102 102 71
Width: 347
Flags: W
LayerCount: 2
Fore
SplineSet
224 0 m 1,0,-1
 102 0 l 1,1,-1
 102 424 l 1,2,-1
 24 424 l 1,3,-1
 24 522 l 1,4,-1
 102 522 l 1,5,-1
 102 600 l 2,6,7
 102 664 102 664 136 702 c 128,-1,8
 170 740 170 740 242 740 c 2,9,-1
 331 740 l 1,10,-1
 331 642 l 1,11,-1
 224 642 l 1,12,-1
 224 522 l 1,13,-1
 331 522 l 1,14,-1
 331 424 l 1,15,-1
 224 424 l 1,16,-1
 224 0 l 1,0,-1
EndSplineSet
EndChar

StartChar: g
Encoding: 103 103 72
Width: 549
Flags: W
LayerCount: 2
Fore
SplineSet
270 -212 m 0,0,1
 30 -212 30 -212 30 -88 c 0,2,3
 30 -5 30 -5 122 12 c 1,4,-1
 122 23 l 1,5,6
 57 39 57 39 57 107 c 0,7,8
 57 177 57 177 152 199 c 1,9,-1
 152 203 l 1,10,11
 57 248 57 248 57 356 c 0,12,13
 57 433 57 433 110 483.5 c 128,-1,14
 163 534 163 534 270 534 c 0,15,16
 320 534 320 534 361 522 c 1,17,-1
 530 522 l 1,18,-1
 530 436 l 1,19,-1
 460 436 l 1,20,21
 484 401 484 401 484 356 c 0,22,23
 484 278 484 278 430.5 229.5 c 128,-1,24
 377 181 377 181 270 181 c 0,25,26
 229 181 229 181 194 190 c 1,27,28
 153 174 153 174 153 141 c 0,29,30
 153 102 153 102 223 102 c 2,31,-1
 350 102 l 2,32,33
 450 102 450 102 495.5 65.5 c 128,-1,34
 541 29 541 29 541 -45 c 0,35,36
 541 -129 541 -129 476.5 -170.5 c 128,-1,37
 412 -212 412 -212 270 -212 c 0,0,1
270 266 m 0,38,39
 367 266 367 266 367 348 c 0,40,41
 367 395 367 395 348 421.5 c 128,-1,42
 329 448 329 448 270 448 c 0,43,44
 174 448 174 448 174 364 c 0,45,46
 174 309 174 309 197 287.5 c 128,-1,47
 220 266 220 266 270 266 c 0,38,39
305 -127 m 2,48,49
 427 -127 427 -127 427 -60 c 0,50,51
 427 -5 427 -5 339 -5 c 2,52,-1
 159 -5 l 1,53,54
 129 -26 129 -26 129 -61 c 0,55,56
 129 -127 129 -127 237 -127 c 2,57,-1
 305 -127 l 2,48,49
EndSplineSet
EndChar

StartChar: h
Encoding: 104 104 73
Width: 585
GlyphClass: 3
Flags: W
LayerCount: 2
Fore
SplineSet
516 0 m 1,0,-1
 394 0 l 1,1,-1
 394 317 l 2,2,3
 394 376 394 376 371.5 403.5 c 128,-1,4
 349 431 349 431 304 431 c 0,5,6
 263 431 263 431 230 409.5 c 128,-1,7
 197 388 197 388 197 346 c 2,8,-1
 197 0 l 1,9,-1
 75 0 l 1,10,-1
 75 740 l 1,11,-1
 197 740 l 1,12,-1
 197 435 l 1,13,-1
 202 435 l 1,14,15
 237 534 237 534 348 534 c 0,16,17
 432 534 432 534 474 478.5 c 128,-1,18
 516 423 516 423 516 330 c 2,19,-1
 516 0 l 1,0,-1
EndSplineSet
EndChar

StartChar: i
Encoding: 105 105 74
Width: 272
Flags: W
LayerCount: 2
Fore
SplineSet
136 602 m 256,0,1
 64 602 64 602 64 665 c 2,2,-1
 64 683 l 2,3,4
 64 709 64 709 80.5 727.5 c 128,-1,5
 97 746 97 746 136 746 c 256,6,7
 175 746 175 746 191.5 727.5 c 128,-1,8
 208 709 208 709 208 683 c 2,9,-1
 208 665 l 2,10,11
 208 602 208 602 136 602 c 256,0,1
197 0 m 1,12,-1
 75 0 l 1,13,-1
 75 522 l 1,14,-1
 197 522 l 1,15,-1
 197 0 l 1,12,-1
EndSplineSet
EndChar

StartChar: j
Encoding: 106 106 75
Width: 272
Flags: W
LayerCount: 2
Fore
SplineSet
63 -200 m 2,0,-1
 -5 -200 l 1,1,-1
 -5 -102 l 1,2,-1
 75 -102 l 1,3,-1
 75 522 l 1,4,-1
 197 522 l 1,5,-1
 197 -65 l 2,6,7
 197 -200 197 -200 63 -200 c 2,0,-1
136 602 m 256,8,9
 64 602 64 602 64 665 c 2,10,-1
 64 683 l 2,11,12
 64 709 64 709 80.5 727.5 c 128,-1,13
 97 746 97 746 136 746 c 256,14,15
 175 746 175 746 191.5 727.5 c 128,-1,16
 208 709 208 709 208 683 c 2,17,-1
 208 665 l 2,18,19
 208 602 208 602 136 602 c 256,8,9
EndSplineSet
EndChar

StartChar: k
Encoding: 107 107 76
Width: 557
Flags: W
LayerCount: 2
Fore
SplineSet
551 0 m 1,0,-1
 406 0 l 1,1,-1
 267 239 l 1,2,-1
 197 163 l 1,3,-1
 197 0 l 1,4,-1
 75 0 l 1,5,-1
 75 740 l 1,6,-1
 197 740 l 1,7,-1
 197 292 l 1,8,-1
 202 292 l 1,9,-1
 272 386 l 1,10,-1
 390 522 l 1,11,-1
 530 522 l 1,12,-1
 350 321 l 1,13,-1
 551 0 l 1,0,-1
EndSplineSet
EndChar

StartChar: l
Encoding: 108 108 77
Width: 291
Flags: W
LayerCount: 2
Fore
SplineSet
267 0 m 1,0,-1
 198 0 l 2,1,2
 75 0 75 0 75 120 c 2,3,-1
 75 740 l 1,4,-1
 197 740 l 1,5,-1
 197 98 l 1,6,-1
 267 98 l 1,7,-1
 267 0 l 1,0,-1
EndSplineSet
EndChar

StartChar: m
Encoding: 109 109 78
Width: 886
Flags: W
LayerCount: 2
Fore
SplineSet
816 0 m 1,0,-1
 694 0 l 1,1,-1
 694 317 l 2,2,3
 694 431 694 431 606 431 c 0,4,5
 570 431 570 431 538.5 410.5 c 128,-1,6
 507 390 507 390 507 346 c 2,7,-1
 507 0 l 1,8,-1
 385 0 l 1,9,-1
 385 317 l 2,10,11
 385 431 385 431 297 431 c 0,12,13
 259 431 259 431 228 409.5 c 128,-1,14
 197 388 197 388 197 346 c 2,15,-1
 197 0 l 1,16,-1
 75 0 l 1,17,-1
 75 522 l 1,18,-1
 197 522 l 1,19,-1
 197 435 l 1,20,-1
 202 435 l 1,21,22
 232 534 232 534 342 534 c 0,23,24
 454 534 454 534 494 428 c 1,25,-1
 497 428 l 1,26,27
 510 472 510 472 549.5 503 c 128,-1,28
 589 534 589 534 655 534 c 0,29,30
 735 534 735 534 775.5 479 c 128,-1,31
 816 424 816 424 816 330 c 2,32,-1
 816 0 l 1,0,-1
EndSplineSet
EndChar

StartChar: n
Encoding: 110 110 79
Width: 585
Flags: W
LayerCount: 2
Fore
SplineSet
516 0 m 1,0,-1
 394 0 l 1,1,-1
 394 316 l 2,2,3
 394 431 394 431 307 431 c 0,4,5
 265 431 265 431 231 410 c 128,-1,6
 197 389 197 389 197 345 c 2,7,-1
 197 0 l 1,8,-1
 75 0 l 1,9,-1
 75 522 l 1,10,-1
 197 522 l 1,11,-1
 197 435 l 1,12,-1
 202 435 l 1,13,14
 238 534 238 534 348 534 c 0,15,16
 432 534 432 534 474 478.5 c 128,-1,17
 516 423 516 423 516 330 c 2,18,-1
 516 0 l 1,0,-1
EndSplineSet
EndChar

StartChar: o
Encoding: 111 111 80
Width: 564
Flags: W
LayerCount: 2
Fore
SplineSet
282 -12 m 0,0,1
 167 -12 167 -12 104 64.5 c 128,-1,2
 41 141 41 141 41 261 c 0,3,4
 41 388 41 388 106.5 461 c 128,-1,5
 172 534 172 534 282 534 c 0,6,7
 391 534 391 534 457 460.5 c 128,-1,8
 523 387 523 387 523 261 c 0,9,10
 523 139 523 139 458.5 63.5 c 128,-1,11
 394 -12 394 -12 282 -12 c 0,0,1
282 87 m 0,12,13
 395 87 395 87 395 226 c 2,14,-1
 395 308 l 2,15,16
 395 375 395 375 363 405 c 128,-1,17
 331 435 331 435 282 435 c 0,18,19
 169 435 169 435 169 296 c 2,20,-1
 169 214 l 2,21,22
 169 149 169 149 199 118 c 128,-1,23
 229 87 229 87 282 87 c 0,12,13
EndSplineSet
EndChar

StartChar: p
Encoding: 112 112 81
Width: 597
Flags: W
LayerCount: 2
Fore
SplineSet
197 -200 m 1,0,-1
 75 -200 l 1,1,-1
 75 522 l 1,2,-1
 197 522 l 1,3,-1
 197 435 l 1,4,-1
 202 435 l 1,5,6
 219 482 219 482 257 508 c 128,-1,7
 295 534 295 534 346 534 c 0,8,9
 451 534 451 534 501.5 460 c 128,-1,10
 552 386 552 386 552 261 c 0,11,12
 552 134 552 134 502 61 c 128,-1,13
 452 -12 452 -12 346 -12 c 0,14,15
 296 -12 296 -12 258.5 13 c 128,-1,16
 221 38 221 38 202 87 c 1,17,-1
 197 87 l 1,18,-1
 197 -200 l 1,0,-1
308 91 m 0,19,20
 368 91 368 91 396 129 c 128,-1,21
 424 167 424 167 424 222 c 2,22,-1
 424 306 l 2,23,24
 424 364 424 364 391.5 397.5 c 128,-1,25
 359 431 359 431 308 431 c 0,26,27
 260 431 260 431 228.5 407.5 c 128,-1,28
 197 384 197 384 197 340 c 2,29,-1
 197 176 l 2,30,31
 197 134 197 134 229.5 112.5 c 128,-1,32
 262 91 262 91 308 91 c 0,19,20
EndSplineSet
EndChar

StartChar: q
Encoding: 113 113 82
Width: 597
Flags: W
LayerCount: 2
Fore
SplineSet
522 -200 m 1,0,-1
 400 -200 l 1,1,-1
 400 87 l 1,2,-1
 395 87 l 1,3,4
 375 36 375 36 337 12 c 128,-1,5
 299 -12 299 -12 251 -12 c 0,6,7
 146 -12 146 -12 96 62 c 128,-1,8
 46 136 46 136 46 261 c 256,9,10
 46 386 46 386 96 460 c 128,-1,11
 146 534 146 534 251 534 c 0,12,13
 300 534 300 534 339 509 c 128,-1,14
 378 484 378 484 395 435 c 1,15,-1
 400 435 l 1,16,-1
 400 522 l 1,17,-1
 522 522 l 1,18,-1
 522 -200 l 1,0,-1
289 91 m 0,19,20
 338 91 338 91 369 114 c 128,-1,21
 400 137 400 137 400 182 c 2,22,-1
 400 346 l 2,23,24
 400 388 400 388 366.5 409.5 c 128,-1,25
 333 431 333 431 289 431 c 0,26,27
 230 431 230 431 202 393.5 c 128,-1,28
 174 356 174 356 174 300 c 2,29,-1
 174 216 l 2,30,31
 174 162 174 162 203.5 126.5 c 128,-1,32
 233 91 233 91 289 91 c 0,19,20
EndSplineSet
EndChar

StartChar: r
Encoding: 114 114 83
Width: 390
Flags: W
LayerCount: 2
Fore
SplineSet
197 0 m 1,0,-1
 75 0 l 1,1,-1
 75 522 l 1,2,-1
 197 522 l 1,3,-1
 197 417 l 1,4,-1
 202 417 l 1,5,6
 210 458 210 458 245 490 c 128,-1,7
 280 522 280 522 342 522 c 2,8,-1
 370 522 l 1,9,-1
 370 406 l 1,10,-1
 329 406 l 2,11,12
 259 406 259 406 228 385.5 c 128,-1,13
 197 365 197 365 197 324 c 2,14,-1
 197 0 l 1,0,-1
EndSplineSet
EndChar

StartChar: s
Encoding: 115 115 84
Width: 497
GlyphClass: 5
Flags: W
LayerCount: 2
Fore
SplineSet
244 -12 m 0,0,1
 173 -12 173 -12 121 12 c 128,-1,2
 69 36 69 36 30 85 c 1,3,-1
 106 157 l 1,4,5
 162 85 162 85 250 85 c 0,6,7
 339 85 339 85 339 148 c 0,8,9
 339 196 339 196 272 206 c 0,10,11
 195 217 195 217 162 225 c 0,12,13
 121 235 121 235 91 262 c 0,14,15
 48 300 48 300 48 370 c 0,16,17
 48 446 48 446 102 490 c 128,-1,18
 156 534 156 534 245 534 c 0,19,20
 320 534 320 534 366 511.5 c 128,-1,21
 412 489 412 489 446 451 c 1,22,-1
 373 379 l 1,23,24
 321 437 321 437 248 437 c 0,25,26
 205 437 205 437 185.5 420.5 c 128,-1,27
 166 404 166 404 166 379 c 0,28,29
 166 323 166 323 237 318 c 1,30,-1
 289 311 l 2,31,32
 457 288 457 288 457 158 c 0,33,34
 457 80 457 80 397.5 34 c 128,-1,35
 338 -12 338 -12 244 -12 c 0,0,1
EndSplineSet
EndChar

StartChar: t
Encoding: 116 116 85
Width: 371
Flags: W
LayerCount: 2
Fore
SplineSet
325 0 m 1,0,-1
 232 0 l 2,1,2
 104 0 104 0 104 126 c 2,3,-1
 104 424 l 1,4,-1
 25 424 l 1,5,-1
 25 522 l 1,6,-1
 70 522 l 2,7,8
 116 522 116 522 116 574 c 2,9,-1
 116 664 l 1,10,-1
 226 664 l 1,11,-1
 226 522 l 1,12,-1
 333 522 l 1,13,-1
 333 424 l 1,14,-1
 226 424 l 1,15,-1
 226 98 l 1,16,-1
 325 98 l 1,17,-1
 325 0 l 1,0,-1
EndSplineSet
EndChar

StartChar: u
Encoding: 117 117 86
Width: 585
Flags: W
LayerCount: 2
Fore
SplineSet
238 -12 m 0,0,1
 154 -12 154 -12 112 41 c 128,-1,2
 70 94 70 94 70 191 c 2,3,-1
 70 522 l 1,4,-1
 192 522 l 1,5,-1
 192 205 l 2,6,7
 192 91 192 91 277 91 c 2,8,-1
 283 91 l 2,9,10
 308 91 308 91 332 99.5 c 128,-1,11
 356 108 356 108 372 127 c 128,-1,12
 388 146 388 146 388 176 c 2,13,-1
 388 522 l 1,14,-1
 510 522 l 1,15,-1
 510 0 l 1,16,-1
 388 0 l 1,17,-1
 388 87 l 1,18,-1
 384 87 l 1,19,20
 353 -12 353 -12 238 -12 c 0,0,1
EndSplineSet
EndChar

StartChar: v
Encoding: 118 118 87
Width: 521
Flags: W
LayerCount: 2
Fore
SplineSet
332 0 m 1,0,-1
 188 0 l 1,1,-1
 12 522 l 1,2,-1
 133 522 l 1,3,4
 211 280 211 280 211.5 277.5 c 128,-1,5
 212 275 212 275 259 108 c 1,6,-1
 266 108 l 1,7,-1
 310 265 l 2,8,9
 334 355 334 355 371 461 c 2,10,-1
 392 522 l 1,11,-1
 508 522 l 1,12,-1
 332 0 l 1,0,-1
EndSplineSet
EndChar

StartChar: w
Encoding: 119 119 88
Width: 813
Flags: W
LayerCount: 2
Fore
SplineSet
648 0 m 1,0,-1
 514 0 l 1,1,-1
 407 375 l 1,2,-1
 405 375 l 1,3,-1
 360 214 l 1,4,-1
 298 0 l 1,5,-1
 167 0 l 1,6,-1
 24 522 l 1,7,-1
 142 522 l 1,8,-1
 238 121 l 1,9,-1
 241 121 l 1,10,-1
 268 223 l 2,11,12
 292 312 292 312 314 387 c 2,13,-1
 353 522 l 1,14,-1
 463 522 l 1,15,-1
 503 386 l 2,16,17
 524 314 524 314 545 236 c 2,18,-1
 577 121 l 1,19,-1
 581 121 l 1,20,-1
 603 218 l 2,21,22
 615 276 615 276 629 327 c 2,23,-1
 676 522 l 1,24,-1
 789 522 l 1,25,-1
 648 0 l 1,0,-1
EndSplineSet
EndChar

StartChar: x
Encoding: 120 120 89
Width: 540
Flags: W
LayerCount: 2
Fore
SplineSet
521 0 m 1,0,-1
 381 0 l 1,1,-1
 267 183 l 1,2,-1
 264 183 l 1,3,-1
 148 0 l 1,4,-1
 19 0 l 1,5,-1
 199 264 l 1,6,-1
 23 522 l 1,7,-1
 163 522 l 1,8,-1
 274 346 l 1,9,-1
 277 346 l 1,10,-1
 389 522 l 1,11,-1
 518 522 l 1,12,-1
 342 263 l 1,13,-1
 521 0 l 1,0,-1
EndSplineSet
EndChar

StartChar: y
Encoding: 121 121 90
Width: 521
Flags: W
LayerCount: 2
Fore
SplineSet
152 -200 m 2,0,-1
 80 -200 l 1,1,-1
 80 -102 l 1,2,-1
 171 -102 l 1,3,-1
 197 -24 l 1,4,-1
 10 522 l 1,5,-1
 132 522 l 1,6,-1
 231 219 l 1,7,-1
 259 110 l 1,8,-1
 265 110 l 1,9,-1
 295 219 l 1,10,-1
 395 522 l 1,11,-1
 511 522 l 1,12,-1
 297 -96 l 2,13,14
 280 -151 280 -151 247 -175.5 c 128,-1,15
 214 -200 214 -200 152 -200 c 2,0,-1
EndSplineSet
EndChar

StartChar: z
Encoding: 122 122 91
Width: 497
Flags: W
LayerCount: 2
Fore
SplineSet
460 0 m 1,0,-1
 37 0 l 1,1,-1
 37 98 l 1,2,-1
 310 424 l 1,3,-1
 46 424 l 1,4,-1
 46 522 l 1,5,-1
 453 522 l 1,6,-1
 453 427 l 1,7,-1
 177 98 l 1,8,-1
 460 98 l 1,9,-1
 460 0 l 1,0,-1
EndSplineSet
EndChar

StartChar: braceleft
Encoding: 123 123 92
Width: 360
Flags: W
LayerCount: 2
Fore
SplineSet
306 -138 m 1,0,-1
 207 -138 l 2,1,2
 165 -138 165 -138 141 -113 c 128,-1,3
 117 -88 117 -88 117 -44 c 2,4,-1
 117 173 l 2,5,6
 117 218 117 218 88.5 240 c 128,-1,7
 60 262 60 262 20 262 c 1,8,-1
 20 361 l 1,9,10
 60 361 60 361 88.5 382.5 c 128,-1,11
 117 404 117 404 117 450 c 2,12,-1
 117 666 l 2,13,14
 117 718 117 718 146.5 739 c 128,-1,15
 176 760 176 760 216 760 c 2,16,-1
 306 760 l 1,17,-1
 306 671 l 1,18,-1
 228 671 l 1,19,-1
 228 443 l 2,20,21
 228 393 228 393 198.5 358.5 c 128,-1,22
 169 324 169 324 127 315 c 1,23,-1
 127 307 l 1,24,25
 177 295 177 295 202.5 257 c 128,-1,26
 228 219 228 219 228 170 c 2,27,-1
 228 -49 l 1,28,-1
 306 -49 l 1,29,-1
 306 -138 l 1,0,-1
EndSplineSet
EndChar

StartChar: bar
Encoding: 124 124 93
Width: 369
Flags: W
LayerCount: 2
Fore
SplineSet
237 -138 m 1,0,-1
 133 -138 l 1,1,-1
 133 760 l 1,2,-1
 237 760 l 1,3,-1
 237 -138 l 1,0,-1
EndSplineSet
EndChar

StartChar: braceright
Encoding: 125 125 94
Width: 361
Flags: W
LayerCount: 2
Fore
SplineSet
153 -138 m 2,0,-1
 54 -138 l 1,1,-1
 54 -49 l 1,2,-1
 134 -49 l 1,3,-1
 134 179 l 2,4,5
 134 222 134 222 160.5 259.5 c 128,-1,6
 187 297 187 297 234 307 c 1,7,-1
 234 315 l 1,8,9
 187 326 187 326 160.5 362 c 128,-1,10
 134 398 134 398 134 443 c 2,11,-1
 134 671 l 1,12,-1
 54 671 l 1,13,-1
 54 760 l 1,14,-1
 153 760 l 2,15,16
 191 760 191 760 218 735.5 c 128,-1,17
 245 711 245 711 245 666 c 2,18,-1
 245 450 l 2,19,20
 245 403 245 403 273 382 c 128,-1,21
 301 361 301 361 342 361 c 1,22,-1
 342 262 l 1,23,24
 301 262 301 262 273 240.5 c 128,-1,25
 245 219 245 219 245 173 c 2,26,-1
 245 -44 l 2,27,28
 245 -90 245 -90 218 -114 c 128,-1,29
 191 -138 191 -138 153 -138 c 2,0,-1
EndSplineSet
EndChar

StartChar: asciitilde
Encoding: 126 126 95
Width: 600
Flags: W
LayerCount: 2
Fore
SplineSet
417 221 m 0,0,1
 377 221 377 221 345.5 232.5 c 128,-1,2
 314 244 314 244 287 258 c 128,-1,3
 260 272 260 272 234.5 281.5 c 128,-1,4
 209 291 209 291 179 291 c 0,5,6
 155 291 155 291 137.5 284 c 128,-1,7
 120 277 120 277 99 262 c 1,8,-1
 56 331 l 1,9,10
 97 390 97 390 183 390 c 0,11,12
 219 390 219 390 249 379 c 128,-1,13
 279 368 279 368 306 354.5 c 128,-1,14
 333 341 333 341 361 330.5 c 128,-1,15
 389 320 389 320 421 320 c 0,16,17
 444 320 444 320 461.5 326.5 c 128,-1,18
 479 333 479 333 501 349 c 1,19,-1
 544 281 l 1,20,21
 503 221 503 221 417 221 c 0,0,1
EndSplineSet
EndChar

StartChar: exclamdown
Encoding: 161 161 97
Width: 305
Flags: W
LayerCount: 2
Fore
SplineSet
219 -176 m 1,0,-1
 88 -176 l 1,1,-1
 88 21 l 1,2,-1
 125 315 l 1,3,-1
 180 315 l 1,4,-1
 219 21 l 1,5,-1
 219 -176 l 1,0,-1
153 376 m 0,6,7
 74 376 74 376 74 445 c 2,8,-1
 74 464 l 2,9,10
 74 534 74 534 153 534 c 0,11,12
 195 534 195 534 213 513.5 c 128,-1,13
 231 493 231 493 231 464 c 2,14,-1
 231 445 l 2,15,16
 231 376 231 376 153 376 c 0,6,7
EndSplineSet
EndChar

StartChar: cent
Encoding: 162 162 98
Width: 537
Flags: W
LayerCount: 2
Fore
SplineSet
330 -114 m 1,0,-1
 236 -114 l 1,1,-1
 236 -8 l 1,2,3
 138 11 138 11 90.5 82 c 128,-1,4
 43 153 43 153 43 258 c 256,5,6
 43 363 43 363 90.5 434 c 128,-1,7
 138 505 138 505 236 524 c 1,8,-1
 236 630 l 1,9,-1
 330 630 l 1,10,-1
 330 525 l 1,11,12
 452 504 452 504 493 405 c 1,13,-1
 403 355 l 1,14,15
 380 412 380 412 324 428 c 1,16,-1
 324 87 l 1,17,18
 387 104 387 104 413 164 c 1,19,-1
 500 112 l 1,20,21
 455 10 455 10 330 -9 c 1,22,-1
 330 -114 l 1,0,-1
242 89 m 1,23,-1
 242 427 l 1,24,25
 163 399 163 399 163 301 c 2,26,-1
 163 215 l 2,27,28
 163 117 163 117 242 89 c 1,23,-1
EndSplineSet
EndChar

StartChar: sterling
Encoding: 163 163 99
Width: 587
Flags: W
LayerCount: 2
Fore
SplineSet
543 0 m 1,0,-1
 72 0 l 1,1,-1
 72 122 l 1,2,3
 113 139 113 139 132 173 c 128,-1,4
 151 207 151 207 151 250 c 0,5,6
 151 270 151 270 147 289 c 1,7,-1
 44 289 l 1,8,-1
 44 390 l 1,9,-1
 111 390 l 1,10,11
 89 445 89 445 89 503 c 0,12,13
 89 593 89 593 154 652 c 0,14,15
 222 710 222 710 331 710 c 0,16,17
 483 710 483 710 559 592 c 1,18,-1
 467 527 l 1,19,20
 441 562 441 562 409 581.5 c 128,-1,21
 377 601 377 601 333 601 c 0,22,23
 224 601 224 601 217 495 c 0,24,25
 217 480 217 480 216 473 c 2,26,-1
 217 466 l 2,27,28
 221 425 221 425 236 390 c 1,29,-1
 440 390 l 1,30,-1
 440 289 l 1,31,-1
 271 289 l 1,32,33
 274 273 274 273 274 256 c 0,34,35
 274 202 274 202 250 167 c 128,-1,36
 226 132 226 132 197 115 c 1,37,-1
 197 108 l 1,38,-1
 543 108 l 1,39,-1
 543 0 l 1,0,-1
EndSplineSet
EndChar

StartChar: yen
Encoding: 165 165 100
Width: 631
Flags: W
LayerCount: 2
Fore
SplineSet
378 0 m 1,0,-1
 252 0 l 1,1,-1
 252 138 l 1,2,-1
 81 138 l 1,3,-1
 81 219 l 1,4,-1
 252 219 l 1,5,-1
 252 298 l 1,6,-1
 81 298 l 1,7,-1
 81 379 l 1,8,-1
 201 379 l 1,9,-1
 25 698 l 1,10,-1
 168 698 l 1,11,-1
 320 408 l 1,12,-1
 323 408 l 1,13,-1
 471 698 l 1,14,-1
 607 698 l 1,15,-1
 430 379 l 1,16,-1
 549 379 l 1,17,-1
 549 298 l 1,18,-1
 378 298 l 1,19,-1
 378 219 l 1,20,-1
 549 219 l 1,21,-1
 549 138 l 1,22,-1
 378 138 l 1,23,-1
 378 0 l 1,0,-1
EndSplineSet
EndChar

StartChar: brokenbar
Encoding: 166 166 101
Width: 369
Flags: W
LayerCount: 2
Fore
SplineSet
237 403 m 1,0,-1
 133 403 l 1,1,-1
 133 760 l 1,2,-1
 237 760 l 1,3,-1
 237 403 l 1,0,-1
237 -138 m 1,4,-1
 133 -138 l 1,5,-1
 133 219 l 1,6,-1
 237 219 l 1,7,-1
 237 -138 l 1,4,-1
EndSplineSet
EndChar

StartChar: section
Encoding: 167 167 102
Width: 574
Flags: W
LayerCount: 2
Fore
SplineSet
272 -159 m 0,0,1
 161 -159 161 -159 86 -93 c 1,2,-1
 148 -17 l 1,3,4
 197 -67 197 -67 274 -67 c 0,5,6
 375 -62 375 -62 375 5 c 0,7,8
 375 36 375 36 353 54 c 128,-1,9
 331 72 331 72 282 86 c 2,10,-1
 211 106 l 2,11,12
 59 149 59 149 59 256 c 0,13,14
 59 348 59 348 167 396 c 1,15,-1
 167 409 l 1,16,17
 91 461 91 461 91 545 c 0,18,19
 91 624 91 624 150 667 c 128,-1,20
 209 710 209 710 300 710 c 0,21,22
 414 710 414 710 488 644 c 1,23,-1
 425 569 l 1,24,25
 372 619 372 619 298 619 c 0,26,27
 253 619 253 619 225 601.5 c 128,-1,28
 197 584 197 584 197 549 c 0,29,30
 197 518 197 518 220 499.5 c 128,-1,31
 243 481 243 481 291 469 c 2,32,-1
 363 450 l 1,33,34
 515 403 515 403 515 298 c 0,35,36
 515 253 515 253 488 217 c 128,-1,37
 461 181 461 181 406 158 c 1,38,-1
 406 146 l 1,39,40
 483 96 483 96 483 10 c 0,41,42
 483 -70 483 -70 423 -114.5 c 128,-1,43
 363 -159 363 -159 272 -159 c 0,0,1
362 169 m 1,44,45
 409 208 409 208 409 263 c 0,46,47
 409 299 409 299 384.5 321 c 128,-1,48
 360 343 360 343 305 359 c 0,49,50
 225 381 225 381 212 386 c 1,51,52
 165 345 165 345 165 292 c 0,53,54
 165 226 165 226 259 199 c 0,55,56
 337 178 337 178 356 171 c 2,57,-1
 362 169 l 1,44,45
EndSplineSet
EndChar

StartChar: dieresis
Encoding: 168 168 103
Width: 600
GlyphClass: 5
Flags: W
LayerCount: 2
Fore
SplineSet
197 607 m 256,0,1
 129 607 129 607 129 663 c 2,2,-1
 129 683 l 2,3,4
 129 740 129 740 197 740 c 256,5,6
 265 740 265 740 265 683 c 2,7,-1
 265 663 l 2,8,9
 265 607 265 607 197 607 c 256,0,1
403 607 m 256,10,11
 335 607 335 607 335 663 c 2,12,-1
 335 683 l 2,13,14
 335 740 335 740 403 740 c 256,15,16
 471 740 471 740 471 683 c 2,17,-1
 471 663 l 2,18,19
 471 607 471 607 403 607 c 256,10,11
EndSplineSet
EndChar

StartChar: copyright
Encoding: 169 169 104
Width: 785
Flags: W
LayerCount: 2
Fore
SplineSet
393 -11 m 0,0,1
 279 -11 279 -11 202.5 39.5 c 128,-1,2
 126 90 126 90 88 172.5 c 128,-1,3
 50 255 50 255 50 349 c 0,4,5
 50 463 50 463 96 543.5 c 128,-1,6
 142 624 142 624 219.5 666.5 c 128,-1,7
 297 709 297 709 393 709 c 0,8,9
 501 709 501 709 577.5 660 c 128,-1,10
 654 611 654 611 694.5 529.5 c 128,-1,11
 735 448 735 448 735 349 c 0,12,13
 735 229 735 229 686 149 c 128,-1,14
 637 69 637 69 559 29 c 128,-1,15
 481 -11 481 -11 393 -11 c 0,0,1
393 51 m 0,16,17
 509 51 509 51 586 126.5 c 128,-1,18
 663 202 663 202 663 316 c 2,19,-1
 663 382 l 2,20,21
 663 465 663 465 624.5 524.5 c 128,-1,22
 586 584 586 584 524.5 615.5 c 128,-1,23
 463 647 463 647 393 647 c 0,24,25
 313 647 313 647 251.5 611 c 128,-1,26
 190 575 190 575 156 515 c 128,-1,27
 122 455 122 455 122 382 c 2,28,-1
 122 316 l 2,29,30
 122 202 122 202 198.5 126.5 c 128,-1,31
 275 51 275 51 393 51 c 0,16,17
400 142 m 0,32,33
 305 142 305 142 257 200 c 128,-1,34
 209 258 209 258 209 349 c 256,35,36
 209 440 209 440 257 498 c 128,-1,37
 305 556 305 556 400 556 c 0,38,39
 521 556 521 556 563 453 c 1,40,-1
 479 411 l 1,41,42
 467 439 467 439 449 453.5 c 128,-1,43
 431 468 431 468 400 468 c 0,44,45
 363 468 363 468 343 445 c 128,-1,46
 323 422 323 422 323 386 c 2,47,-1
 323 312 l 2,48,49
 324 275 324 275 342 252 c 128,-1,50
 360 229 360 229 400 229 c 0,51,52
 460 229 460 229 487 288 c 1,53,-1
 570 246 l 1,54,55
 526 142 526 142 400 142 c 0,32,33
EndSplineSet
EndChar

StartChar: ordfeminine
Encoding: 170 170 105
Width: 410
GlyphClass: 5
Flags: W
LayerCount: 2
Fore
SplineSet
156 339 m 0,0,1
 105 339 105 339 74.5 365.5 c 128,-1,2
 44 392 44 392 44 443 c 0,3,4
 44 552 44 552 194 552 c 2,5,-1
 261 552 l 1,6,-1
 261 573 l 2,7,8
 261 640 261 640 201 640 c 0,9,10
 160 640 160 640 134 611 c 1,11,12
 123 613 123 613 114 613 c 0,13,14
 100 613 100 613 89 609 c 1,15,-1
 55 640 l 1,16,17
 71 670 71 670 108 690 c 128,-1,18
 145 710 145 710 202 710 c 0,19,20
 270 710 270 710 309.5 676.5 c 128,-1,21
 349 643 349 643 349 577 c 2,22,-1
 349 347 l 1,23,-1
 269 347 l 1,24,-1
 269 407 l 1,25,-1
 265 407 l 1,26,27
 240 339 240 339 156 339 c 0,0,1
186 400 m 0,28,29
 215 400 215 400 238 413.5 c 128,-1,30
 261 427 261 427 261 457 c 2,31,-1
 261 499 l 1,32,-1
 204 499 l 2,33,34
 157 499 157 499 143.5 485.5 c 128,-1,35
 130 472 130 472 130 442 c 0,36,37
 130 400 130 400 186 400 c 0,28,29
EndSplineSet
EndChar

StartChar: guillemotleft
Encoding: 171 171 106
Width: 541
Flags: W
LayerCount: 2
Fore
SplineSet
225 61 m 1,0,-1
 37 223 l 1,1,-1
 37 330 l 1,2,-1
 225 492 l 1,3,-1
 261 415 l 1,4,-1
 135 277 l 1,5,-1
 261 138 l 1,6,-1
 225 61 l 1,0,-1
454 61 m 1,7,-1
 266 223 l 1,8,-1
 266 330 l 1,9,-1
 454 492 l 1,10,-1
 490 415 l 1,11,-1
 364 277 l 1,12,-1
 490 138 l 1,13,-1
 454 61 l 1,7,-1
EndSplineSet
EndChar

StartChar: logicalnot
Encoding: 172 172 107
Width: 611
Flags: W
LayerCount: 2
Fore
SplineSet
544 78 m 1,0,-1
 443 78 l 1,1,-1
 443 256 l 1,2,-1
 58 256 l 1,3,-1
 58 355 l 1,4,-1
 544 355 l 1,5,-1
 544 78 l 1,0,-1
EndSplineSet
EndChar

StartChar: sfthyphen
Encoding: 173 173 108
Width: 402
Flags: W
LayerCount: 2
Fore
SplineSet
343 244 m 1,0,-1
 59 244 l 1,1,-1
 59 366 l 1,2,-1
 343 366 l 1,3,-1
 343 244 l 1,0,-1
EndSplineSet
EndChar

StartChar: registered
Encoding: 174 174 109
Width: 469
Flags: W
LayerCount: 2
Fore
SplineSet
235 298 m 0,0,1
 147 298 147 298 90.5 359 c 128,-1,2
 34 420 34 420 34 504 c 0,3,4
 34 587 34 587 90.5 648.5 c 128,-1,5
 147 710 147 710 235 710 c 0,6,7
 324 710 324 710 379.5 647.5 c 128,-1,8
 435 585 435 585 435 504 c 0,9,10
 435 419 435 419 378 358.5 c 128,-1,11
 321 298 321 298 235 298 c 0,0,1
235 342 m 0,12,13
 300 342 300 342 343 384 c 128,-1,14
 386 426 386 426 386 490 c 2,15,-1
 386 518 l 2,16,17
 386 578 386 578 344.5 622 c 128,-1,18
 303 666 303 666 235 666 c 0,19,20
 166 666 166 666 124.5 621.5 c 128,-1,21
 83 577 83 577 83 518 c 2,22,-1
 83 490 l 2,23,24
 83 425 83 425 128 383.5 c 128,-1,25
 173 342 173 342 235 342 c 0,12,13
331 399 m 1,26,-1
 271 399 l 1,27,-1
 234 467 l 1,28,-1
 207 467 l 1,29,-1
 207 399 l 1,30,-1
 152 399 l 1,31,-1
 152 608 l 1,32,-1
 249 608 l 2,33,34
 288 608 288 608 305.5 588 c 128,-1,35
 323 568 323 568 323 540 c 0,36,37
 323 491 323 491 285 476 c 1,38,-1
 331 399 l 1,26,-1
241 508 m 2,39,40
 267 508 267 508 267 530 c 2,41,-1
 267 545 l 2,42,43
 267 565 267 565 241 565 c 2,44,-1
 207 565 l 1,45,-1
 207 508 l 1,46,-1
 241 508 l 2,39,40
EndSplineSet
EndChar

StartChar: macron
Encoding: 175 175 110
Width: 600
Flags: W
LayerCount: 2
Fore
SplineSet
448 629 m 1,0,-1
 152 629 l 1,1,-1
 152 718 l 1,2,-1
 448 718 l 1,3,-1
 448 629 l 1,0,-1
EndSplineSet
EndChar

StartChar: degree
Encoding: 176 176 111
Width: 470
Flags: W
LayerCount: 2
Fore
SplineSet
235 346 m 0,0,1
 154 346 154 346 105 400 c 128,-1,2
 56 454 56 454 56 528 c 0,3,4
 56 604 56 604 107 657 c 128,-1,5
 158 710 158 710 235 710 c 0,6,7
 309 710 309 710 361.5 658.5 c 128,-1,8
 414 607 414 607 414 528 c 0,9,10
 414 445 414 445 360 395.5 c 128,-1,11
 306 346 306 346 235 346 c 0,0,1
235 430 m 256,12,13
 279 430 279 430 301.5 459 c 128,-1,14
 324 488 324 488 324 528 c 0,15,16
 324 567 324 567 301.5 596.5 c 128,-1,17
 279 626 279 626 235 626 c 0,18,19
 189 626 189 626 167.5 596.5 c 128,-1,20
 146 567 146 567 146 528 c 0,21,22
 146 488 146 488 168.5 459 c 128,-1,23
 191 430 191 430 235 430 c 256,12,13
EndSplineSet
EndChar

StartChar: plusminus
Encoding: 177 177 112
Width: 600
Flags: W
LayerCount: 2
Fore
SplineSet
354 173 m 1,0,-1
 246 173 l 1,1,-1
 246 351 l 1,2,-1
 67 351 l 1,3,-1
 67 450 l 1,4,-1
 246 450 l 1,5,-1
 246 628 l 1,6,-1
 354 628 l 1,7,-1
 354 450 l 1,8,-1
 533 450 l 1,9,-1
 533 351 l 1,10,-1
 354 351 l 1,11,-1
 354 173 l 1,0,-1
533 0 m 1,12,-1
 67 0 l 1,13,-1
 67 99 l 1,14,-1
 533 99 l 1,15,-1
 533 0 l 1,12,-1
EndSplineSet
EndChar

StartChar: twosuperior
Encoding: 178 178 113
Width: 346
Flags: W
LayerCount: 2
Fore
SplineSet
317 329 m 1,0,-1
 35 329 l 1,1,-1
 35 405 l 1,2,-1
 152 497 l 2,3,4
 185 522 185 522 201 541 c 128,-1,5
 217 560 217 560 217 585 c 0,6,7
 217 631 217 631 165 631 c 0,8,9
 117 631 117 631 102 581 c 1,10,-1
 26 609 l 1,11,12
 55 704 55 704 173 704 c 0,13,14
 241 704 241 704 275.5 672 c 128,-1,15
 310 640 310 640 310 592 c 0,16,17
 310 512 310 512 205 449 c 1,18,-1
 130 399 l 1,19,-1
 317 399 l 1,20,-1
 317 329 l 1,0,-1
EndSplineSet
EndChar

StartChar: threesuperior
Encoding: 179 179 114
Width: 345
Flags: W
LayerCount: 2
Fore
SplineSet
159 323 m 0,0,1
 50 323 50 323 11 395 c 1,2,-1
 76 443 l 1,3,4
 100 391 100 391 159 391 c 0,5,6
 190 391 190 391 205 404.5 c 128,-1,7
 220 418 220 418 220 439 c 0,8,9
 220 483 220 483 152 483 c 2,10,-1
 116 483 l 1,11,-1
 116 553 l 1,12,-1
 152 553 l 2,13,14
 183 553 183 553 198 564 c 128,-1,15
 213 575 213 575 213 590 c 0,16,17
 213 608 213 608 200.5 622 c 128,-1,18
 188 636 188 636 160 636 c 0,19,20
 110 636 110 636 78 592 c 1,21,-1
 24 642 l 1,22,23
 67 704 67 704 163 704 c 0,24,25
 225 704 225 704 265 678 c 128,-1,26
 305 652 305 652 305 605 c 0,27,28
 305 566 305 566 282.5 546.5 c 128,-1,29
 260 527 260 527 228 523 c 1,30,-1
 228 519 l 1,31,32
 311 507 311 507 311 432 c 0,33,34
 311 379 311 379 267.5 351 c 128,-1,35
 224 323 224 323 159 323 c 0,0,1
EndSplineSet
EndChar

StartChar: acute
Encoding: 180 180 115
Width: 600
Flags: W
LayerCount: 2
Fore
SplineSet
313 581 m 1,0,-1
 238 617 l 1,1,-1
 332 802 l 1,2,-1
 436 751 l 1,3,-1
 313 581 l 1,0,-1
EndSplineSet
EndChar

StartChar: mu
Encoding: 181 181 116
Width: 591
Flags: W
LayerCount: 2
Fore
SplineSet
197 -200 m 1,0,-1
 75 -200 l 1,1,-1
 75 522 l 1,2,-1
 197 522 l 1,3,-1
 197 205 l 2,4,5
 197 91 197 91 288 91 c 0,6,7
 312 91 312 91 336 100 c 0,8,9
 394 120 394 120 394 175 c 2,10,-1
 394 522 l 1,11,-1
 516 522 l 1,12,-1
 516 0 l 1,13,-1
 394 0 l 1,14,-1
 394 87 l 1,15,-1
 389 87 l 1,16,17
 357 -12 357 -12 263 -12 c 0,18,19
 202 -12 202 -12 181 34 c 1,20,-1
 176 34 l 1,21,22
 191 -40 191 -40 197 -111 c 1,23,-1
 197 -200 l 1,0,-1
EndSplineSet
EndChar

StartChar: paragraph
Encoding: 182 182 117
Width: 668
Flags: W
LayerCount: 2
Fore
SplineSet
537 -149 m 1,0,-1
 442 -149 l 1,1,-1
 442 607 l 1,2,-1
 339 607 l 1,3,-1
 339 -149 l 1,4,-1
 243 -149 l 1,5,-1
 243 275 l 1,6,7
 156 275 156 275 97.5 337.5 c 128,-1,8
 39 400 39 400 39 486 c 0,9,10
 39 571 39 571 98 634.5 c 128,-1,11
 157 698 157 698 243 698 c 2,12,-1
 603 698 l 1,13,-1
 603 607 l 1,14,-1
 537 607 l 1,15,-1
 537 -149 l 1,0,-1
EndSplineSet
EndChar

StartChar: periodcentered
Encoding: 183 183 118
Width: 357
Flags: W
LayerCount: 2
Fore
SplineSet
178 220 m 0,0,1
 133 220 133 220 114.5 241 c 128,-1,2
 96 262 96 262 96 292 c 2,3,-1
 96 315 l 2,4,5
 96 343 96 343 114.5 365 c 128,-1,6
 133 387 133 387 178 387 c 0,7,8
 222 387 222 387 241.5 366.5 c 128,-1,9
 261 346 261 346 261 315 c 2,10,-1
 261 292 l 2,11,12
 261 261 261 261 241.5 240.5 c 128,-1,13
 222 220 222 220 178 220 c 0,0,1
EndSplineSet
EndChar

StartChar: cedilla
Encoding: 184 184 119
Width: 600
Flags: W
LayerCount: 2
Fore
SplineSet
313 -210 m 0,0,1
 230 -210 230 -210 199 -167 c 1,2,-1
 242 -117 l 1,3,4
 263 -146 263 -146 306 -146 c 0,5,6
 324 -146 324 -146 337 -139 c 128,-1,7
 350 -132 350 -132 350 -118 c 0,8,9
 350 -81 350 -81 254 -75 c 1,10,-1
 275 26 l 1,11,-1
 335 26 l 1,12,-1
 318 -57 l 1,13,-1
 322 -61 l 1,14,15
 342 -54 342 -54 366 -54 c 0,16,17
 394 -54 394 -54 415.5 -69 c 128,-1,18
 437 -84 437 -84 437 -122 c 0,19,20
 437 -169 437 -169 400 -189.5 c 128,-1,21
 363 -210 363 -210 313 -210 c 0,0,1
EndSplineSet
EndChar

StartChar: onesuperior
Encoding: 185 185 120
Width: 320
Flags: W
LayerCount: 2
Fore
SplineSet
237 329 m 1,0,-1
 151 329 l 1,1,-1
 151 621 l 1,2,-1
 71 582 l 1,3,-1
 71 660 l 1,4,-1
 146 698 l 1,5,-1
 237 698 l 1,6,-1
 237 329 l 1,0,-1
EndSplineSet
EndChar

StartChar: ordmasculine
Encoding: 186 186 121
Width: 420
Flags: W
LayerCount: 2
Fore
SplineSet
210 338 m 0,0,1
 126 338 126 338 83 388.5 c 128,-1,2
 40 439 40 439 40 524 c 0,3,4
 40 605 40 605 82.5 657.5 c 128,-1,5
 125 710 125 710 210 710 c 256,6,7
 295 710 295 710 338 658 c 128,-1,8
 381 606 381 606 381 524 c 0,9,10
 381 432 381 432 333 385 c 128,-1,11
 285 338 285 338 210 338 c 0,0,1
210 406 m 256,12,13
 288 406 288 406 288 499 c 2,14,-1
 288 554 l 2,15,16
 288 639 288 639 216 642 c 0,17,18
 132 642 132 642 132 549 c 2,19,-1
 132 494 l 2,20,21
 132 406 132 406 210 406 c 256,12,13
EndSplineSet
EndChar

StartChar: guillemotright
Encoding: 187 187 122
Width: 541
Flags: W
LayerCount: 2
Fore
SplineSet
86 61 m 1,0,-1
 51 138 l 1,1,-1
 177 277 l 1,2,-1
 51 415 l 1,3,-1
 86 492 l 1,4,-1
 274 330 l 1,5,-1
 274 223 l 1,6,-1
 86 61 l 1,0,-1
315 61 m 1,7,-1
 280 138 l 1,8,-1
 406 277 l 1,9,-1
 280 415 l 1,10,-1
 315 492 l 1,11,-1
 503 330 l 1,12,-1
 503 223 l 1,13,-1
 315 61 l 1,7,-1
EndSplineSet
EndChar

StartChar: onequarter
Encoding: 188 188 123
Width: 794
Flags: W
LayerCount: 2
Fore
SplineSet
724 0 m 1,0,-1
 641 0 l 1,1,-1
 641 71 l 1,2,-1
 466 71 l 1,3,-1
 466 143 l 1,4,-1
 620 369 l 1,5,-1
 724 369 l 1,6,-1
 724 136 l 1,7,-1
 774 136 l 1,8,-1
 774 71 l 1,9,-1
 724 71 l 1,10,-1
 724 0 l 1,0,-1
641 136 m 1,11,-1
 641 279 l 1,12,-1
 635 279 l 1,13,-1
 536 136 l 1,14,-1
 641 136 l 1,11,-1
181 0 m 1,15,-1
 86 0 l 1,16,-1
 599 698 l 1,17,-1
 694 698 l 1,18,-1
 181 0 l 1,15,-1
237 329 m 1,19,-1
 151 329 l 1,20,-1
 151 621 l 1,21,-1
 71 582 l 1,22,-1
 71 660 l 1,23,-1
 146 698 l 1,24,-1
 237 698 l 1,25,-1
 237 329 l 1,19,-1
EndSplineSet
EndChar

StartChar: onehalf
Encoding: 189 189 124
Width: 803
Flags: W
LayerCount: 2
Fore
SplineSet
774 0 m 1,0,-1
 492 0 l 1,1,-1
 492 76 l 1,2,-1
 609 168 l 2,3,4
 645 195 645 195 659.5 214.5 c 128,-1,5
 674 234 674 234 674 259 c 0,6,7
 674 294 674 294 637 300 c 2,8,-1
 625 302 l 1,9,-1
 615 301 l 2,10,11
 572 298 572 298 558 252 c 1,12,-1
 483 280 l 1,13,14
 495 320 495 320 532 347.5 c 128,-1,15
 569 375 569 375 630 375 c 0,16,17
 695 375 695 375 731 344.5 c 128,-1,18
 767 314 767 314 767 263 c 0,19,20
 767 239 767 239 758 218 c 0,21,22
 740 178 740 178 701 147 c 0,23,24
 684 134 684 134 586 70 c 1,25,-1
 774 70 l 1,26,-1
 774 0 l 1,0,-1
171 0 m 1,27,-1
 76 0 l 1,28,-1
 589 698 l 1,29,-1
 684 698 l 1,30,-1
 171 0 l 1,27,-1
237 329 m 1,31,-1
 151 329 l 1,32,-1
 151 621 l 1,33,-1
 71 582 l 1,34,-1
 71 660 l 1,35,-1
 146 698 l 1,36,-1
 237 698 l 1,37,-1
 237 329 l 1,31,-1
EndSplineSet
EndChar

StartChar: threequarters
Encoding: 190 190 125
Width: 829
Flags: W
LayerCount: 2
Fore
SplineSet
159 323 m 0,0,1
 50 323 50 323 11 395 c 1,2,-1
 76 443 l 1,3,4
 100 391 100 391 159 391 c 0,5,6
 190 391 190 391 205 404.5 c 128,-1,7
 220 418 220 418 220 439 c 0,8,9
 220 483 220 483 152 483 c 2,10,-1
 116 483 l 1,11,-1
 116 553 l 1,12,-1
 152 553 l 2,13,14
 183 553 183 553 198 564 c 128,-1,15
 213 575 213 575 213 590 c 0,16,17
 213 608 213 608 200.5 622 c 128,-1,18
 188 636 188 636 160 636 c 0,19,20
 110 636 110 636 78 592 c 1,21,-1
 24 642 l 1,22,23
 67 704 67 704 163 704 c 0,24,25
 225 704 225 704 265 678 c 128,-1,26
 305 652 305 652 305 605 c 0,27,28
 305 566 305 566 282.5 546.5 c 128,-1,29
 260 527 260 527 228 523 c 1,30,-1
 228 519 l 1,31,32
 311 507 311 507 311 432 c 0,33,34
 311 379 311 379 267.5 351 c 128,-1,35
 224 323 224 323 159 323 c 0,0,1
216 0 m 1,36,-1
 121 0 l 1,37,-1
 634 698 l 1,38,-1
 729 698 l 1,39,-1
 216 0 l 1,36,-1
759 0 m 1,40,-1
 676 0 l 1,41,-1
 676 71 l 1,42,-1
 501 71 l 1,43,-1
 501 143 l 1,44,-1
 655 369 l 1,45,-1
 759 369 l 1,46,-1
 759 136 l 1,47,-1
 809 136 l 1,48,-1
 809 71 l 1,49,-1
 759 71 l 1,50,-1
 759 0 l 1,40,-1
676 136 m 1,51,-1
 676 279 l 1,52,-1
 670 279 l 1,53,-1
 571 136 l 1,54,-1
 676 136 l 1,51,-1
EndSplineSet
EndChar

StartChar: questiondown
Encoding: 191 191 126
Width: 484
Flags: W
LayerCount: 2
Fore
SplineSet
252 -188 m 0,0,1
 152 -188 152 -188 91.5 -133 c 128,-1,2
 31 -78 31 -78 31 11 c 0,3,4
 31 69 31 69 56.5 111.5 c 128,-1,5
 82 154 82 154 122 179.5 c 128,-1,6
 162 205 162 205 209 213 c 1,7,-1
 209 298 l 1,8,-1
 325 298 l 1,9,-1
 325 141 l 1,10,11
 161 135 161 135 161 22 c 0,12,13
 161 -6 161 -6 165.5 -24.5 c 128,-1,14
 170 -43 170 -43 186 -58 c 0,15,16
 211 -82 211 -82 256 -82 c 0,17,18
 305 -82 305 -82 332.5 -54.5 c 128,-1,19
 360 -27 360 -27 370 15 c 1,20,-1
 474 -28 l 1,21,22
 454 -100 454 -100 397 -144 c 128,-1,23
 340 -188 340 -188 252 -188 c 0,0,1
266 376 m 256,24,25
 188 376 188 376 188 445 c 2,26,-1
 188 464 l 2,27,28
 188 534 188 534 266 534 c 0,29,30
 308 534 308 534 326 513.5 c 128,-1,31
 344 493 344 493 344 464 c 2,32,-1
 344 445 l 2,33,34
 344 376 344 376 266 376 c 256,24,25
EndSplineSet
EndChar

StartChar: Agrave
Encoding: 192 192 127
Width: 670
Flags: W
LayerCount: 2
Fore
SplineSet
648 0 m 1,0,-1
 517 0 l 1,1,-1
 458 181 l 1,2,-1
 207 181 l 1,3,-1
 149 0 l 1,4,-1
 21 0 l 1,5,-1
 257 698 l 1,6,-1
 414 698 l 1,7,-1
 648 0 l 1,0,-1
427 289 m 1,8,-1
 335 583 l 1,9,-1
 330 583 l 1,10,-1
 237 289 l 1,11,-1
 427 289 l 1,8,-1
320 746 m 1,12,-1
 197 915 l 1,13,-1
 301 966 l 1,14,-1
 395 782 l 1,15,-1
 320 746 l 1,12,-1
EndSplineSet
EndChar

StartChar: Aacute
Encoding: 193 193 128
Width: 670
Flags: W
LayerCount: 2
Fore
SplineSet
648 0 m 1,0,-1
 517 0 l 1,1,-1
 458 181 l 1,2,-1
 207 181 l 1,3,-1
 149 0 l 1,4,-1
 21 0 l 1,5,-1
 257 698 l 1,6,-1
 414 698 l 1,7,-1
 648 0 l 1,0,-1
427 289 m 1,8,-1
 335 583 l 1,9,-1
 330 583 l 1,10,-1
 237 289 l 1,11,-1
 427 289 l 1,8,-1
346 746 m 1,12,-1
 271 782 l 1,13,-1
 365 966 l 1,14,-1
 469 915 l 1,15,-1
 346 746 l 1,12,-1
EndSplineSet
EndChar

StartChar: Acircumflex
Encoding: 194 194 129
Width: 670
Flags: W
LayerCount: 2
Fore
SplineSet
648 0 m 1,0,-1
 517 0 l 1,1,-1
 458 181 l 1,2,-1
 207 181 l 1,3,-1
 149 0 l 1,4,-1
 21 0 l 1,5,-1
 257 698 l 1,6,-1
 414 698 l 1,7,-1
 648 0 l 1,0,-1
427 289 m 1,8,-1
 335 583 l 1,9,-1
 330 583 l 1,10,-1
 237 289 l 1,11,-1
 427 289 l 1,8,-1
453 748 m 1,12,-1
 333 863 l 1,13,-1
 213 748 l 1,14,-1
 152 795 l 1,15,-1
 276 948 l 1,16,-1
 390 948 l 1,17,-1
 514 795 l 1,18,-1
 453 748 l 1,12,-1
EndSplineSet
EndChar

StartChar: Atilde
Encoding: 195 195 130
Width: 670
Flags: W
LayerCount: 2
Fore
SplineSet
648 0 m 1,0,-1
 517 0 l 1,1,-1
 458 181 l 1,2,-1
 207 181 l 1,3,-1
 149 0 l 1,4,-1
 21 0 l 1,5,-1
 257 698 l 1,6,-1
 414 698 l 1,7,-1
 648 0 l 1,0,-1
427 289 m 1,8,-1
 335 583 l 1,9,-1
 330 583 l 1,10,-1
 237 289 l 1,11,-1
 427 289 l 1,8,-1
408 769 m 0,12,13
 383 769 383 769 365.5 775.5 c 128,-1,14
 348 782 348 782 330 791 c 0,15,16
 284 815 284 815 255 815 c 0,17,18
 236 815 236 815 223 807.5 c 128,-1,19
 210 800 210 800 196 789 c 1,20,-1
 152 846 l 1,21,22
 189 906 189 906 258 906 c 0,23,24
 279 906 279 906 295.5 900.5 c 128,-1,25
 312 895 312 895 324.5 889 c 128,-1,26
 337 883 337 883 348 879 c 0,27,28
 382 861 382 861 411 861 c 0,29,30
 428 861 428 861 441 867 c 128,-1,31
 454 873 454 873 470 887 c 1,32,-1
 514 829 l 1,33,34
 476 769 476 769 408 769 c 0,12,13
EndSplineSet
EndChar

StartChar: Adieresis
Encoding: 196 196 131
Width: 670
Flags: W
LayerCount: 2
Fore
SplineSet
648 0 m 1,0,-1
 517 0 l 1,1,-1
 458 181 l 1,2,-1
 207 181 l 1,3,-1
 149 0 l 1,4,-1
 21 0 l 1,5,-1
 257 698 l 1,6,-1
 414 698 l 1,7,-1
 648 0 l 1,0,-1
427 289 m 1,8,-1
 335 583 l 1,9,-1
 330 583 l 1,10,-1
 237 289 l 1,11,-1
 427 289 l 1,8,-1
230 771 m 0,12,13
 161 771 161 771 161 828 c 2,14,-1
 161 848 l 2,15,16
 161 905 161 905 230 905 c 0,17,18
 298 905 298 905 298 848 c 2,19,-1
 298 828 l 2,20,21
 298 774 298 774 230 771 c 0,12,13
436 771 m 0,22,23
 368 771 368 771 368 828 c 2,24,-1
 368 848 l 2,25,26
 368 905 368 905 436 905 c 0,27,28
 472 905 472 905 488.5 889 c 128,-1,29
 505 873 505 873 505 848 c 2,30,-1
 505 828 l 2,31,32
 505 774 505 774 436 771 c 0,22,23
EndSplineSet
EndChar

StartChar: Aring
Encoding: 197 197 132
Width: 670
Flags: W
LayerCount: 2
Fore
SplineSet
648 0 m 1,0,-1
 517 0 l 1,1,-1
 458 181 l 1,2,-1
 207 181 l 1,3,-1
 149 0 l 1,4,-1
 21 0 l 1,5,-1
 257 698 l 1,6,-1
 414 698 l 1,7,-1
 648 0 l 1,0,-1
427 289 m 1,8,-1
 335 583 l 1,9,-1
 330 583 l 1,10,-1
 237 289 l 1,11,-1
 427 289 l 1,8,-1
333 729 m 0,12,13
 275 729 275 729 236 767 c 128,-1,14
 197 805 197 805 197 861 c 0,15,16
 197 918 197 918 237 956 c 128,-1,17
 277 994 277 994 333 994 c 0,18,19
 391 994 391 994 430 956 c 128,-1,20
 469 918 469 918 469 861 c 0,21,22
 469 803 469 803 429 766 c 128,-1,23
 389 729 389 729 333 729 c 0,12,13
333 795 m 0,24,25
 387 797 387 797 387 847 c 2,26,-1
 387 876 l 2,27,28
 384 929 384 929 333 929 c 0,29,30
 305 929 305 929 292 913.5 c 128,-1,31
 279 898 279 898 279 876 c 2,32,-1
 279 847 l 2,33,34
 282 795 282 795 333 795 c 0,24,25
EndSplineSet
EndChar

StartChar: AE
Encoding: 198 198 133
Width: 945
Flags: W
LayerCount: 2
Fore
SplineSet
886 0 m 1,0,-1
 430 0 l 1,1,-1
 430 181 l 1,2,-1
 215 181 l 1,3,-1
 128 0 l 1,4,-1
 1 0 l 1,5,-1
 348 698 l 1,6,-1
 886 698 l 1,7,-1
 886 586 l 1,8,-1
 556 586 l 1,9,-1
 556 409 l 1,10,-1
 850 409 l 1,11,-1
 850 298 l 1,12,-1
 556 298 l 1,13,-1
 556 112 l 1,14,-1
 886 112 l 1,15,-1
 886 0 l 1,0,-1
430 289 m 1,16,-1
 430 586 l 1,17,-1
 411 586 l 1,18,-1
 266 289 l 1,19,-1
 430 289 l 1,16,-1
EndSplineSet
EndChar

StartChar: Ccedilla
Encoding: 199 199 134
Width: 640
Flags: W
LayerCount: 2
Fore
SplineSet
349 -210 m 0,0,1
 267 -210 267 -210 234 -167 c 1,2,-1
 277 -117 l 1,3,4
 300 -146 300 -146 341 -146 c 0,5,6
 359 -146 359 -146 372 -139 c 128,-1,7
 385 -132 385 -132 385 -118 c 0,8,9
 385 -102 385 -102 363.5 -91 c 128,-1,10
 342 -80 342 -80 289 -75 c 1,11,-1
 303 -8 l 1,12,13
 187 6 187 6 120 92 c 128,-1,14
 53 178 53 178 53 347 c 0,15,16
 53 527 53 527 135.5 618.5 c 128,-1,17
 218 710 218 710 352 710 c 0,18,19
 532 710 532 710 605 550 c 1,20,-1
 498 493 l 1,21,22
 463 598 463 598 352 598 c 0,23,24
 270 598 270 598 228.5 544 c 128,-1,25
 187 490 187 490 187 403 c 2,26,-1
 187 295 l 2,27,28
 187 200 187 200 231 150 c 128,-1,29
 275 100 275 100 352 100 c 0,30,31
 465 100 465 100 505 212 c 1,32,-1
 607 152 l 1,33,34
 536 -4 536 -4 363 -12 c 1,35,-1
 354 -57 l 1,36,-1
 357 -61 l 1,37,38
 378 -54 378 -54 402 -54 c 0,39,40
 430 -54 430 -54 451.5 -70 c 128,-1,41
 473 -86 473 -86 473 -122 c 0,42,43
 473 -167 473 -167 436 -188.5 c 128,-1,44
 399 -210 399 -210 349 -210 c 0,0,1
EndSplineSet
EndChar

StartChar: Egrave
Encoding: 200 200 135
Width: 598
Flags: W
LayerCount: 2
Fore
SplineSet
539 0 m 1,0,-1
 83 0 l 1,1,-1
 83 698 l 1,2,-1
 539 698 l 1,3,-1
 539 586 l 1,4,-1
 209 586 l 1,5,-1
 209 409 l 1,6,-1
 503 409 l 1,7,-1
 503 298 l 1,8,-1
 209 298 l 1,9,-1
 209 112 l 1,10,-1
 539 112 l 1,11,-1
 539 0 l 1,0,-1
298 746 m 1,12,-1
 175 915 l 1,13,-1
 279 966 l 1,14,-1
 373 782 l 1,15,-1
 298 746 l 1,12,-1
EndSplineSet
EndChar

StartChar: Eacute
Encoding: 201 201 136
Width: 598
Flags: W
LayerCount: 2
Fore
SplineSet
539 0 m 1,0,-1
 83 0 l 1,1,-1
 83 698 l 1,2,-1
 539 698 l 1,3,-1
 539 586 l 1,4,-1
 209 586 l 1,5,-1
 209 409 l 1,6,-1
 503 409 l 1,7,-1
 503 298 l 1,8,-1
 209 298 l 1,9,-1
 209 112 l 1,10,-1
 539 112 l 1,11,-1
 539 0 l 1,0,-1
324 746 m 1,12,-1
 249 782 l 1,13,-1
 343 966 l 1,14,-1
 447 915 l 1,15,-1
 324 746 l 1,12,-1
EndSplineSet
EndChar

StartChar: Ecircumflex
Encoding: 202 202 137
Width: 598
Flags: W
LayerCount: 2
Fore
SplineSet
539 0 m 1,0,-1
 83 0 l 1,1,-1
 83 698 l 1,2,-1
 539 698 l 1,3,-1
 539 586 l 1,4,-1
 209 586 l 1,5,-1
 209 409 l 1,6,-1
 503 409 l 1,7,-1
 503 298 l 1,8,-1
 209 298 l 1,9,-1
 209 112 l 1,10,-1
 539 112 l 1,11,-1
 539 0 l 1,0,-1
431 748 m 1,12,-1
 311 863 l 1,13,-1
 191 748 l 1,14,-1
 130 795 l 1,15,-1
 254 948 l 1,16,-1
 368 948 l 1,17,-1
 492 795 l 1,18,-1
 431 748 l 1,12,-1
EndSplineSet
EndChar

StartChar: Edieresis
Encoding: 203 203 138
Width: 598
Flags: W
LayerCount: 2
Fore
SplineSet
539 0 m 1,0,-1
 83 0 l 1,1,-1
 83 698 l 1,2,-1
 539 698 l 1,3,-1
 539 586 l 1,4,-1
 209 586 l 1,5,-1
 209 409 l 1,6,-1
 503 409 l 1,7,-1
 503 298 l 1,8,-1
 209 298 l 1,9,-1
 209 112 l 1,10,-1
 539 112 l 1,11,-1
 539 0 l 1,0,-1
208 771 m 0,12,13
 139 771 139 771 139 828 c 2,14,-1
 139 848 l 2,15,16
 139 905 139 905 208 905 c 0,17,18
 276 905 276 905 276 848 c 2,19,-1
 276 828 l 2,20,21
 276 774 276 774 208 771 c 0,12,13
414 771 m 0,22,23
 346 771 346 771 346 828 c 2,24,-1
 346 848 l 2,25,26
 346 905 346 905 414 905 c 0,27,28
 450 905 450 905 466.5 889 c 128,-1,29
 483 873 483 873 483 848 c 2,30,-1
 483 828 l 2,31,32
 483 774 483 774 414 771 c 0,22,23
EndSplineSet
EndChar

StartChar: Eth
Encoding: 208 208 143
Width: 692
Flags: W
LayerCount: 2
Fore
SplineSet
340 0 m 2,0,-1
 87 0 l 1,1,-1
 87 312 l 1,2,-1
 11 312 l 1,3,-1
 11 408 l 1,4,-1
 87 408 l 1,5,-1
 87 698 l 1,6,-1
 340 698 l 2,7,8
 482 698 482 698 560.5 606.5 c 128,-1,9
 639 515 639 515 639 349 c 0,10,11
 639 230 639 230 600 152.5 c 128,-1,12
 561 75 561 75 493 37.5 c 128,-1,13
 425 0 425 0 340 0 c 2,0,-1
340 112 m 2,14,15
 411 112 411 112 457.5 155 c 128,-1,16
 504 198 504 198 504 294 c 2,17,-1
 504 404 l 2,18,19
 504 498 504 498 458.5 542 c 128,-1,20
 413 586 413 586 340 586 c 2,21,-1
 213 586 l 1,22,-1
 213 408 l 1,23,-1
 340 408 l 1,24,-1
 340 312 l 1,25,-1
 213 312 l 1,26,-1
 213 112 l 1,27,-1
 340 112 l 2,14,15
EndSplineSet
EndChar

StartChar: Ntilde
Encoding: 209 209 144
Width: 717
Flags: W
LayerCount: 2
Fore
SplineSet
634 0 m 1,0,-1
 495 0 l 1,1,-1
 310 316 l 1,2,-1
 272 384 l 2,3,4
 258 409 258 409 243 440 c 2,5,-1
 206 513 l 1,6,-1
 203 513 l 1,7,-1
 203 0 l 1,8,-1
 83 0 l 1,9,-1
 83 698 l 1,10,-1
 222 698 l 1,11,-1
 407 382 l 1,12,-1
 448 309 l 1,13,-1
 512 185 l 1,14,-1
 515 185 l 1,15,-1
 515 698 l 1,16,-1
 634 698 l 1,17,-1
 634 0 l 1,0,-1
433 769 m 0,18,19
 409 769 409 769 393.5 774.5 c 128,-1,20
 378 780 378 780 362 789 c 2,21,-1
 346 796 l 2,22,23
 308 815 308 815 280 815 c 0,24,25
 262 815 262 815 249 808 c 128,-1,26
 236 801 236 801 222 789 c 1,27,-1
 177 846 l 1,28,29
 214 906 214 906 284 906 c 0,30,31
 304 906 304 906 319.5 901 c 128,-1,32
 335 896 335 896 348 889.5 c 128,-1,33
 361 883 361 883 374 879 c 0,34,35
 408 861 408 861 437 861 c 0,36,37
 453 861 453 861 466 867 c 128,-1,38
 479 873 479 873 495 887 c 1,39,-1
 540 829 l 1,40,41
 502 769 502 769 433 769 c 0,18,19
EndSplineSet
EndChar

StartChar: Ograve
Encoding: 210 210 145
Width: 713
Flags: W
LayerCount: 2
Fore
SplineSet
356 -12 m 0,0,1
 215 -12 215 -12 134 83 c 128,-1,2
 53 178 53 178 53 349 c 0,3,4
 53 518 53 518 133.5 614 c 128,-1,5
 214 710 214 710 356 710 c 0,6,7
 500 710 500 710 579.5 613.5 c 128,-1,8
 659 517 659 517 659 349 c 0,9,10
 659 176 659 176 576.5 82 c 128,-1,11
 494 -12 494 -12 356 -12 c 0,0,1
356 100 m 0,12,13
 430 100 430 100 477.5 149.5 c 128,-1,14
 525 199 525 199 525 304 c 2,15,-1
 525 403 l 2,16,17
 525 500 525 500 477.5 549 c 128,-1,18
 430 598 430 598 356 598 c 0,19,20
 272 598 272 598 230 542 c 128,-1,21
 188 486 188 486 188 394 c 2,22,-1
 188 295 l 2,23,24
 188 198 188 198 235.5 149 c 128,-1,25
 283 100 283 100 356 100 c 0,12,13
344 746 m 1,26,-1
 220 915 l 1,27,-1
 325 966 l 1,28,-1
 418 782 l 1,29,-1
 344 746 l 1,26,-1
EndSplineSet
EndChar

StartChar: Oacute
Encoding: 211 211 146
Width: 713
Flags: W
LayerCount: 2
Fore
SplineSet
356 -12 m 0,0,1
 215 -12 215 -12 134 83 c 128,-1,2
 53 178 53 178 53 349 c 0,3,4
 53 518 53 518 133.5 614 c 128,-1,5
 214 710 214 710 356 710 c 0,6,7
 500 710 500 710 579.5 613.5 c 128,-1,8
 659 517 659 517 659 349 c 0,9,10
 659 176 659 176 576.5 82 c 128,-1,11
 494 -12 494 -12 356 -12 c 0,0,1
356 100 m 0,12,13
 430 100 430 100 477.5 149.5 c 128,-1,14
 525 199 525 199 525 304 c 2,15,-1
 525 403 l 2,16,17
 525 500 525 500 477.5 549 c 128,-1,18
 430 598 430 598 356 598 c 0,19,20
 272 598 272 598 230 542 c 128,-1,21
 188 486 188 486 188 394 c 2,22,-1
 188 295 l 2,23,24
 188 198 188 198 235.5 149 c 128,-1,25
 283 100 283 100 356 100 c 0,12,13
369 746 m 1,26,-1
 294 782 l 1,27,-1
 388 966 l 1,28,-1
 492 915 l 1,29,-1
 369 746 l 1,26,-1
EndSplineSet
EndChar

StartChar: Ocircumflex
Encoding: 212 212 147
Width: 713
Flags: W
LayerCount: 2
Fore
SplineSet
356 -12 m 0,0,1
 215 -12 215 -12 134 83 c 128,-1,2
 53 178 53 178 53 349 c 0,3,4
 53 518 53 518 133.5 614 c 128,-1,5
 214 710 214 710 356 710 c 0,6,7
 500 710 500 710 579.5 613.5 c 128,-1,8
 659 517 659 517 659 349 c 0,9,10
 659 176 659 176 576.5 82 c 128,-1,11
 494 -12 494 -12 356 -12 c 0,0,1
356 100 m 0,12,13
 430 100 430 100 477.5 149.5 c 128,-1,14
 525 199 525 199 525 304 c 2,15,-1
 525 403 l 2,16,17
 525 500 525 500 477.5 549 c 128,-1,18
 430 598 430 598 356 598 c 0,19,20
 272 598 272 598 230 542 c 128,-1,21
 188 486 188 486 188 394 c 2,22,-1
 188 295 l 2,23,24
 188 198 188 198 235.5 149 c 128,-1,25
 283 100 283 100 356 100 c 0,12,13
476 748 m 1,26,-1
 356 863 l 1,27,-1
 237 748 l 1,28,-1
 175 795 l 1,29,-1
 299 948 l 1,30,-1
 414 948 l 1,31,-1
 538 795 l 1,32,-1
 476 748 l 1,26,-1
EndSplineSet
EndChar

StartChar: Otilde
Encoding: 213 213 148
Width: 713
Flags: W
LayerCount: 2
Fore
SplineSet
356 -12 m 0,0,1
 215 -12 215 -12 134 83 c 128,-1,2
 53 178 53 178 53 349 c 0,3,4
 53 518 53 518 133.5 614 c 128,-1,5
 214 710 214 710 356 710 c 0,6,7
 500 710 500 710 579.5 613.5 c 128,-1,8
 659 517 659 517 659 349 c 0,9,10
 659 176 659 176 576.5 82 c 128,-1,11
 494 -12 494 -12 356 -12 c 0,0,1
356 100 m 0,12,13
 430 100 430 100 477.5 149.5 c 128,-1,14
 525 199 525 199 525 304 c 2,15,-1
 525 403 l 2,16,17
 525 500 525 500 477.5 549 c 128,-1,18
 430 598 430 598 356 598 c 0,19,20
 272 598 272 598 230 542 c 128,-1,21
 188 486 188 486 188 394 c 2,22,-1
 188 295 l 2,23,24
 188 198 188 198 235.5 149 c 128,-1,25
 283 100 283 100 356 100 c 0,12,13
431 769 m 0,26,27
 407 769 407 769 391.5 774.5 c 128,-1,28
 376 780 376 780 360 789 c 2,29,-1
 344 796 l 2,30,31
 306 815 306 815 278 815 c 0,32,33
 260 815 260 815 247 808 c 128,-1,34
 234 801 234 801 220 789 c 1,35,-1
 175 846 l 1,36,37
 212 906 212 906 282 906 c 0,38,39
 302 906 302 906 317.5 901 c 128,-1,40
 333 896 333 896 346 889.5 c 128,-1,41
 359 883 359 883 372 879 c 0,42,43
 406 861 406 861 435 861 c 0,44,45
 451 861 451 861 464 867 c 128,-1,46
 477 873 477 873 493 887 c 1,47,-1
 538 829 l 1,48,49
 500 769 500 769 431 769 c 0,26,27
EndSplineSet
EndChar

StartChar: Odieresis
Encoding: 214 214 149
Width: 713
Flags: W
LayerCount: 2
Fore
SplineSet
356 -12 m 0,0,1
 215 -12 215 -12 134 83 c 128,-1,2
 53 178 53 178 53 349 c 0,3,4
 53 518 53 518 133.5 614 c 128,-1,5
 214 710 214 710 356 710 c 0,6,7
 500 710 500 710 579.5 613.5 c 128,-1,8
 659 517 659 517 659 349 c 0,9,10
 659 176 659 176 576.5 82 c 128,-1,11
 494 -12 494 -12 356 -12 c 0,0,1
356 100 m 0,12,13
 430 100 430 100 477.5 149.5 c 128,-1,14
 525 199 525 199 525 304 c 2,15,-1
 525 403 l 2,16,17
 525 500 525 500 477.5 549 c 128,-1,18
 430 598 430 598 356 598 c 0,19,20
 272 598 272 598 230 542 c 128,-1,21
 188 486 188 486 188 394 c 2,22,-1
 188 295 l 2,23,24
 188 198 188 198 235.5 149 c 128,-1,25
 283 100 283 100 356 100 c 0,12,13
253 771 m 0,26,27
 184 771 184 771 184 826 c 2,28,-1
 184 848 l 2,29,30
 184 905 184 905 253 905 c 0,31,32
 289 905 289 905 305.5 889 c 128,-1,33
 322 873 322 873 322 848 c 2,34,-1
 322 828 l 2,35,36
 322 774 322 774 253 771 c 0,26,27
460 771 m 0,37,38
 391 771 391 771 391 828 c 2,39,-1
 391 848 l 2,40,41
 391 905 391 905 460 905 c 0,42,43
 528 905 528 905 528 848 c 2,44,-1
 528 828 l 2,45,46
 528 774 528 774 460 771 c 0,37,38
EndSplineSet
EndChar

StartChar: multiply
Encoding: 215 215 150
Width: 600
Flags: W
LayerCount: 2
Fore
SplineSet
446 79 m 1,0,-1
 300 231 l 1,1,-1
 154 79 l 1,2,-1
 84 148 l 1,3,-1
 231 301 l 1,4,-1
 84 454 l 1,5,-1
 154 523 l 1,6,-1
 300 371 l 1,7,-1
 446 523 l 1,8,-1
 516 454 l 1,9,-1
 369 301 l 1,10,-1
 516 148 l 1,11,-1
 446 79 l 1,0,-1
EndSplineSet
EndChar

StartChar: Oslash
Encoding: 216 216 151
Width: 713
Flags: W
LayerCount: 2
Fore
SplineSet
142 -52 m 1,0,-1
 63 -1 l 1,1,-1
 127 92 l 1,2,3
 53 181 53 181 53 349 c 0,4,5
 53 521 53 521 134 615.5 c 128,-1,6
 215 710 215 710 356 710 c 0,7,8
 447 710 447 710 515 669 c 1,9,-1
 571 750 l 1,10,-1
 649 699 l 1,11,-1
 586 606 l 1,12,13
 659 518 659 518 659 349 c 0,14,15
 659 175 659 175 576.5 81.5 c 128,-1,16
 494 -12 494 -12 356 -12 c 0,17,18
 264 -12 264 -12 198 29 c 1,19,-1
 142 -52 l 1,0,-1
203 191 m 1,20,-1
 456 575 l 1,21,22
 413 605 413 605 356 605 c 0,23,24
 279 603 279 603 231 554 c 128,-1,25
 183 505 183 505 183 405 c 2,26,-1
 183 293 l 2,27,28
 183 234 183 234 203 191 c 1,20,-1
356 93 m 0,29,30
 434 95 434 95 481.5 145 c 128,-1,31
 529 195 529 195 529 293 c 2,32,-1
 529 405 l 2,33,34
 529 465 529 465 510 507 c 1,35,-1
 257 123 l 1,36,37
 297 93 297 93 356 93 c 0,29,30
EndSplineSet
EndChar

StartChar: Ugrave
Encoding: 217 217 152
Width: 689
Flags: W
LayerCount: 2
Fore
SplineSet
344 -12 m 0,0,1
 202 -12 202 -12 140.5 58.5 c 128,-1,2
 79 129 79 129 79 286 c 2,3,-1
 79 698 l 1,4,-1
 202 698 l 1,5,-1
 202 269 l 2,6,7
 202 180 202 180 235.5 140 c 128,-1,8
 269 100 269 100 344 100 c 0,9,10
 418 100 418 100 452 140 c 128,-1,11
 486 180 486 180 486 269 c 2,12,-1
 486 698 l 1,13,-1
 610 698 l 1,14,-1
 610 286 l 2,15,16
 610 129 610 129 549 58.5 c 128,-1,17
 488 -12 488 -12 344 -12 c 0,0,1
332 746 m 1,18,-1
 208 915 l 1,19,-1
 313 966 l 1,20,-1
 406 782 l 1,21,-1
 332 746 l 1,18,-1
EndSplineSet
EndChar

StartChar: Uacute
Encoding: 218 218 153
Width: 689
Flags: W
LayerCount: 2
Fore
SplineSet
344 -12 m 0,0,1
 202 -12 202 -12 140.5 58.5 c 128,-1,2
 79 129 79 129 79 286 c 2,3,-1
 79 698 l 1,4,-1
 202 698 l 1,5,-1
 202 269 l 2,6,7
 202 180 202 180 235.5 140 c 128,-1,8
 269 100 269 100 344 100 c 0,9,10
 418 100 418 100 452 140 c 128,-1,11
 486 180 486 180 486 269 c 2,12,-1
 486 698 l 1,13,-1
 610 698 l 1,14,-1
 610 286 l 2,15,16
 610 129 610 129 549 58.5 c 128,-1,17
 488 -12 488 -12 344 -12 c 0,0,1
357 746 m 1,18,-1
 282 782 l 1,19,-1
 376 966 l 1,20,-1
 480 915 l 1,21,-1
 357 746 l 1,18,-1
EndSplineSet
EndChar

StartChar: Ucircumflex
Encoding: 219 219 154
Width: 689
Flags: W
LayerCount: 2
Fore
SplineSet
344 -12 m 0,0,1
 202 -12 202 -12 140.5 58.5 c 128,-1,2
 79 129 79 129 79 286 c 2,3,-1
 79 698 l 1,4,-1
 202 698 l 1,5,-1
 202 269 l 2,6,7
 202 180 202 180 235.5 140 c 128,-1,8
 269 100 269 100 344 100 c 0,9,10
 418 100 418 100 452 140 c 128,-1,11
 486 180 486 180 486 269 c 2,12,-1
 486 698 l 1,13,-1
 610 698 l 1,14,-1
 610 286 l 2,15,16
 610 129 610 129 549 58.5 c 128,-1,17
 488 -12 488 -12 344 -12 c 0,0,1
464 748 m 1,18,-1
 344 863 l 1,19,-1
 225 748 l 1,20,-1
 163 795 l 1,21,-1
 287 948 l 1,22,-1
 402 948 l 1,23,-1
 526 795 l 1,24,-1
 464 748 l 1,18,-1
EndSplineSet
EndChar

StartChar: Udieresis
Encoding: 220 220 155
Width: 689
Flags: W
LayerCount: 2
Fore
SplineSet
344 -12 m 0,0,1
 202 -12 202 -12 140.5 58.5 c 128,-1,2
 79 129 79 129 79 286 c 2,3,-1
 79 698 l 1,4,-1
 202 698 l 1,5,-1
 202 269 l 2,6,7
 202 180 202 180 235.5 140 c 128,-1,8
 269 100 269 100 344 100 c 0,9,10
 418 100 418 100 452 140 c 128,-1,11
 486 180 486 180 486 269 c 2,12,-1
 486 698 l 1,13,-1
 610 698 l 1,14,-1
 610 286 l 2,15,16
 610 129 610 129 549 58.5 c 128,-1,17
 488 -12 488 -12 344 -12 c 0,0,1
241 771 m 0,18,19
 172 771 172 771 172 826 c 2,20,-1
 172 848 l 2,21,22
 172 905 172 905 241 905 c 0,23,24
 277 905 277 905 293.5 889 c 128,-1,25
 310 873 310 873 310 848 c 2,26,-1
 310 828 l 2,27,28
 310 774 310 774 241 771 c 0,18,19
448 771 m 0,29,30
 379 771 379 771 379 828 c 2,31,-1
 379 848 l 2,32,33
 379 905 379 905 448 905 c 0,34,35
 516 905 516 905 516 848 c 2,36,-1
 516 828 l 2,37,38
 516 774 516 774 448 771 c 0,29,30
EndSplineSet
EndChar

StartChar: Yacute
Encoding: 221 221 156
Width: 628
Flags: W
LayerCount: 2
Fore
SplineSet
376 0 m 1,0,-1
 250 0 l 1,1,-1
 250 274 l 1,2,-1
 10 698 l 1,3,-1
 153 698 l 1,4,-1
 316 398 l 1,5,-1
 319 398 l 1,6,-1
 480 698 l 1,7,-1
 617 698 l 1,8,-1
 376 276 l 1,9,-1
 376 0 l 1,0,-1
327 746 m 1,10,-1
 252 782 l 1,11,-1
 346 966 l 1,12,-1
 450 915 l 1,13,-1
 327 746 l 1,10,-1
EndSplineSet
EndChar

StartChar: Thorn
Encoding: 222 222 157
Width: 637
Flags: W
LayerCount: 2
Fore
SplineSet
209 0 m 1,0,-1
 83 0 l 1,1,-1
 83 698 l 1,2,-1
 209 698 l 1,3,-1
 209 569 l 1,4,-1
 393 569 l 2,5,6
 461 569 461 569 507 540 c 128,-1,7
 553 511 553 511 576 462.5 c 128,-1,8
 599 414 599 414 599 354 c 0,9,10
 599 251 599 251 540.5 195.5 c 128,-1,11
 482 140 482 140 393 140 c 2,12,-1
 209 140 l 1,13,-1
 209 0 l 1,0,-1
382 250 m 2,14,15
 467 252 467 252 467 331 c 2,16,-1
 467 378 l 2,17,18
 467 418 467 418 443.5 438.5 c 128,-1,19
 420 459 420 459 382 459 c 2,20,-1
 209 459 l 1,21,-1
 209 250 l 1,22,-1
 382 250 l 2,14,15
EndSplineSet
EndChar

StartChar: germandbls
Encoding: 223 223 158
Width: 672
Flags: W
LayerCount: 2
Fore
SplineSet
458 -12 m 0,0,1
 334 -12 334 -12 275 66 c 1,2,-1
 347 138 l 1,3,4
 393 82 393 82 458 82 c 0,5,6
 533 82 533 82 533 149 c 0,7,8
 533 201 533 201 476 216 c 1,9,-1
 471 218 l 1,10,11
 423 232 423 232 386.5 248.5 c 128,-1,12
 350 265 350 265 329.5 294 c 128,-1,13
 309 323 309 323 309 375 c 0,14,15
 309 501 309 501 464 526 c 1,16,17
 464 658 464 658 348 658 c 0,18,19
 281 658 281 658 252.5 625 c 128,-1,20
 224 592 224 592 224 520 c 2,21,-1
 224 0 l 1,22,-1
 102 0 l 1,23,-1
 102 424 l 1,24,-1
 24 424 l 1,25,-1
 24 522 l 1,26,-1
 102 522 l 1,27,28
 102 628 102 628 165.5 690 c 128,-1,29
 229 752 229 752 342 752 c 0,30,31
 453 752 453 752 515.5 689.5 c 128,-1,32
 578 627 578 627 578 527 c 2,33,-1
 578 444 l 1,34,-1
 526 444 l 2,35,36
 470 444 470 444 446.5 430 c 128,-1,37
 423 416 423 416 423 384 c 0,38,39
 423 350 423 350 444 337 c 128,-1,40
 465 324 465 324 522 310 c 0,41,42
 646 280 646 280 646 164 c 0,43,44
 646 81 646 81 593 34.5 c 128,-1,45
 540 -12 540 -12 458 -12 c 0,0,1
EndSplineSet
EndChar

StartChar: agrave
Encoding: 224 224 159
Width: 543
Flags: W
LayerCount: 2
Fore
SplineSet
250 581 m 1,0,-1
 127 751 l 1,1,-1
 231 802 l 1,2,-1
 325 617 l 1,3,-1
 250 581 l 1,0,-1
204 -12 m 0,4,5
 122 -12 122 -12 80 30.5 c 128,-1,6
 38 73 38 73 38 142 c 0,7,8
 38 301 38 301 261 301 c 2,9,-1
 351 301 l 1,10,-1
 351 341 l 2,11,12
 351 436 351 436 251 436 c 0,13,14
 204 436 204 436 176.5 416.5 c 128,-1,15
 149 397 149 397 131 368 c 1,16,-1
 58 433 l 1,17,18
 117 534 117 534 259 534 c 0,19,20
 368 534 368 534 420.5 485.5 c 128,-1,21
 473 437 473 437 473 348 c 2,22,-1
 473 0 l 1,23,-1
 362 0 l 1,24,-1
 362 89 l 1,25,-1
 357 89 l 1,26,27
 341 36 341 36 299.5 12 c 128,-1,28
 258 -12 258 -12 204 -12 c 0,4,5
243 78 m 0,29,30
 287 78 287 78 319 96.5 c 128,-1,31
 351 115 351 115 351 156 c 2,32,-1
 351 226 l 1,33,-1
 271 226 l 2,34,35
 162 226 162 226 162 163 c 2,36,-1
 162 143 l 2,37,38
 162 78 162 78 243 78 c 0,29,30
EndSplineSet
EndChar

StartChar: aacute
Encoding: 225 225 160
Width: 543
Flags: W
LayerCount: 2
Fore
SplineSet
276 581 m 1,0,-1
 201 617 l 1,1,-1
 295 802 l 1,2,-1
 399 751 l 1,3,-1
 276 581 l 1,0,-1
204 -12 m 0,4,5
 122 -12 122 -12 80 30.5 c 128,-1,6
 38 73 38 73 38 142 c 0,7,8
 38 301 38 301 261 301 c 2,9,-1
 351 301 l 1,10,-1
 351 341 l 2,11,12
 351 436 351 436 251 436 c 0,13,14
 204 436 204 436 176.5 416.5 c 128,-1,15
 149 397 149 397 131 368 c 1,16,-1
 58 433 l 1,17,18
 117 534 117 534 259 534 c 0,19,20
 368 534 368 534 420.5 485.5 c 128,-1,21
 473 437 473 437 473 348 c 2,22,-1
 473 0 l 1,23,-1
 362 0 l 1,24,-1
 362 89 l 1,25,-1
 357 89 l 1,26,27
 341 36 341 36 299.5 12 c 128,-1,28
 258 -12 258 -12 204 -12 c 0,4,5
243 78 m 0,29,30
 287 78 287 78 319 96.5 c 128,-1,31
 351 115 351 115 351 156 c 2,32,-1
 351 226 l 1,33,-1
 271 226 l 2,34,35
 162 226 162 226 162 163 c 2,36,-1
 162 143 l 2,37,38
 162 78 162 78 243 78 c 0,29,30
EndSplineSet
EndChar

StartChar: acircumflex
Encoding: 226 226 161
Width: 543
Flags: W
LayerCount: 2
Fore
SplineSet
383 583 m 1,0,-1
 263 699 l 1,1,-1
 143 583 l 1,2,-1
 82 631 l 1,3,-1
 206 784 l 1,4,-1
 320 784 l 1,5,-1
 444 631 l 1,6,-1
 383 583 l 1,0,-1
204 -12 m 0,7,8
 122 -12 122 -12 80 30.5 c 128,-1,9
 38 73 38 73 38 142 c 0,10,11
 38 301 38 301 261 301 c 2,12,-1
 351 301 l 1,13,-1
 351 341 l 2,14,15
 351 436 351 436 251 436 c 0,16,17
 204 436 204 436 176.5 416.5 c 128,-1,18
 149 397 149 397 131 368 c 1,19,-1
 58 433 l 1,20,21
 117 534 117 534 259 534 c 0,22,23
 368 534 368 534 420.5 485.5 c 128,-1,24
 473 437 473 437 473 348 c 2,25,-1
 473 0 l 1,26,-1
 362 0 l 1,27,-1
 362 89 l 1,28,-1
 357 89 l 1,29,30
 341 36 341 36 299.5 12 c 128,-1,31
 258 -12 258 -12 204 -12 c 0,7,8
243 78 m 0,32,33
 287 78 287 78 319 96.5 c 128,-1,34
 351 115 351 115 351 156 c 2,35,-1
 351 226 l 1,36,-1
 271 226 l 2,37,38
 162 226 162 226 162 163 c 2,39,-1
 162 143 l 2,40,41
 162 78 162 78 243 78 c 0,32,33
EndSplineSet
EndChar

StartChar: atilde
Encoding: 227 227 162
Width: 543
Flags: W
LayerCount: 2
Fore
SplineSet
338 605 m 0,0,1
 318 605 318 605 302.5 610 c 128,-1,2
 287 615 287 615 274 621.5 c 128,-1,3
 261 628 261 628 248 633 c 0,4,5
 213 651 213 651 185 651 c 0,6,7
 166 651 166 651 153 643.5 c 128,-1,8
 140 636 140 636 126 625 c 1,9,-1
 82 682 l 1,10,11
 119 742 119 742 188 742 c 0,12,13
 209 742 209 742 225 736.5 c 128,-1,14
 241 731 241 731 253.5 724.5 c 128,-1,15
 266 718 266 718 278 714 c 0,16,17
 312 696 312 696 341 696 c 0,18,19
 358 696 358 696 371 702 c 128,-1,20
 384 708 384 708 400 722 c 1,21,-1
 444 665 l 1,22,23
 406 605 406 605 338 605 c 0,0,1
204 -12 m 0,24,25
 122 -12 122 -12 80 30.5 c 128,-1,26
 38 73 38 73 38 142 c 0,27,28
 38 301 38 301 261 301 c 2,29,-1
 351 301 l 1,30,-1
 351 341 l 2,31,32
 351 436 351 436 251 436 c 0,33,34
 204 436 204 436 176.5 416.5 c 128,-1,35
 149 397 149 397 131 368 c 1,36,-1
 58 433 l 1,37,38
 117 534 117 534 259 534 c 0,39,40
 368 534 368 534 420.5 485.5 c 128,-1,41
 473 437 473 437 473 348 c 2,42,-1
 473 0 l 1,43,-1
 362 0 l 1,44,-1
 362 89 l 1,45,-1
 357 89 l 1,46,47
 341 36 341 36 299.5 12 c 128,-1,48
 258 -12 258 -12 204 -12 c 0,24,25
243 78 m 0,49,50
 287 78 287 78 319 96.5 c 128,-1,51
 351 115 351 115 351 156 c 2,52,-1
 351 226 l 1,53,-1
 271 226 l 2,54,55
 162 226 162 226 162 163 c 2,56,-1
 162 143 l 2,57,58
 162 78 162 78 243 78 c 0,49,50
EndSplineSet
EndChar

StartChar: adieresis
Encoding: 228 228 163
Width: 543
Flags: W
LayerCount: 2
Fore
SplineSet
160 607 m 256,0,1
 92 607 92 607 92 663 c 2,2,-1
 92 683 l 2,3,4
 92 740 92 740 160 740 c 256,5,6
 228 740 228 740 228 683 c 2,7,-1
 228 663 l 2,8,9
 228 607 228 607 160 607 c 256,0,1
366 607 m 256,10,11
 298 607 298 607 298 663 c 2,12,-1
 298 683 l 2,13,14
 298 740 298 740 366 740 c 256,15,16
 434 740 434 740 434 683 c 2,17,-1
 434 663 l 2,18,19
 434 607 434 607 366 607 c 256,10,11
204 -12 m 0,20,21
 122 -12 122 -12 80 30.5 c 128,-1,22
 38 73 38 73 38 142 c 0,23,24
 38 301 38 301 261 301 c 2,25,-1
 351 301 l 1,26,-1
 351 341 l 2,27,28
 351 436 351 436 251 436 c 0,29,30
 204 436 204 436 176.5 416.5 c 128,-1,31
 149 397 149 397 131 368 c 1,32,-1
 58 433 l 1,33,34
 117 534 117 534 259 534 c 0,35,36
 368 534 368 534 420.5 485.5 c 128,-1,37
 473 437 473 437 473 348 c 2,38,-1
 473 0 l 1,39,-1
 362 0 l 1,40,-1
 362 89 l 1,41,-1
 357 89 l 1,42,43
 341 36 341 36 299.5 12 c 128,-1,44
 258 -12 258 -12 204 -12 c 0,20,21
243 78 m 0,45,46
 287 78 287 78 319 96.5 c 128,-1,47
 351 115 351 115 351 156 c 2,48,-1
 351 226 l 1,49,-1
 271 226 l 2,50,51
 162 226 162 226 162 163 c 2,52,-1
 162 143 l 2,53,54
 162 78 162 78 243 78 c 0,45,46
EndSplineSet
EndChar

StartChar: aring
Encoding: 229 229 164
Width: 543
Flags: W
LayerCount: 2
Fore
SplineSet
263 565 m 0,0,1
 206 565 206 565 166.5 602 c 128,-1,2
 127 639 127 639 127 697 c 256,3,4
 127 755 127 755 167 792 c 128,-1,5
 207 829 207 829 263 829 c 256,6,7
 319 829 319 829 359 792 c 128,-1,8
 399 755 399 755 399 697 c 256,9,10
 399 639 399 639 359 602 c 128,-1,11
 319 565 319 565 263 565 c 0,0,1
263 630 m 0,12,13
 317 632 317 632 317 682 c 2,14,-1
 317 713 l 2,15,16
 315 764 315 764 263 764 c 0,17,18
 209 764 209 764 209 712 c 2,19,-1
 209 682 l 2,20,21
 209 630 209 630 263 630 c 0,12,13
204 -12 m 0,22,23
 122 -12 122 -12 80 30.5 c 128,-1,24
 38 73 38 73 38 142 c 0,25,26
 38 301 38 301 261 301 c 2,27,-1
 351 301 l 1,28,-1
 351 341 l 2,29,30
 351 436 351 436 251 436 c 0,31,32
 204 436 204 436 176.5 416.5 c 128,-1,33
 149 397 149 397 131 368 c 1,34,-1
 58 433 l 1,35,36
 117 534 117 534 259 534 c 0,37,38
 368 534 368 534 420.5 485.5 c 128,-1,39
 473 437 473 437 473 348 c 2,40,-1
 473 0 l 1,41,-1
 362 0 l 1,42,-1
 362 89 l 1,43,-1
 357 89 l 1,44,45
 341 36 341 36 299.5 12 c 128,-1,46
 258 -12 258 -12 204 -12 c 0,22,23
243 78 m 0,47,48
 287 78 287 78 319 96.5 c 128,-1,49
 351 115 351 115 351 156 c 2,50,-1
 351 226 l 1,51,-1
 271 226 l 2,52,53
 162 226 162 226 162 163 c 2,54,-1
 162 143 l 2,55,56
 162 78 162 78 243 78 c 0,47,48
EndSplineSet
EndChar

StartChar: ae
Encoding: 230 230 165
Width: 865
Flags: W
LayerCount: 2
Fore
SplineSet
245 78 m 0,0,1
 290 78 290 78 320.5 98 c 128,-1,2
 351 118 351 118 351 161 c 2,3,-1
 351 230 l 1,4,-1
 266 230 l 2,5,6
 162 227 162 227 162 163 c 2,7,-1
 162 146 l 2,8,9
 165 78 165 78 245 78 c 0,0,1
696 307 m 1,10,-1
 696 316 l 2,11,12
 696 370 696 370 669.5 405.5 c 128,-1,13
 643 441 643 441 590 441 c 0,14,15
 534 441 534 441 504 403 c 128,-1,16
 474 365 474 365 474 307 c 1,17,-1
 696 307 l 1,10,-1
597 -12 m 0,18,19
 518 -12 518 -12 466 21.5 c 128,-1,20
 414 55 414 55 398 96 c 1,21,-1
 392 96 l 1,22,23
 378 51 378 51 331 19.5 c 128,-1,24
 284 -12 284 -12 205 -12 c 0,25,26
 122 -12 122 -12 80 32 c 128,-1,27
 38 76 38 76 38 143 c 0,28,29
 38 201 38 201 67.5 237 c 128,-1,30
 97 273 97 273 149 290 c 128,-1,31
 201 307 201 307 268 307 c 2,32,-1
 351 307 l 1,33,-1
 351 341 l 2,34,35
 351 436 351 436 252 436 c 0,36,37
 173 436 173 436 131 368 c 1,38,-1
 58 433 l 1,39,40
 117 534 117 534 259 534 c 0,41,42
 303 534 303 534 332.5 521 c 128,-1,43
 362 508 362 508 381 487.5 c 128,-1,44
 400 467 400 467 413 444 c 1,45,-1
 419 444 l 1,46,47
 437 480 437 480 481 507 c 128,-1,48
 525 534 525 534 594 534 c 0,49,50
 677 534 677 534 727.5 496 c 128,-1,51
 778 458 778 458 801 398 c 128,-1,52
 824 338 824 338 824 272 c 2,53,-1
 824 230 l 1,54,-1
 473 230 l 1,55,56
 473 194 473 194 479.5 169 c 128,-1,57
 486 144 486 144 508 123 c 0,58,59
 542 87 542 87 606 87 c 0,60,61
 692 87 692 87 740 159 c 1,62,-1
 807 87 l 1,63,64
 737 -12 737 -12 597 -12 c 0,18,19
EndSplineSet
EndChar

StartChar: ccedilla
Encoding: 231 231 166
Width: 512
Flags: W
LayerCount: 2
Fore
SplineSet
280 -210 m 0,0,1
 199 -210 199 -210 166 -167 c 1,2,-1
 209 -117 l 1,3,4
 230 -146 230 -146 273 -146 c 0,5,6
 291 -146 291 -146 304 -139 c 128,-1,7
 317 -132 317 -132 317 -118 c 0,8,9
 317 -83 317 -83 221 -75 c 1,10,-1
 234 -8 l 1,11,12
 136 9 136 9 88.5 81 c 128,-1,13
 41 153 41 153 41 261 c 0,14,15
 41 381 41 381 101.5 457.5 c 128,-1,16
 162 534 162 534 280 534 c 0,17,18
 433 534 433 534 484 403 c 1,19,-1
 384 357 l 1,20,21
 362 434 362 434 280 434 c 0,22,23
 219 434 219 434 194 395.5 c 128,-1,24
 169 357 169 357 169 301 c 2,25,-1
 169 213 l 2,26,27
 169 159 169 159 194.5 123 c 128,-1,28
 220 87 220 87 280 87 c 0,29,30
 326 87 326 87 352 108.5 c 128,-1,31
 378 130 378 130 394 170 c 1,32,-1
 487 124 l 1,33,34
 436 -3 436 -3 294 -12 c 1,35,-1
 285 -57 l 1,36,-1
 289 -61 l 1,37,38
 309 -54 309 -54 333 -54 c 0,39,40
 361 -54 361 -54 382.5 -69 c 128,-1,41
 404 -84 404 -84 404 -122 c 0,42,43
 404 -169 404 -169 367 -189.5 c 128,-1,44
 330 -210 330 -210 280 -210 c 0,0,1
EndSplineSet
EndChar

StartChar: egrave
Encoding: 232 232 167
Width: 558
Flags: W
LayerCount: 2
Fore
SplineSet
284 -12 m 0,0,1
 167 -12 167 -12 104 63 c 128,-1,2
 41 138 41 138 41 261 c 0,3,4
 41 340 41 340 68.5 402 c 128,-1,5
 96 464 96 464 150 499 c 128,-1,6
 204 534 204 534 282 534 c 0,7,8
 366 534 366 534 417.5 496.5 c 128,-1,9
 469 459 469 459 493 399 c 128,-1,10
 517 339 517 339 517 272 c 2,11,-1
 517 230 l 1,12,-1
 167 230 l 1,13,14
 167 194 167 194 173.5 169 c 128,-1,15
 180 144 180 144 200 123 c 0,16,17
 233 87 233 87 297 87 c 0,18,19
 384 87 384 87 431 160 c 1,20,-1
 499 87 l 1,21,22
 432 -12 432 -12 284 -12 c 0,0,1
390 307 m 1,23,-1
 390 316 l 2,24,25
 390 370 390 370 363 405.5 c 128,-1,26
 336 441 336 441 283 441 c 0,27,28
 223 441 223 441 195 402 c 128,-1,29
 167 363 167 363 167 307 c 1,30,-1
 390 307 l 1,23,-1
273 581 m 1,31,-1
 149 751 l 1,32,-1
 254 802 l 1,33,-1
 347 617 l 1,34,-1
 273 581 l 1,31,-1
EndSplineSet
EndChar

StartChar: eacute
Encoding: 233 233 168
Width: 558
Flags: W
LayerCount: 2
Fore
SplineSet
284 -12 m 0,0,1
 167 -12 167 -12 104 63 c 128,-1,2
 41 138 41 138 41 261 c 0,3,4
 41 340 41 340 68.5 402 c 128,-1,5
 96 464 96 464 150 499 c 128,-1,6
 204 534 204 534 282 534 c 0,7,8
 366 534 366 534 417.5 496.5 c 128,-1,9
 469 459 469 459 493 399 c 128,-1,10
 517 339 517 339 517 272 c 2,11,-1
 517 230 l 1,12,-1
 167 230 l 1,13,14
 167 194 167 194 173.5 169 c 128,-1,15
 180 144 180 144 200 123 c 0,16,17
 233 87 233 87 297 87 c 0,18,19
 384 87 384 87 431 160 c 1,20,-1
 499 87 l 1,21,22
 432 -12 432 -12 284 -12 c 0,0,1
390 307 m 1,23,-1
 390 316 l 2,24,25
 390 370 390 370 363 405.5 c 128,-1,26
 336 441 336 441 283 441 c 0,27,28
 223 441 223 441 195 402 c 128,-1,29
 167 363 167 363 167 307 c 1,30,-1
 390 307 l 1,23,-1
298 581 m 1,31,-1
 223 617 l 1,32,-1
 317 802 l 1,33,-1
 421 751 l 1,34,-1
 298 581 l 1,31,-1
EndSplineSet
EndChar

StartChar: ecircumflex
Encoding: 234 234 169
Width: 558
Flags: W
LayerCount: 2
Fore
SplineSet
284 -12 m 0,0,1
 167 -12 167 -12 104 63 c 128,-1,2
 41 138 41 138 41 261 c 0,3,4
 41 340 41 340 68.5 402 c 128,-1,5
 96 464 96 464 150 499 c 128,-1,6
 204 534 204 534 282 534 c 0,7,8
 366 534 366 534 417.5 496.5 c 128,-1,9
 469 459 469 459 493 399 c 128,-1,10
 517 339 517 339 517 272 c 2,11,-1
 517 230 l 1,12,-1
 167 230 l 1,13,14
 167 194 167 194 173.5 169 c 128,-1,15
 180 144 180 144 200 123 c 0,16,17
 233 87 233 87 297 87 c 0,18,19
 384 87 384 87 431 160 c 1,20,-1
 499 87 l 1,21,22
 432 -12 432 -12 284 -12 c 0,0,1
390 307 m 1,23,-1
 390 316 l 2,24,25
 390 370 390 370 363 405.5 c 128,-1,26
 336 441 336 441 283 441 c 0,27,28
 223 441 223 441 195 402 c 128,-1,29
 167 363 167 363 167 307 c 1,30,-1
 390 307 l 1,23,-1
405 583 m 1,31,-1
 285 699 l 1,32,-1
 166 583 l 1,33,-1
 104 631 l 1,34,-1
 228 784 l 1,35,-1
 343 784 l 1,36,-1
 467 631 l 1,37,-1
 405 583 l 1,31,-1
EndSplineSet
EndChar

StartChar: edieresis
Encoding: 235 235 170
Width: 558
Flags: W
LayerCount: 2
Fore
SplineSet
284 -12 m 0,0,1
 167 -12 167 -12 104 63 c 128,-1,2
 41 138 41 138 41 261 c 0,3,4
 41 340 41 340 68.5 402 c 128,-1,5
 96 464 96 464 150 499 c 128,-1,6
 204 534 204 534 282 534 c 0,7,8
 366 534 366 534 417.5 496.5 c 128,-1,9
 469 459 469 459 493 399 c 128,-1,10
 517 339 517 339 517 272 c 2,11,-1
 517 230 l 1,12,-1
 167 230 l 1,13,14
 167 194 167 194 173.5 169 c 128,-1,15
 180 144 180 144 200 123 c 0,16,17
 233 87 233 87 297 87 c 0,18,19
 384 87 384 87 431 160 c 1,20,-1
 499 87 l 1,21,22
 432 -12 432 -12 284 -12 c 0,0,1
390 307 m 1,23,-1
 390 316 l 2,24,25
 390 370 390 370 363 405.5 c 128,-1,26
 336 441 336 441 283 441 c 0,27,28
 223 441 223 441 195 402 c 128,-1,29
 167 363 167 363 167 307 c 1,30,-1
 390 307 l 1,23,-1
182 607 m 256,31,32
 114 607 114 607 114 663 c 2,33,-1
 114 683 l 2,34,35
 114 740 114 740 182 740 c 256,36,37
 250 740 250 740 250 683 c 2,38,-1
 250 663 l 2,39,40
 250 607 250 607 182 607 c 256,31,32
389 607 m 256,41,42
 321 607 321 607 321 663 c 2,43,-1
 321 683 l 2,44,45
 321 740 321 740 389 740 c 256,46,47
 457 740 457 740 457 683 c 2,48,-1
 457 663 l 2,49,50
 457 607 457 607 389 607 c 256,41,42
EndSplineSet
EndChar

StartChar: igrave
Encoding: 236 236 171
Width: 272
Flags: W
LayerCount: 2
Fore
SplineSet
197 0 m 1,0,-1
 75 0 l 1,1,-1
 75 522 l 1,2,-1
 197 522 l 1,3,-1
 197 0 l 1,0,-1
125 581 m 1,4,-1
 1 751 l 1,5,-1
 106 802 l 1,6,-1
 199 617 l 1,7,-1
 125 581 l 1,4,-1
EndSplineSet
EndChar

StartChar: iacute
Encoding: 237 237 172
Width: 272
Flags: W
LayerCount: 2
Fore
SplineSet
197 0 m 1,0,-1
 75 0 l 1,1,-1
 75 522 l 1,2,-1
 197 522 l 1,3,-1
 197 0 l 1,0,-1
150 581 m 1,4,-1
 75 617 l 1,5,-1
 169 802 l 1,6,-1
 273 751 l 1,7,-1
 150 581 l 1,4,-1
EndSplineSet
EndChar

StartChar: icircumflex
Encoding: 238 238 173
Width: 272
Flags: W
LayerCount: 2
Fore
SplineSet
197 0 m 1,0,-1
 75 0 l 1,1,-1
 75 522 l 1,2,-1
 197 522 l 1,3,-1
 197 0 l 1,0,-1
257 583 m 1,4,-1
 137 699 l 1,5,-1
 18 583 l 1,6,-1
 -44 631 l 1,7,-1
 80 784 l 1,8,-1
 195 784 l 1,9,-1
 319 631 l 1,10,-1
 257 583 l 1,4,-1
EndSplineSet
EndChar

StartChar: idieresis
Encoding: 239 239 174
Width: 272
Flags: W
LayerCount: 2
Fore
SplineSet
197 0 m 1,0,-1
 75 0 l 1,1,-1
 75 522 l 1,2,-1
 197 522 l 1,3,-1
 197 0 l 1,0,-1
34 607 m 256,4,5
 -34 607 -34 607 -34 663 c 2,6,-1
 -34 683 l 2,7,8
 -34 740 -34 740 34 740 c 256,9,10
 102 740 102 740 102 683 c 2,11,-1
 102 663 l 2,12,13
 102 607 102 607 34 607 c 256,4,5
241 607 m 256,14,15
 173 607 173 607 173 663 c 2,16,-1
 173 683 l 2,17,18
 173 740 173 740 241 740 c 256,19,20
 309 740 309 740 309 683 c 2,21,-1
 309 663 l 2,22,23
 309 607 309 607 241 607 c 256,14,15
EndSplineSet
EndChar

StartChar: eth
Encoding: 240 240 175
Width: 584
Flags: W
LayerCount: 2
Fore
SplineSet
291 -12 m 0,0,1
 177 -12 177 -12 110 59 c 128,-1,2
 43 130 43 130 43 250 c 0,3,4
 43 321 43 321 67.5 377.5 c 128,-1,5
 92 434 92 434 138.5 467.5 c 128,-1,6
 185 501 185 501 252 501 c 0,7,8
 355 501 355 501 398 403 c 1,9,-1
 405 406 l 1,10,11
 377 507 377 507 287 594 c 1,12,-1
 201 540 l 1,13,-1
 158 593 l 1,14,-1
 234 641 l 1,15,16
 162 697 162 697 86 740 c 1,17,-1
 272 740 l 1,18,19
 300 722 300 722 328 699 c 1,20,-1
 412 753 l 1,21,-1
 455 700 l 1,22,-1
 380 652 l 1,23,24
 535 494 535 494 535 275 c 0,25,26
 535 130 535 130 468 59 c 128,-1,27
 401 -12 401 -12 291 -12 c 0,0,1
289 83 m 0,28,29
 343 83 343 83 375.5 116.5 c 128,-1,30
 408 150 408 150 408 215 c 2,31,-1
 408 274 l 2,32,33
 408 339 408 339 374.5 372.5 c 128,-1,34
 341 406 341 406 289 406 c 0,35,36
 236 406 236 406 203.5 373 c 128,-1,37
 171 340 171 340 171 274 c 2,38,-1
 171 215 l 2,39,40
 171 149 171 149 203.5 116 c 128,-1,41
 236 83 236 83 289 83 c 0,28,29
EndSplineSet
EndChar

StartChar: ntilde
Encoding: 241 241 176
Width: 585
Flags: W
LayerCount: 2
Fore
SplineSet
516 0 m 1,0,-1
 394 0 l 1,1,-1
 394 316 l 2,2,3
 394 431 394 431 307 431 c 0,4,5
 265 431 265 431 231 410 c 128,-1,6
 197 389 197 389 197 345 c 2,7,-1
 197 0 l 1,8,-1
 75 0 l 1,9,-1
 75 522 l 1,10,-1
 197 522 l 1,11,-1
 197 435 l 1,12,-1
 202 435 l 1,13,14
 238 534 238 534 348 534 c 0,15,16
 432 534 432 534 474 478.5 c 128,-1,17
 516 423 516 423 516 330 c 2,18,-1
 516 0 l 1,0,-1
371 605 m 0,19,20
 351 605 351 605 335.5 610 c 128,-1,21
 320 615 320 615 307 621.5 c 128,-1,22
 294 628 294 628 281 633 c 0,23,24
 246 651 246 651 218 651 c 0,25,26
 199 651 199 651 186 643.5 c 128,-1,27
 173 636 173 636 159 625 c 1,28,-1
 115 682 l 1,29,30
 152 742 152 742 221 742 c 0,31,32
 242 742 242 742 258 736.5 c 128,-1,33
 274 731 274 731 286.5 724.5 c 128,-1,34
 299 718 299 718 311 714 c 0,35,36
 345 696 345 696 374 696 c 0,37,38
 391 696 391 696 404 702 c 128,-1,39
 417 708 417 708 433 722 c 1,40,-1
 477 665 l 1,41,42
 439 605 439 605 371 605 c 0,19,20
EndSplineSet
EndChar

StartChar: ograve
Encoding: 242 242 177
Width: 564
Flags: W
LayerCount: 2
Fore
SplineSet
282 -12 m 0,0,1
 167 -12 167 -12 104 64.5 c 128,-1,2
 41 141 41 141 41 261 c 0,3,4
 41 388 41 388 106.5 461 c 128,-1,5
 172 534 172 534 282 534 c 0,6,7
 391 534 391 534 457 460.5 c 128,-1,8
 523 387 523 387 523 261 c 0,9,10
 523 139 523 139 458.5 63.5 c 128,-1,11
 394 -12 394 -12 282 -12 c 0,0,1
282 87 m 0,12,13
 395 87 395 87 395 226 c 2,14,-1
 395 308 l 2,15,16
 395 375 395 375 363 405 c 128,-1,17
 331 435 331 435 282 435 c 0,18,19
 169 435 169 435 169 296 c 2,20,-1
 169 214 l 2,21,22
 169 149 169 149 199 118 c 128,-1,23
 229 87 229 87 282 87 c 0,12,13
269 581 m 1,24,-1
 146 751 l 1,25,-1
 250 802 l 1,26,-1
 344 617 l 1,27,-1
 269 581 l 1,24,-1
EndSplineSet
EndChar

StartChar: oacute
Encoding: 243 243 178
Width: 564
Flags: W
LayerCount: 2
Fore
SplineSet
282 -12 m 0,0,1
 167 -12 167 -12 104 64.5 c 128,-1,2
 41 141 41 141 41 261 c 0,3,4
 41 388 41 388 106.5 461 c 128,-1,5
 172 534 172 534 282 534 c 0,6,7
 391 534 391 534 457 460.5 c 128,-1,8
 523 387 523 387 523 261 c 0,9,10
 523 139 523 139 458.5 63.5 c 128,-1,11
 394 -12 394 -12 282 -12 c 0,0,1
282 87 m 0,12,13
 395 87 395 87 395 226 c 2,14,-1
 395 308 l 2,15,16
 395 375 395 375 363 405 c 128,-1,17
 331 435 331 435 282 435 c 0,18,19
 169 435 169 435 169 296 c 2,20,-1
 169 214 l 2,21,22
 169 149 169 149 199 118 c 128,-1,23
 229 87 229 87 282 87 c 0,12,13
295 581 m 1,24,-1
 220 617 l 1,25,-1
 314 802 l 1,26,-1
 418 751 l 1,27,-1
 295 581 l 1,24,-1
EndSplineSet
EndChar

StartChar: ocircumflex
Encoding: 244 244 179
Width: 564
Flags: W
LayerCount: 2
Fore
SplineSet
282 -12 m 0,0,1
 167 -12 167 -12 104 64.5 c 128,-1,2
 41 141 41 141 41 261 c 0,3,4
 41 388 41 388 106.5 461 c 128,-1,5
 172 534 172 534 282 534 c 0,6,7
 391 534 391 534 457 460.5 c 128,-1,8
 523 387 523 387 523 261 c 0,9,10
 523 139 523 139 458.5 63.5 c 128,-1,11
 394 -12 394 -12 282 -12 c 0,0,1
282 87 m 0,12,13
 395 87 395 87 395 226 c 2,14,-1
 395 308 l 2,15,16
 395 375 395 375 363 405 c 128,-1,17
 331 435 331 435 282 435 c 0,18,19
 169 435 169 435 169 296 c 2,20,-1
 169 214 l 2,21,22
 169 149 169 149 199 118 c 128,-1,23
 229 87 229 87 282 87 c 0,12,13
402 583 m 1,24,-1
 282 699 l 1,25,-1
 162 583 l 1,26,-1
 101 631 l 1,27,-1
 225 784 l 1,28,-1
 339 784 l 1,29,-1
 463 631 l 1,30,-1
 402 583 l 1,24,-1
EndSplineSet
EndChar

StartChar: otilde
Encoding: 245 245 180
Width: 564
Flags: W
LayerCount: 2
Fore
SplineSet
282 -12 m 0,0,1
 167 -12 167 -12 104 64.5 c 128,-1,2
 41 141 41 141 41 261 c 0,3,4
 41 388 41 388 106.5 461 c 128,-1,5
 172 534 172 534 282 534 c 0,6,7
 391 534 391 534 457 460.5 c 128,-1,8
 523 387 523 387 523 261 c 0,9,10
 523 139 523 139 458.5 63.5 c 128,-1,11
 394 -12 394 -12 282 -12 c 0,0,1
282 87 m 0,12,13
 395 87 395 87 395 226 c 2,14,-1
 395 308 l 2,15,16
 395 375 395 375 363 405 c 128,-1,17
 331 435 331 435 282 435 c 0,18,19
 169 435 169 435 169 296 c 2,20,-1
 169 214 l 2,21,22
 169 149 169 149 199 118 c 128,-1,23
 229 87 229 87 282 87 c 0,12,13
357 605 m 0,24,25
 337 605 337 605 321.5 610 c 128,-1,26
 306 615 306 615 293 621.5 c 128,-1,27
 280 628 280 628 267 633 c 0,28,29
 232 651 232 651 204 651 c 0,30,31
 185 651 185 651 172 643.5 c 128,-1,32
 159 636 159 636 145 625 c 1,33,-1
 101 682 l 1,34,35
 138 742 138 742 207 742 c 0,36,37
 228 742 228 742 244 736.5 c 128,-1,38
 260 731 260 731 272.5 724.5 c 128,-1,39
 285 718 285 718 297 714 c 0,40,41
 331 696 331 696 360 696 c 0,42,43
 377 696 377 696 390 702 c 128,-1,44
 403 708 403 708 419 722 c 1,45,-1
 463 665 l 1,46,47
 425 605 425 605 357 605 c 0,24,25
EndSplineSet
EndChar

StartChar: odieresis
Encoding: 246 246 181
Width: 564
Flags: W
LayerCount: 2
Fore
SplineSet
282 -12 m 0,0,1
 167 -12 167 -12 104 64.5 c 128,-1,2
 41 141 41 141 41 261 c 0,3,4
 41 388 41 388 106.5 461 c 128,-1,5
 172 534 172 534 282 534 c 0,6,7
 391 534 391 534 457 460.5 c 128,-1,8
 523 387 523 387 523 261 c 0,9,10
 523 139 523 139 458.5 63.5 c 128,-1,11
 394 -12 394 -12 282 -12 c 0,0,1
282 87 m 0,12,13
 395 87 395 87 395 226 c 2,14,-1
 395 308 l 2,15,16
 395 375 395 375 363 405 c 128,-1,17
 331 435 331 435 282 435 c 0,18,19
 169 435 169 435 169 296 c 2,20,-1
 169 214 l 2,21,22
 169 149 169 149 199 118 c 128,-1,23
 229 87 229 87 282 87 c 0,12,13
179 607 m 256,24,25
 111 607 111 607 111 663 c 2,26,-1
 111 683 l 2,27,28
 111 740 111 740 179 740 c 256,29,30
 247 740 247 740 247 683 c 2,31,-1
 247 663 l 2,32,33
 247 607 247 607 179 607 c 256,24,25
385 607 m 256,34,35
 317 607 317 607 317 663 c 2,36,-1
 317 683 l 2,37,38
 317 740 317 740 385 740 c 256,39,40
 453 740 453 740 453 683 c 2,41,-1
 453 663 l 2,42,43
 453 607 453 607 385 607 c 256,34,35
EndSplineSet
EndChar

StartChar: divide
Encoding: 247 247 182
Width: 600
Flags: W
LayerCount: 2
Fore
SplineSet
533 256 m 1,0,-1
 67 256 l 1,1,-1
 67 355 l 1,2,-1
 533 355 l 1,3,-1
 533 256 l 1,0,-1
300 37 m 256,4,5
 257 37 257 37 239.5 54.5 c 128,-1,6
 222 72 222 72 222 98 c 2,7,-1
 222 122 l 2,8,9
 222 145 222 145 239 164 c 128,-1,10
 256 183 256 183 300 183 c 256,11,12
 344 183 344 183 361 164 c 128,-1,13
 378 145 378 145 378 122 c 2,14,-1
 378 98 l 2,15,16
 378 72 378 72 360.5 54.5 c 128,-1,17
 343 37 343 37 300 37 c 256,4,5
300 427 m 256,18,19
 257 427 257 427 239.5 444.5 c 128,-1,20
 222 462 222 462 222 488 c 2,21,-1
 222 512 l 2,22,23
 222 535 222 535 239 554 c 128,-1,24
 256 573 256 573 300 573 c 256,25,26
 344 573 344 573 361 554 c 128,-1,27
 378 535 378 535 378 512 c 2,28,-1
 378 488 l 2,29,30
 378 462 378 462 360.5 444.5 c 128,-1,31
 343 427 343 427 300 427 c 256,18,19
EndSplineSet
EndChar

StartChar: oslash
Encoding: 248 248 183
Width: 571
Flags: W
LayerCount: 2
Fore
SplineSet
89 -46 m 1,0,-1
 22 4 l 1,1,-1
 89 87 l 1,2,3
 44 154 44 154 44 261 c 0,4,5
 44 388 44 388 109.5 461 c 128,-1,6
 175 534 175 534 285 534 c 0,7,8
 365 534 365 534 421 494 c 1,9,-1
 482 568 l 1,10,-1
 549 518 l 1,11,-1
 481 434 l 1,12,13
 527 365 527 365 527 261 c 0,14,15
 527 142 527 142 463.5 65 c 128,-1,16
 400 -12 400 -12 285 -12 c 0,17,18
 203 -12 203 -12 149 26 c 1,19,-1
 89 -46 l 1,0,-1
285 82 m 0,20,21
 337 82 337 82 369.5 115 c 128,-1,22
 402 148 402 148 402 217 c 2,23,-1
 402 292 l 2,24,25
 402 318 402 318 398 339 c 1,26,-1
 209 108 l 1,27,28
 238 82 238 82 285 82 c 0,20,21
173 183 m 1,29,-1
 362 413 l 1,30,31
 329 440 329 440 285 440 c 0,32,33
 233 440 233 440 201 405.5 c 128,-1,34
 169 371 169 371 169 305 c 2,35,-1
 169 227 l 2,36,37
 169 203 169 203 173 183 c 1,29,-1
EndSplineSet
EndChar

StartChar: ugrave
Encoding: 249 249 184
Width: 585
Flags: W
LayerCount: 2
Fore
SplineSet
238 -12 m 0,0,1
 154 -12 154 -12 112 41 c 128,-1,2
 70 94 70 94 70 191 c 2,3,-1
 70 522 l 1,4,-1
 192 522 l 1,5,-1
 192 205 l 2,6,7
 192 91 192 91 277 91 c 2,8,-1
 283 91 l 2,9,10
 308 91 308 91 332 99.5 c 128,-1,11
 356 108 356 108 372 127 c 128,-1,12
 388 146 388 146 388 176 c 2,13,-1
 388 522 l 1,14,-1
 510 522 l 1,15,-1
 510 0 l 1,16,-1
 388 0 l 1,17,-1
 388 87 l 1,18,-1
 384 87 l 1,19,20
 353 -12 353 -12 238 -12 c 0,0,1
279 581 m 1,21,-1
 155 751 l 1,22,-1
 260 802 l 1,23,-1
 353 617 l 1,24,-1
 279 581 l 1,21,-1
EndSplineSet
EndChar

StartChar: uacute
Encoding: 250 250 185
Width: 585
Flags: W
LayerCount: 2
Fore
SplineSet
238 -12 m 0,0,1
 154 -12 154 -12 112 41 c 128,-1,2
 70 94 70 94 70 191 c 2,3,-1
 70 522 l 1,4,-1
 192 522 l 1,5,-1
 192 205 l 2,6,7
 192 91 192 91 277 91 c 2,8,-1
 283 91 l 2,9,10
 308 91 308 91 332 99.5 c 128,-1,11
 356 108 356 108 372 127 c 128,-1,12
 388 146 388 146 388 176 c 2,13,-1
 388 522 l 1,14,-1
 510 522 l 1,15,-1
 510 0 l 1,16,-1
 388 0 l 1,17,-1
 388 87 l 1,18,-1
 384 87 l 1,19,20
 353 -12 353 -12 238 -12 c 0,0,1
304 581 m 1,21,-1
 229 617 l 1,22,-1
 323 802 l 1,23,-1
 427 751 l 1,24,-1
 304 581 l 1,21,-1
EndSplineSet
EndChar

StartChar: ucircumflex
Encoding: 251 251 186
Width: 585
Flags: W
LayerCount: 2
Fore
SplineSet
238 -12 m 0,0,1
 154 -12 154 -12 112 41 c 128,-1,2
 70 94 70 94 70 191 c 2,3,-1
 70 522 l 1,4,-1
 192 522 l 1,5,-1
 192 205 l 2,6,7
 192 91 192 91 277 91 c 2,8,-1
 283 91 l 2,9,10
 308 91 308 91 332 99.5 c 128,-1,11
 356 108 356 108 372 127 c 128,-1,12
 388 146 388 146 388 176 c 2,13,-1
 388 522 l 1,14,-1
 510 522 l 1,15,-1
 510 0 l 1,16,-1
 388 0 l 1,17,-1
 388 87 l 1,18,-1
 384 87 l 1,19,20
 353 -12 353 -12 238 -12 c 0,0,1
411 583 m 1,21,-1
 291 699 l 1,22,-1
 172 583 l 1,23,-1
 110 631 l 1,24,-1
 234 784 l 1,25,-1
 349 784 l 1,26,-1
 473 631 l 1,27,-1
 411 583 l 1,21,-1
EndSplineSet
EndChar

StartChar: udieresis
Encoding: 252 252 187
Width: 585
Flags: W
LayerCount: 2
Fore
SplineSet
238 -12 m 0,0,1
 154 -12 154 -12 112 41 c 128,-1,2
 70 94 70 94 70 191 c 2,3,-1
 70 522 l 1,4,-1
 192 522 l 1,5,-1
 192 205 l 2,6,7
 192 91 192 91 277 91 c 2,8,-1
 283 91 l 2,9,10
 308 91 308 91 332 99.5 c 128,-1,11
 356 108 356 108 372 127 c 128,-1,12
 388 146 388 146 388 176 c 2,13,-1
 388 522 l 1,14,-1
 510 522 l 1,15,-1
 510 0 l 1,16,-1
 388 0 l 1,17,-1
 388 87 l 1,18,-1
 384 87 l 1,19,20
 353 -12 353 -12 238 -12 c 0,0,1
188 607 m 256,21,22
 120 607 120 607 120 663 c 2,23,-1
 120 683 l 2,24,25
 120 740 120 740 188 740 c 256,26,27
 256 740 256 740 256 683 c 2,28,-1
 256 663 l 2,29,30
 256 607 256 607 188 607 c 256,21,22
395 607 m 256,31,32
 327 607 327 607 327 663 c 2,33,-1
 327 683 l 2,34,35
 327 740 327 740 395 740 c 256,36,37
 463 740 463 740 463 683 c 2,38,-1
 463 663 l 2,39,40
 463 607 463 607 395 607 c 256,31,32
EndSplineSet
EndChar

StartChar: yacute
Encoding: 253 253 188
Width: 521
Flags: W
LayerCount: 2
Fore
SplineSet
152 -200 m 2,0,-1
 80 -200 l 1,1,-1
 80 -102 l 1,2,-1
 171 -102 l 1,3,-1
 197 -24 l 1,4,-1
 10 522 l 1,5,-1
 132 522 l 1,6,-1
 231 219 l 1,7,-1
 259 110 l 1,8,-1
 265 110 l 1,9,-1
 295 219 l 1,10,-1
 395 522 l 1,11,-1
 511 522 l 1,12,-1
 297 -96 l 2,13,14
 280 -151 280 -151 247 -175.5 c 128,-1,15
 214 -200 214 -200 152 -200 c 2,0,-1
277 581 m 1,16,-1
 202 617 l 1,17,-1
 296 802 l 1,18,-1
 400 751 l 1,19,-1
 277 581 l 1,16,-1
EndSplineSet
EndChar

StartChar: thorn
Encoding: 254 254 189
Width: 597
Flags: W
LayerCount: 2
Fore
SplineSet
197 -200 m 1,0,-1
 75 -200 l 1,1,-1
 75 740 l 1,2,-1
 197 740 l 1,3,-1
 197 435 l 1,4,-1
 202 435 l 1,5,6
 219 482 219 482 257 508 c 128,-1,7
 295 534 295 534 346 534 c 0,8,9
 451 534 451 534 501.5 460 c 128,-1,10
 552 386 552 386 552 261 c 0,11,12
 552 134 552 134 502 61 c 128,-1,13
 452 -12 452 -12 346 -12 c 0,14,15
 296 -12 296 -12 258.5 13 c 128,-1,16
 221 38 221 38 202 87 c 1,17,-1
 197 87 l 1,18,-1
 197 -200 l 1,0,-1
308 91 m 0,19,20
 368 91 368 91 396 129 c 128,-1,21
 424 167 424 167 424 222 c 2,22,-1
 424 306 l 2,23,24
 424 364 424 364 391.5 397.5 c 128,-1,25
 359 431 359 431 308 431 c 0,26,27
 260 431 260 431 228.5 407.5 c 128,-1,28
 197 384 197 384 197 340 c 2,29,-1
 197 176 l 2,30,31
 197 134 197 134 229.5 112.5 c 128,-1,32
 262 91 262 91 308 91 c 0,19,20
EndSplineSet
EndChar

StartChar: ydieresis
Encoding: 255 255 190
Width: 521
Flags: W
LayerCount: 2
Fore
SplineSet
152 -200 m 2,0,-1
 80 -200 l 1,1,-1
 80 -102 l 1,2,-1
 171 -102 l 1,3,-1
 197 -24 l 1,4,-1
 10 522 l 1,5,-1
 132 522 l 1,6,-1
 231 219 l 1,7,-1
 259 110 l 1,8,-1
 265 110 l 1,9,-1
 295 219 l 1,10,-1
 395 522 l 1,11,-1
 511 522 l 1,12,-1
 297 -96 l 2,13,14
 280 -151 280 -151 247 -175.5 c 128,-1,15
 214 -200 214 -200 152 -200 c 2,0,-1
161 607 m 256,16,17
 93 607 93 607 93 663 c 2,18,-1
 93 683 l 2,19,20
 93 740 93 740 161 740 c 256,21,22
 229 740 229 740 229 683 c 2,23,-1
 229 663 l 2,24,25
 229 607 229 607 161 607 c 256,16,17
367 607 m 256,26,27
 299 607 299 607 299 663 c 2,28,-1
 299 683 l 2,29,30
 299 740 299 740 367 740 c 256,31,32
 435 740 435 740 435 683 c 2,33,-1
 435 663 l 2,34,35
 435 607 435 607 367 607 c 256,26,27
EndSplineSet
EndChar

StartChar: Amacron
Encoding: 256 256 191
Width: 670
Flags: W
LayerCount: 2
Fore
SplineSet
648 0 m 1,0,-1
 517 0 l 1,1,-1
 458 181 l 1,2,-1
 207 181 l 1,3,-1
 149 0 l 1,4,-1
 21 0 l 1,5,-1
 257 698 l 1,6,-1
 414 698 l 1,7,-1
 648 0 l 1,0,-1
427 289 m 1,8,-1
 335 583 l 1,9,-1
 330 583 l 1,10,-1
 237 289 l 1,11,-1
 427 289 l 1,8,-1
481 794 m 1,12,-1
 185 794 l 1,13,-1
 185 883 l 1,14,-1
 481 883 l 1,15,-1
 481 794 l 1,12,-1
EndSplineSet
EndChar

StartChar: amacron
Encoding: 257 257 192
Width: 543
Flags: W
LayerCount: 2
Fore
SplineSet
411 629 m 1,0,-1
 115 629 l 1,1,-1
 115 718 l 1,2,-1
 411 718 l 1,3,-1
 411 629 l 1,0,-1
204 -12 m 0,4,5
 122 -12 122 -12 80 30.5 c 128,-1,6
 38 73 38 73 38 142 c 0,7,8
 38 301 38 301 261 301 c 2,9,-1
 351 301 l 1,10,-1
 351 341 l 2,11,12
 351 436 351 436 251 436 c 0,13,14
 204 436 204 436 176.5 416.5 c 128,-1,15
 149 397 149 397 131 368 c 1,16,-1
 58 433 l 1,17,18
 117 534 117 534 259 534 c 0,19,20
 368 534 368 534 420.5 485.5 c 128,-1,21
 473 437 473 437 473 348 c 2,22,-1
 473 0 l 1,23,-1
 362 0 l 1,24,-1
 362 89 l 1,25,-1
 357 89 l 1,26,27
 341 36 341 36 299.5 12 c 128,-1,28
 258 -12 258 -12 204 -12 c 0,4,5
243 78 m 0,29,30
 287 78 287 78 319 96.5 c 128,-1,31
 351 115 351 115 351 156 c 2,32,-1
 351 226 l 1,33,-1
 271 226 l 2,34,35
 162 226 162 226 162 163 c 2,36,-1
 162 143 l 2,37,38
 162 78 162 78 243 78 c 0,29,30
EndSplineSet
EndChar

StartChar: Abreve
Encoding: 258 258 193
Width: 670
Flags: W
LayerCount: 2
Fore
SplineSet
648 0 m 1,0,-1
 517 0 l 1,1,-1
 458 181 l 1,2,-1
 207 181 l 1,3,-1
 149 0 l 1,4,-1
 21 0 l 1,5,-1
 257 698 l 1,6,-1
 414 698 l 1,7,-1
 648 0 l 1,0,-1
427 289 m 1,8,-1
 335 583 l 1,9,-1
 330 583 l 1,10,-1
 237 289 l 1,11,-1
 427 289 l 1,8,-1
332 750 m 0,12,13
 259 750 259 750 215 795 c 128,-1,14
 171 840 171 840 157 903 c 1,15,-1
 224 937 l 1,16,-1
 244 905 l 2,17,18
 260 873 260 873 280 855.5 c 128,-1,19
 300 838 300 838 332 838 c 256,20,21
 364 838 364 838 383 855 c 128,-1,22
 402 872 402 872 421 905 c 2,23,-1
 441 937 l 1,24,-1
 508 903 l 1,25,26
 461 750 461 750 332 750 c 0,12,13
EndSplineSet
EndChar

StartChar: abreve
Encoding: 259 259 194
Width: 543
Flags: W
LayerCount: 2
Fore
SplineSet
262 586 m 0,0,1
 213 586 213 586 178 606.5 c 128,-1,2
 143 627 143 627 121 661.5 c 128,-1,3
 99 696 99 696 87 738 c 1,4,-1
 154 772 l 1,5,-1
 175 739 l 2,6,7
 191 709 191 709 210.5 691 c 128,-1,8
 230 673 230 673 262 673 c 0,9,10
 293 673 293 673 312 690 c 128,-1,11
 331 707 331 707 350 739 c 2,12,-1
 371 772 l 1,13,-1
 438 738 l 1,14,15
 393 586 393 586 262 586 c 0,0,1
204 -12 m 0,16,17
 122 -12 122 -12 80 30.5 c 128,-1,18
 38 73 38 73 38 142 c 0,19,20
 38 301 38 301 261 301 c 2,21,-1
 351 301 l 1,22,-1
 351 341 l 2,23,24
 351 436 351 436 251 436 c 0,25,26
 204 436 204 436 176.5 416.5 c 128,-1,27
 149 397 149 397 131 368 c 1,28,-1
 58 433 l 1,29,30
 117 534 117 534 259 534 c 0,31,32
 368 534 368 534 420.5 485.5 c 128,-1,33
 473 437 473 437 473 348 c 2,34,-1
 473 0 l 1,35,-1
 362 0 l 1,36,-1
 362 89 l 1,37,-1
 357 89 l 1,38,39
 341 36 341 36 299.5 12 c 128,-1,40
 258 -12 258 -12 204 -12 c 0,16,17
243 78 m 0,41,42
 287 78 287 78 319 96.5 c 128,-1,43
 351 115 351 115 351 156 c 2,44,-1
 351 226 l 1,45,-1
 271 226 l 2,46,47
 162 226 162 226 162 163 c 2,48,-1
 162 143 l 2,49,50
 162 78 162 78 243 78 c 0,41,42
EndSplineSet
EndChar

StartChar: Aogonek
Encoding: 260 260 195
Width: 670
Flags: W
LayerCount: 2
Fore
SplineSet
566 -210 m 0,0,1
 522 -210 522 -210 487.5 -192 c 128,-1,2
 453 -174 453 -174 453 -128 c 0,3,4
 453 -86 453 -86 484 -58 c 128,-1,5
 515 -30 515 -30 565 -4 c 1,6,-1
 564 0 l 1,7,-1
 517 0 l 1,8,-1
 458 181 l 1,9,-1
 207 181 l 1,10,-1
 149 0 l 1,11,-1
 21 0 l 1,12,-1
 257 698 l 1,13,-1
 414 698 l 1,14,-1
 648 0 l 1,15,16
 581 -46 581 -46 560.5 -70 c 128,-1,17
 540 -94 540 -94 540 -112 c 0,18,19
 540 -144 540 -144 575 -144 c 0,20,21
 606 -144 606 -144 627 -117 c 1,22,-1
 675 -164 l 1,23,24
 650 -210 650 -210 566 -210 c 0,0,1
427 289 m 1,25,-1
 335 583 l 1,26,-1
 330 583 l 1,27,-1
 237 289 l 1,28,-1
 427 289 l 1,25,-1
EndSplineSet
EndChar

StartChar: aogonek
Encoding: 261 261 196
Width: 543
Flags: W
LayerCount: 2
Fore
SplineSet
243 78 m 0,0,1
 287 78 287 78 319 96.5 c 128,-1,2
 351 115 351 115 351 156 c 2,3,-1
 351 226 l 1,4,-1
 271 226 l 2,5,6
 162 226 162 226 162 163 c 2,7,-1
 162 143 l 2,8,9
 162 78 162 78 243 78 c 0,0,1
392 -210 m 0,10,11
 348 -210 348 -210 313.5 -192 c 128,-1,12
 279 -174 279 -174 279 -128 c 0,13,14
 279 -86 279 -86 309.5 -57.5 c 128,-1,15
 340 -29 340 -29 392 -4 c 1,16,-1
 391 0 l 1,17,-1
 362 0 l 1,18,-1
 362 89 l 1,19,-1
 357 89 l 1,20,21
 341 36 341 36 299.5 12 c 128,-1,22
 258 -12 258 -12 204 -12 c 0,23,24
 119 -12 119 -12 78.5 31 c 128,-1,25
 38 74 38 74 38 142 c 0,26,27
 38 301 38 301 261 301 c 2,28,-1
 351 301 l 1,29,-1
 351 341 l 2,30,31
 351 436 351 436 251 436 c 0,32,33
 204 436 204 436 176.5 416.5 c 128,-1,34
 149 397 149 397 131 368 c 1,35,-1
 58 433 l 1,36,37
 117 534 117 534 259 534 c 0,38,39
 367 534 367 534 420 485.5 c 128,-1,40
 473 437 473 437 473 348 c 2,41,-1
 473 0 l 1,42,43
 409 -44 409 -44 387 -67.5 c 128,-1,44
 365 -91 365 -91 365 -112 c 0,45,46
 365 -144 365 -144 401 -144 c 0,47,48
 432 -144 432 -144 453 -117 c 1,49,-1
 501 -164 l 1,50,51
 476 -210 476 -210 392 -210 c 0,10,11
EndSplineSet
EndChar

StartChar: Cacute
Encoding: 262 262 197
Width: 640
Flags: W
LayerCount: 2
Fore
SplineSet
352 -12 m 0,0,1
 212 -12 212 -12 132.5 80.5 c 128,-1,2
 53 173 53 173 53 347 c 0,3,4
 53 527 53 527 135.5 618.5 c 128,-1,5
 218 710 218 710 352 710 c 0,6,7
 532 710 532 710 605 550 c 1,8,-1
 498 493 l 1,9,10
 463 598 463 598 352 598 c 0,11,12
 269 598 269 598 228 544 c 128,-1,13
 187 490 187 490 187 403 c 2,14,-1
 187 295 l 2,15,16
 187 198 187 198 233 149 c 128,-1,17
 279 100 279 100 352 100 c 0,18,19
 467 100 467 100 505 212 c 1,20,-1
 607 152 l 1,21,22
 531 -12 531 -12 352 -12 c 0,0,1
361 746 m 1,23,-1
 286 782 l 1,24,-1
 380 966 l 1,25,-1
 484 915 l 1,26,-1
 361 746 l 1,23,-1
EndSplineSet
EndChar

StartChar: cacute
Encoding: 263 263 198
Width: 512
Flags: W
LayerCount: 2
Fore
SplineSet
280 -12 m 0,0,1
 173 -12 173 -12 107 56 c 128,-1,2
 41 124 41 124 41 261 c 0,3,4
 41 341 41 341 68 402.5 c 128,-1,5
 95 464 95 464 148 499 c 128,-1,6
 201 534 201 534 280 534 c 0,7,8
 431 534 431 534 484 403 c 1,9,-1
 384 357 l 1,10,11
 362 434 362 434 280 434 c 0,12,13
 220 434 220 434 194.5 397 c 128,-1,14
 169 360 169 360 169 308 c 2,15,-1
 169 213 l 2,16,17
 169 159 169 159 194.5 123 c 128,-1,18
 220 87 220 87 280 87 c 0,19,20
 326 87 326 87 352 109 c 128,-1,21
 378 131 378 131 394 170 c 1,22,-1
 487 124 l 1,23,24
 433 -12 433 -12 280 -12 c 0,0,1
289 581 m 1,25,-1
 214 617 l 1,26,-1
 308 802 l 1,27,-1
 412 751 l 1,28,-1
 289 581 l 1,25,-1
EndSplineSet
EndChar

StartChar: Ccircumflex
Encoding: 264 264 199
Width: 640
Flags: W
LayerCount: 2
Fore
SplineSet
352 -12 m 0,0,1
 212 -12 212 -12 132.5 80.5 c 128,-1,2
 53 173 53 173 53 347 c 0,3,4
 53 527 53 527 135.5 618.5 c 128,-1,5
 218 710 218 710 352 710 c 0,6,7
 532 710 532 710 605 550 c 1,8,-1
 498 493 l 1,9,10
 463 598 463 598 352 598 c 0,11,12
 269 598 269 598 228 544 c 128,-1,13
 187 490 187 490 187 403 c 2,14,-1
 187 295 l 2,15,16
 187 198 187 198 233 149 c 128,-1,17
 279 100 279 100 352 100 c 0,18,19
 467 100 467 100 505 212 c 1,20,-1
 607 152 l 1,21,22
 531 -12 531 -12 352 -12 c 0,0,1
468 748 m 1,23,-1
 348 863 l 1,24,-1
 229 748 l 1,25,-1
 167 795 l 1,26,-1
 291 948 l 1,27,-1
 406 948 l 1,28,-1
 530 795 l 1,29,-1
 468 748 l 1,23,-1
EndSplineSet
EndChar

StartChar: ccircumflex
Encoding: 265 265 200
Width: 512
Flags: W
LayerCount: 2
Fore
SplineSet
280 -12 m 0,0,1
 173 -12 173 -12 107 56 c 128,-1,2
 41 124 41 124 41 261 c 0,3,4
 41 341 41 341 68 402.5 c 128,-1,5
 95 464 95 464 148 499 c 128,-1,6
 201 534 201 534 280 534 c 0,7,8
 431 534 431 534 484 403 c 1,9,-1
 384 357 l 1,10,11
 362 434 362 434 280 434 c 0,12,13
 220 434 220 434 194.5 397 c 128,-1,14
 169 360 169 360 169 308 c 2,15,-1
 169 213 l 2,16,17
 169 159 169 159 194.5 123 c 128,-1,18
 220 87 220 87 280 87 c 0,19,20
 326 87 326 87 352 109 c 128,-1,21
 378 131 378 131 394 170 c 1,22,-1
 487 124 l 1,23,24
 433 -12 433 -12 280 -12 c 0,0,1
396 583 m 1,25,-1
 276 699 l 1,26,-1
 157 583 l 1,27,-1
 95 631 l 1,28,-1
 219 784 l 1,29,-1
 334 784 l 1,30,-1
 458 631 l 1,31,-1
 396 583 l 1,25,-1
EndSplineSet
EndChar

StartChar: Cdot
Encoding: 266 266 201
Width: 640
Flags: W
LayerCount: 2
Fore
SplineSet
352 -12 m 0,0,1
 212 -12 212 -12 132.5 80.5 c 128,-1,2
 53 173 53 173 53 347 c 0,3,4
 53 527 53 527 135.5 618.5 c 128,-1,5
 218 710 218 710 352 710 c 0,6,7
 532 710 532 710 605 550 c 1,8,-1
 498 493 l 1,9,10
 463 598 463 598 352 598 c 0,11,12
 269 598 269 598 228 544 c 128,-1,13
 187 490 187 490 187 403 c 2,14,-1
 187 295 l 2,15,16
 187 198 187 198 233 149 c 128,-1,17
 279 100 279 100 352 100 c 0,18,19
 467 100 467 100 505 212 c 1,20,-1
 607 152 l 1,21,22
 531 -12 531 -12 352 -12 c 0,0,1
348 763 m 0,23,24
 272 763 272 763 272 826 c 2,25,-1
 272 850 l 2,26,27
 272 913 272 913 348 913 c 0,28,29
 425 913 425 913 425 850 c 2,30,-1
 425 826 l 2,31,32
 425 763 425 763 348 763 c 0,23,24
EndSplineSet
EndChar

StartChar: cdot
Encoding: 267 267 202
Width: 512
Flags: W
LayerCount: 2
Fore
SplineSet
280 -12 m 0,0,1
 173 -12 173 -12 107 56 c 128,-1,2
 41 124 41 124 41 261 c 0,3,4
 41 341 41 341 68 402.5 c 128,-1,5
 95 464 95 464 148 499 c 128,-1,6
 201 534 201 534 280 534 c 0,7,8
 431 534 431 534 484 403 c 1,9,-1
 384 357 l 1,10,11
 362 434 362 434 280 434 c 0,12,13
 220 434 220 434 194.5 397 c 128,-1,14
 169 360 169 360 169 308 c 2,15,-1
 169 213 l 2,16,17
 169 159 169 159 194.5 123 c 128,-1,18
 220 87 220 87 280 87 c 0,19,20
 326 87 326 87 352 109 c 128,-1,21
 378 131 378 131 394 170 c 1,22,-1
 487 124 l 1,23,24
 433 -12 433 -12 280 -12 c 0,0,1
276 600 m 0,25,26
 202 600 202 600 202 662 c 2,27,-1
 202 683 l 2,28,29
 202 745 202 745 276 745 c 0,30,31
 351 745 351 745 351 683 c 2,32,-1
 351 662 l 2,33,34
 351 600 351 600 276 600 c 0,25,26
EndSplineSet
EndChar

StartChar: Ccaron
Encoding: 268 268 203
Width: 640
Flags: W
LayerCount: 2
Fore
SplineSet
352 -12 m 0,0,1
 212 -12 212 -12 132.5 80.5 c 128,-1,2
 53 173 53 173 53 347 c 0,3,4
 53 527 53 527 135.5 618.5 c 128,-1,5
 218 710 218 710 352 710 c 0,6,7
 532 710 532 710 605 550 c 1,8,-1
 498 493 l 1,9,10
 463 598 463 598 352 598 c 0,11,12
 269 598 269 598 228 544 c 128,-1,13
 187 490 187 490 187 403 c 2,14,-1
 187 295 l 2,15,16
 187 198 187 198 233 149 c 128,-1,17
 279 100 279 100 352 100 c 0,18,19
 467 100 467 100 505 212 c 1,20,-1
 607 152 l 1,21,22
 531 -12 531 -12 352 -12 c 0,0,1
406 756 m 1,23,-1
 291 756 l 1,24,-1
 167 909 l 1,25,-1
 229 956 l 1,26,-1
 348 841 l 1,27,-1
 468 956 l 1,28,-1
 530 909 l 1,29,-1
 406 756 l 1,23,-1
EndSplineSet
EndChar

StartChar: ccaron
Encoding: 269 269 204
Width: 512
Flags: W
LayerCount: 2
Fore
SplineSet
280 -12 m 0,0,1
 173 -12 173 -12 107 56 c 128,-1,2
 41 124 41 124 41 261 c 0,3,4
 41 341 41 341 68 402.5 c 128,-1,5
 95 464 95 464 148 499 c 128,-1,6
 201 534 201 534 280 534 c 0,7,8
 431 534 431 534 484 403 c 1,9,-1
 384 357 l 1,10,11
 362 434 362 434 280 434 c 0,12,13
 220 434 220 434 194.5 397 c 128,-1,14
 169 360 169 360 169 308 c 2,15,-1
 169 213 l 2,16,17
 169 159 169 159 194.5 123 c 128,-1,18
 220 87 220 87 280 87 c 0,19,20
 326 87 326 87 352 109 c 128,-1,21
 378 131 378 131 394 170 c 1,22,-1
 487 124 l 1,23,24
 433 -12 433 -12 280 -12 c 0,0,1
334 592 m 1,25,-1
 219 592 l 1,26,-1
 95 745 l 1,27,-1
 157 792 l 1,28,-1
 276 676 l 1,29,-1
 396 792 l 1,30,-1
 458 745 l 1,31,-1
 334 592 l 1,25,-1
EndSplineSet
EndChar

StartChar: Dcaron
Encoding: 270 270 205
Width: 688
Flags: W
LayerCount: 2
Fore
SplineSet
335 0 m 2,0,-1
 83 0 l 1,1,-1
 83 698 l 1,2,-1
 335 698 l 2,3,4
 478 698 478 698 556 605.5 c 128,-1,5
 634 513 634 513 634 349 c 0,6,7
 634 229 634 229 595 151.5 c 128,-1,8
 556 74 556 74 488 37 c 128,-1,9
 420 0 420 0 335 0 c 2,0,-1
335 112 m 2,10,11
 407 112 407 112 453.5 155 c 128,-1,12
 500 198 500 198 500 294 c 2,13,-1
 500 404 l 2,14,15
 500 497 500 497 454 541.5 c 128,-1,16
 408 586 408 586 335 586 c 2,17,-1
 209 586 l 1,18,-1
 209 112 l 1,19,-1
 335 112 l 2,10,11
374 756 m 1,20,-1
 260 756 l 1,21,-1
 136 909 l 1,22,-1
 197 956 l 1,23,-1
 317 841 l 1,24,-1
 437 956 l 1,25,-1
 498 909 l 1,26,-1
 374 756 l 1,20,-1
EndSplineSet
EndChar

StartChar: dcaron
Encoding: 271 271 206
Width: 651
Flags: W
LayerCount: 2
Fore
SplineSet
661 536 m 1,0,-1
 581 536 l 1,1,-1
 589 740 l 1,2,-1
 722 740 l 1,3,-1
 661 536 l 1,0,-1
251 -12 m 0,4,5
 145 -12 145 -12 95.5 62 c 128,-1,6
 46 136 46 136 46 261 c 256,7,8
 46 386 46 386 96 460 c 128,-1,9
 146 534 146 534 251 534 c 0,10,11
 300 534 300 534 339 509 c 128,-1,12
 378 484 378 484 395 435 c 1,13,-1
 400 435 l 1,14,-1
 400 740 l 1,15,-1
 522 740 l 1,16,-1
 522 0 l 1,17,-1
 400 0 l 1,18,-1
 400 87 l 1,19,-1
 395 87 l 1,20,21
 375 36 375 36 337 12 c 128,-1,22
 299 -12 299 -12 251 -12 c 0,4,5
289 91 m 0,23,24
 338 91 338 91 369 114 c 128,-1,25
 400 137 400 137 400 182 c 2,26,-1
 400 346 l 2,27,28
 400 388 400 388 366.5 409.5 c 128,-1,29
 333 431 333 431 289 431 c 0,30,31
 230 431 230 431 202 393.5 c 128,-1,32
 174 356 174 356 174 300 c 2,33,-1
 174 216 l 2,34,35
 174 162 174 162 203.5 126.5 c 128,-1,36
 233 91 233 91 289 91 c 0,23,24
EndSplineSet
EndChar

StartChar: Dcroat
Encoding: 272 272 207
Width: 692
Flags: W
LayerCount: 2
Fore
SplineSet
340 0 m 2,0,-1
 87 0 l 1,1,-1
 87 312 l 1,2,-1
 11 312 l 1,3,-1
 11 408 l 1,4,-1
 87 408 l 1,5,-1
 87 698 l 1,6,-1
 340 698 l 2,7,8
 482 698 482 698 560.5 606.5 c 128,-1,9
 639 515 639 515 639 349 c 0,10,11
 639 230 639 230 600 152.5 c 128,-1,12
 561 75 561 75 493 37.5 c 128,-1,13
 425 0 425 0 340 0 c 2,0,-1
340 112 m 2,14,15
 411 112 411 112 457.5 155 c 128,-1,16
 504 198 504 198 504 294 c 2,17,-1
 504 404 l 2,18,19
 504 498 504 498 458.5 542 c 128,-1,20
 413 586 413 586 340 586 c 2,21,-1
 213 586 l 1,22,-1
 213 408 l 1,23,-1
 340 408 l 1,24,-1
 340 312 l 1,25,-1
 213 312 l 1,26,-1
 213 112 l 1,27,-1
 340 112 l 2,14,15
EndSplineSet
EndChar

StartChar: dcroat
Encoding: 273 273 208
Width: 597
Flags: W
LayerCount: 2
Fore
SplineSet
251 -12 m 0,0,1
 146 -12 146 -12 96 62 c 128,-1,2
 46 136 46 136 46 261 c 256,3,4
 46 386 46 386 96 460 c 128,-1,5
 146 534 146 534 251 534 c 0,6,7
 299 534 299 534 338 509 c 128,-1,8
 377 484 377 484 395 435 c 1,9,-1
 400 435 l 1,10,-1
 400 597 l 1,11,-1
 256 597 l 1,12,-1
 256 683 l 1,13,-1
 400 683 l 1,14,-1
 400 740 l 1,15,-1
 522 740 l 1,16,-1
 522 683 l 1,17,-1
 585 683 l 1,18,-1
 585 597 l 1,19,-1
 522 597 l 1,20,-1
 522 0 l 1,21,-1
 400 0 l 1,22,-1
 400 87 l 1,23,-1
 395 87 l 1,24,25
 375 37 375 37 338 12.5 c 128,-1,26
 301 -12 301 -12 251 -12 c 0,0,1
289 91 m 0,27,28
 338 91 338 91 369 114 c 128,-1,29
 400 137 400 137 400 182 c 2,30,-1
 400 346 l 2,31,32
 400 388 400 388 366.5 409.5 c 128,-1,33
 333 431 333 431 289 431 c 0,34,35
 230 431 230 431 202 393.5 c 128,-1,36
 174 356 174 356 174 300 c 2,37,-1
 174 216 l 2,38,39
 174 162 174 162 203.5 126.5 c 128,-1,40
 233 91 233 91 289 91 c 0,27,28
EndSplineSet
EndChar

StartChar: Emacron
Encoding: 274 274 209
Width: 598
Flags: W
LayerCount: 2
Fore
SplineSet
539 0 m 1,0,-1
 83 0 l 1,1,-1
 83 698 l 1,2,-1
 539 698 l 1,3,-1
 539 586 l 1,4,-1
 209 586 l 1,5,-1
 209 409 l 1,6,-1
 503 409 l 1,7,-1
 503 298 l 1,8,-1
 209 298 l 1,9,-1
 209 112 l 1,10,-1
 539 112 l 1,11,-1
 539 0 l 1,0,-1
459 794 m 1,12,-1
 163 794 l 1,13,-1
 163 883 l 1,14,-1
 459 883 l 1,15,-1
 459 794 l 1,12,-1
EndSplineSet
EndChar

StartChar: emacron
Encoding: 275 275 210
Width: 558
Flags: W
LayerCount: 2
Fore
SplineSet
284 -12 m 0,0,1
 167 -12 167 -12 104 63 c 128,-1,2
 41 138 41 138 41 261 c 0,3,4
 41 340 41 340 68.5 402 c 128,-1,5
 96 464 96 464 150 499 c 128,-1,6
 204 534 204 534 282 534 c 0,7,8
 366 534 366 534 417.5 496.5 c 128,-1,9
 469 459 469 459 493 399 c 128,-1,10
 517 339 517 339 517 272 c 2,11,-1
 517 230 l 1,12,-1
 167 230 l 1,13,14
 167 194 167 194 173.5 169 c 128,-1,15
 180 144 180 144 200 123 c 0,16,17
 233 87 233 87 297 87 c 0,18,19
 384 87 384 87 431 160 c 1,20,-1
 499 87 l 1,21,22
 432 -12 432 -12 284 -12 c 0,0,1
390 307 m 1,23,-1
 390 316 l 2,24,25
 390 370 390 370 363 405.5 c 128,-1,26
 336 441 336 441 283 441 c 0,27,28
 223 441 223 441 195 402 c 128,-1,29
 167 363 167 363 167 307 c 1,30,-1
 390 307 l 1,23,-1
434 629 m 1,31,-1
 137 629 l 1,32,-1
 137 718 l 1,33,-1
 434 718 l 1,34,-1
 434 629 l 1,31,-1
EndSplineSet
EndChar

StartChar: Ebreve
Encoding: 276 276 211
Width: 598
Flags: W
LayerCount: 2
Fore
SplineSet
539 0 m 1,0,-1
 83 0 l 1,1,-1
 83 698 l 1,2,-1
 539 698 l 1,3,-1
 539 586 l 1,4,-1
 209 586 l 1,5,-1
 209 409 l 1,6,-1
 503 409 l 1,7,-1
 503 298 l 1,8,-1
 209 298 l 1,9,-1
 209 112 l 1,10,-1
 539 112 l 1,11,-1
 539 0 l 1,0,-1
310 750 m 0,12,13
 237 750 237 750 193 795 c 128,-1,14
 149 840 149 840 135 903 c 1,15,-1
 202 937 l 1,16,-1
 222 905 l 2,17,18
 238 873 238 873 258 855.5 c 128,-1,19
 278 838 278 838 310 838 c 256,20,21
 342 838 342 838 361 855 c 128,-1,22
 380 872 380 872 399 905 c 2,23,-1
 419 937 l 1,24,-1
 486 903 l 1,25,26
 439 750 439 750 310 750 c 0,12,13
EndSplineSet
EndChar

StartChar: ebreve
Encoding: 277 277 212
Width: 558
Flags: W
LayerCount: 2
Fore
SplineSet
284 -12 m 0,0,1
 167 -12 167 -12 104 63 c 128,-1,2
 41 138 41 138 41 261 c 0,3,4
 41 340 41 340 68.5 402 c 128,-1,5
 96 464 96 464 150 499 c 128,-1,6
 204 534 204 534 282 534 c 0,7,8
 366 534 366 534 417.5 496.5 c 128,-1,9
 469 459 469 459 493 399 c 128,-1,10
 517 339 517 339 517 272 c 2,11,-1
 517 230 l 1,12,-1
 167 230 l 1,13,14
 167 194 167 194 173.5 169 c 128,-1,15
 180 144 180 144 200 123 c 0,16,17
 233 87 233 87 297 87 c 0,18,19
 384 87 384 87 431 160 c 1,20,-1
 499 87 l 1,21,22
 432 -12 432 -12 284 -12 c 0,0,1
390 307 m 1,23,-1
 390 316 l 2,24,25
 390 370 390 370 363 405.5 c 128,-1,26
 336 441 336 441 283 441 c 0,27,28
 223 441 223 441 195 402 c 128,-1,29
 167 363 167 363 167 307 c 1,30,-1
 390 307 l 1,23,-1
285 586 m 0,31,32
 235 586 235 586 200 606.5 c 128,-1,33
 165 627 165 627 143 661.5 c 128,-1,34
 121 696 121 696 109 738 c 1,35,-1
 176 772 l 1,36,-1
 197 739 l 2,37,38
 213 709 213 709 233 691 c 128,-1,39
 253 673 253 673 285 673 c 0,40,41
 316 673 316 673 335 690 c 128,-1,42
 354 707 354 707 373 739 c 2,43,-1
 393 772 l 1,44,-1
 460 738 l 1,45,46
 415 586 415 586 285 586 c 0,31,32
EndSplineSet
EndChar

StartChar: Edot
Encoding: 278 278 213
Width: 598
Flags: W
LayerCount: 2
Fore
SplineSet
539 0 m 1,0,-1
 83 0 l 1,1,-1
 83 698 l 1,2,-1
 539 698 l 1,3,-1
 539 586 l 1,4,-1
 209 586 l 1,5,-1
 209 409 l 1,6,-1
 503 409 l 1,7,-1
 503 298 l 1,8,-1
 209 298 l 1,9,-1
 209 112 l 1,10,-1
 539 112 l 1,11,-1
 539 0 l 1,0,-1
311 763 m 256,12,13
 235 763 235 763 235 826 c 2,14,-1
 235 850 l 2,15,16
 235 913 235 913 311 913 c 256,17,18
 387 913 387 913 387 850 c 2,19,-1
 387 826 l 2,20,21
 387 763 387 763 311 763 c 256,12,13
EndSplineSet
EndChar

StartChar: edot
Encoding: 279 279 214
Width: 558
Flags: W
LayerCount: 2
Fore
SplineSet
284 -12 m 0,0,1
 167 -12 167 -12 104 63 c 128,-1,2
 41 138 41 138 41 261 c 0,3,4
 41 340 41 340 68.5 402 c 128,-1,5
 96 464 96 464 150 499 c 128,-1,6
 204 534 204 534 282 534 c 0,7,8
 366 534 366 534 417.5 496.5 c 128,-1,9
 469 459 469 459 493 399 c 128,-1,10
 517 339 517 339 517 272 c 2,11,-1
 517 230 l 1,12,-1
 167 230 l 1,13,14
 167 194 167 194 173.5 169 c 128,-1,15
 180 144 180 144 200 123 c 0,16,17
 233 87 233 87 297 87 c 0,18,19
 384 87 384 87 431 160 c 1,20,-1
 499 87 l 1,21,22
 432 -12 432 -12 284 -12 c 0,0,1
390 307 m 1,23,-1
 390 316 l 2,24,25
 390 370 390 370 363 405.5 c 128,-1,26
 336 441 336 441 283 441 c 0,27,28
 223 441 223 441 195 402 c 128,-1,29
 167 363 167 363 167 307 c 1,30,-1
 390 307 l 1,23,-1
285 600 m 0,31,32
 211 600 211 600 211 662 c 2,33,-1
 211 683 l 2,34,35
 211 745 211 745 285 745 c 0,36,37
 360 745 360 745 360 683 c 2,38,-1
 360 662 l 2,39,40
 360 600 360 600 285 600 c 0,31,32
EndSplineSet
EndChar

StartChar: Eogonek
Encoding: 280 280 215
Width: 598
Flags: W
LayerCount: 2
Fore
SplineSet
459 -210 m 0,0,1
 415 -210 415 -210 380.5 -192 c 128,-1,2
 346 -174 346 -174 346 -128 c 0,3,4
 346 -86 346 -86 376 -58 c 128,-1,5
 406 -30 406 -30 458 -5 c 1,6,-1
 457 0 l 1,7,-1
 83 0 l 1,8,-1
 83 698 l 1,9,-1
 539 698 l 1,10,-1
 539 586 l 1,11,-1
 209 586 l 1,12,-1
 209 409 l 1,13,-1
 503 409 l 1,14,-1
 503 298 l 1,15,-1
 209 298 l 1,16,-1
 209 112 l 1,17,-1
 539 112 l 1,18,-1
 539 0 l 1,19,20
 476 -45 476 -45 454 -68 c 128,-1,21
 432 -91 432 -91 432 -112 c 0,22,23
 432 -144 432 -144 468 -144 c 0,24,25
 499 -144 499 -144 520 -117 c 1,26,-1
 568 -164 l 1,27,28
 543 -210 543 -210 459 -210 c 0,0,1
EndSplineSet
EndChar

StartChar: eogonek
Encoding: 281 281 216
Width: 557
Flags: W
LayerCount: 2
Fore
SplineSet
343 -210 m 0,0,1
 298 -210 298 -210 265 -191.5 c 128,-1,2
 232 -173 232 -173 232 -129 c 256,3,4
 232 -85 232 -85 263.5 -57 c 128,-1,5
 295 -29 295 -29 341 -7 c 1,6,-1
 340 -3 l 1,7,8
 314 -12 314 -12 282 -12 c 0,9,10
 167 -12 167 -12 104 62.5 c 128,-1,11
 41 137 41 137 41 261 c 256,12,13
 41 385 41 385 104 459.5 c 128,-1,14
 167 534 167 534 281 534 c 0,15,16
 362 534 362 534 414 498 c 128,-1,17
 466 462 466 462 491.5 402.5 c 128,-1,18
 517 343 517 343 517 272 c 2,19,-1
 517 230 l 1,20,-1
 167 230 l 1,21,22
 167 195 167 195 173 170 c 128,-1,23
 179 145 179 145 199 123 c 0,24,25
 231 87 231 87 298 87 c 0,26,27
 384 87 384 87 432 159 c 1,28,-1
 499 87 l 1,29,30
 480 60 480 60 393 -10 c 0,31,32
 318 -70 318 -70 318 -112 c 0,33,34
 318 -144 318 -144 353 -144 c 0,35,36
 382 -144 382 -144 405 -117 c 1,37,-1
 452 -164 l 1,38,39
 426 -210 426 -210 343 -210 c 0,0,1
389 307 m 1,40,-1
 389 316 l 2,41,42
 389 369 389 369 362.5 405 c 128,-1,43
 336 441 336 441 282 441 c 0,44,45
 222 441 222 441 194.5 401.5 c 128,-1,46
 167 362 167 362 167 307 c 1,47,-1
 389 307 l 1,40,-1
EndSplineSet
EndChar

StartChar: Ecaron
Encoding: 282 282 217
Width: 598
Flags: W
LayerCount: 2
Fore
SplineSet
539 0 m 1,0,-1
 83 0 l 1,1,-1
 83 698 l 1,2,-1
 539 698 l 1,3,-1
 539 586 l 1,4,-1
 209 586 l 1,5,-1
 209 409 l 1,6,-1
 503 409 l 1,7,-1
 503 298 l 1,8,-1
 209 298 l 1,9,-1
 209 112 l 1,10,-1
 539 112 l 1,11,-1
 539 0 l 1,0,-1
368 756 m 1,12,-1
 254 756 l 1,13,-1
 130 909 l 1,14,-1
 191 956 l 1,15,-1
 311 841 l 1,16,-1
 431 956 l 1,17,-1
 492 909 l 1,18,-1
 368 756 l 1,12,-1
EndSplineSet
EndChar

StartChar: ecaron
Encoding: 283 283 218
Width: 558
Flags: W
LayerCount: 2
Fore
SplineSet
284 -12 m 0,0,1
 167 -12 167 -12 104 63 c 128,-1,2
 41 138 41 138 41 261 c 0,3,4
 41 340 41 340 68.5 402 c 128,-1,5
 96 464 96 464 150 499 c 128,-1,6
 204 534 204 534 282 534 c 0,7,8
 366 534 366 534 417.5 496.5 c 128,-1,9
 469 459 469 459 493 399 c 128,-1,10
 517 339 517 339 517 272 c 2,11,-1
 517 230 l 1,12,-1
 167 230 l 1,13,14
 167 194 167 194 173.5 169 c 128,-1,15
 180 144 180 144 200 123 c 0,16,17
 233 87 233 87 297 87 c 0,18,19
 384 87 384 87 431 160 c 1,20,-1
 499 87 l 1,21,22
 432 -12 432 -12 284 -12 c 0,0,1
390 307 m 1,23,-1
 390 316 l 2,24,25
 390 370 390 370 363 405.5 c 128,-1,26
 336 441 336 441 283 441 c 0,27,28
 223 441 223 441 195 402 c 128,-1,29
 167 363 167 363 167 307 c 1,30,-1
 390 307 l 1,23,-1
343 592 m 1,31,-1
 228 592 l 1,32,-1
 104 745 l 1,33,-1
 166 792 l 1,34,-1
 285 676 l 1,35,-1
 405 792 l 1,36,-1
 467 745 l 1,37,-1
 343 592 l 1,31,-1
EndSplineSet
EndChar

StartChar: Gcircumflex
Encoding: 284 284 219
Width: 710
Flags: W
LayerCount: 2
Fore
SplineSet
341 -12 m 0,0,1
 206 -12 206 -12 129.5 84.5 c 128,-1,2
 53 181 53 181 53 348 c 0,3,4
 53 516 53 516 135 613 c 128,-1,5
 217 710 217 710 362 710 c 0,6,7
 548 710 548 710 625 551 c 1,8,-1
 522 492 l 1,9,10
 481 598 481 598 362 598 c 0,11,12
 285 598 285 598 236.5 551 c 128,-1,13
 188 504 188 504 188 406 c 2,14,-1
 188 292 l 2,15,16
 188 193 188 193 237 146.5 c 128,-1,17
 286 100 286 100 362 100 c 0,18,19
 423 100 423 100 470.5 131.5 c 128,-1,20
 518 163 518 163 518 223 c 2,21,-1
 518 271 l 1,22,-1
 378 271 l 1,23,-1
 378 378 l 1,24,-1
 639 378 l 1,25,-1
 639 0 l 1,26,-1
 530 0 l 1,27,-1
 530 108 l 1,28,-1
 526 108 l 1,29,30
 516 56 516 56 470 22 c 128,-1,31
 424 -12 424 -12 341 -12 c 0,0,1
477 748 m 1,32,-1
 357 863 l 1,33,-1
 238 748 l 1,34,-1
 176 795 l 1,35,-1
 300 948 l 1,36,-1
 415 948 l 1,37,-1
 539 795 l 1,38,-1
 477 748 l 1,32,-1
EndSplineSet
EndChar

StartChar: Gbreve
Encoding: 286 286 221
Width: 710
Flags: W
LayerCount: 2
Fore
SplineSet
341 -12 m 0,0,1
 206 -12 206 -12 129.5 84.5 c 128,-1,2
 53 181 53 181 53 348 c 0,3,4
 53 516 53 516 135 613 c 128,-1,5
 217 710 217 710 362 710 c 0,6,7
 548 710 548 710 625 551 c 1,8,-1
 522 492 l 1,9,10
 481 598 481 598 362 598 c 0,11,12
 285 598 285 598 236.5 551 c 128,-1,13
 188 504 188 504 188 406 c 2,14,-1
 188 292 l 2,15,16
 188 193 188 193 237 146.5 c 128,-1,17
 286 100 286 100 362 100 c 0,18,19
 423 100 423 100 470.5 131.5 c 128,-1,20
 518 163 518 163 518 223 c 2,21,-1
 518 271 l 1,22,-1
 378 271 l 1,23,-1
 378 378 l 1,24,-1
 639 378 l 1,25,-1
 639 0 l 1,26,-1
 530 0 l 1,27,-1
 530 108 l 1,28,-1
 526 108 l 1,29,30
 516 56 516 56 470 22 c 128,-1,31
 424 -12 424 -12 341 -12 c 0,0,1
357 750 m 0,32,33
 307 750 307 750 271.5 771.5 c 128,-1,34
 236 793 236 793 213.5 827.5 c 128,-1,35
 191 862 191 862 181 903 c 1,36,-1
 248 937 l 1,37,-1
 268 905 l 2,38,39
 284 873 284 873 304.5 855.5 c 128,-1,40
 325 838 325 838 357 838 c 0,41,42
 388 838 388 838 407 855 c 128,-1,43
 426 872 426 872 446 905 c 2,44,-1
 465 937 l 1,45,-1
 532 903 l 1,46,47
 487 750 487 750 357 750 c 0,32,33
EndSplineSet
EndChar

StartChar: Gdot
Encoding: 288 288 223
Width: 710
Flags: W
LayerCount: 2
Fore
SplineSet
341 -12 m 0,0,1
 206 -12 206 -12 129.5 84.5 c 128,-1,2
 53 181 53 181 53 348 c 0,3,4
 53 516 53 516 135 613 c 128,-1,5
 217 710 217 710 362 710 c 0,6,7
 548 710 548 710 625 551 c 1,8,-1
 522 492 l 1,9,10
 481 598 481 598 362 598 c 0,11,12
 285 598 285 598 236.5 551 c 128,-1,13
 188 504 188 504 188 406 c 2,14,-1
 188 292 l 2,15,16
 188 193 188 193 237 146.5 c 128,-1,17
 286 100 286 100 362 100 c 0,18,19
 423 100 423 100 470.5 131.5 c 128,-1,20
 518 163 518 163 518 223 c 2,21,-1
 518 271 l 1,22,-1
 378 271 l 1,23,-1
 378 378 l 1,24,-1
 639 378 l 1,25,-1
 639 0 l 1,26,-1
 530 0 l 1,27,-1
 530 108 l 1,28,-1
 526 108 l 1,29,30
 516 56 516 56 470 22 c 128,-1,31
 424 -12 424 -12 341 -12 c 0,0,1
357 763 m 0,32,33
 281 763 281 763 281 826 c 2,34,-1
 281 850 l 2,35,36
 281 913 281 913 357 913 c 0,37,38
 434 913 434 913 434 850 c 2,39,-1
 434 826 l 2,40,41
 434 763 434 763 357 763 c 0,32,33
EndSplineSet
EndChar

StartChar: Gcedilla
Encoding: 290 290 225
Width: 710
Flags: W
LayerCount: 2
Fore
SplineSet
341 -12 m 0,0,1
 206 -12 206 -12 129.5 84.5 c 128,-1,2
 53 181 53 181 53 348 c 0,3,4
 53 516 53 516 135 613 c 128,-1,5
 217 710 217 710 362 710 c 0,6,7
 548 710 548 710 625 551 c 1,8,-1
 522 492 l 1,9,10
 481 598 481 598 362 598 c 0,11,12
 285 598 285 598 236.5 551 c 128,-1,13
 188 504 188 504 188 406 c 2,14,-1
 188 292 l 2,15,16
 188 193 188 193 237 146.5 c 128,-1,17
 286 100 286 100 362 100 c 0,18,19
 423 100 423 100 470.5 131.5 c 128,-1,20
 518 163 518 163 518 223 c 2,21,-1
 518 271 l 1,22,-1
 378 271 l 1,23,-1
 378 378 l 1,24,-1
 639 378 l 1,25,-1
 639 0 l 1,26,-1
 530 0 l 1,27,-1
 530 108 l 1,28,-1
 526 108 l 1,29,30
 516 56 516 56 470 22 c 128,-1,31
 424 -12 424 -12 341 -12 c 0,0,1
346 -264 m 1,32,-1
 272 -264 l 1,33,34
 317 -223 317 -223 329 -173 c 1,35,36
 303 -169 303 -169 294 -152 c 128,-1,37
 285 -135 285 -135 285 -111 c 0,38,39
 287 -51 287 -51 348 -51 c 0,40,41
 411 -53 411 -53 411 -107 c 0,42,43
 411 -134 411 -134 408 -154.5 c 128,-1,44
 405 -175 405 -175 393 -199 c 0,45,46
 375 -238 375 -238 346 -264 c 1,32,-1
EndSplineSet
EndChar

StartChar: Hcircumflex
Encoding: 292 292 227
Width: 717
Flags: W
LayerCount: 2
Fore
SplineSet
634 0 m 1,0,-1
 508 0 l 1,1,-1
 508 298 l 1,2,-1
 209 298 l 1,3,-1
 209 0 l 1,4,-1
 83 0 l 1,5,-1
 83 698 l 1,6,-1
 209 698 l 1,7,-1
 209 409 l 1,8,-1
 508 409 l 1,9,-1
 508 698 l 1,10,-1
 634 698 l 1,11,-1
 634 0 l 1,0,-1
478 748 m 1,12,-1
 359 863 l 1,13,-1
 239 748 l 1,14,-1
 177 795 l 1,15,-1
 301 948 l 1,16,-1
 416 948 l 1,17,-1
 540 795 l 1,18,-1
 478 748 l 1,12,-1
EndSplineSet
EndChar

StartChar: hcircumflex
Encoding: 293 293 228
Width: 585
Flags: W
LayerCount: 2
Fore
SplineSet
516 0 m 1,0,-1
 394 0 l 1,1,-1
 394 317 l 2,2,3
 394 376 394 376 371.5 403.5 c 128,-1,4
 349 431 349 431 304 431 c 0,5,6
 263 431 263 431 230 409.5 c 128,-1,7
 197 388 197 388 197 346 c 2,8,-1
 197 0 l 1,9,-1
 75 0 l 1,10,-1
 75 740 l 1,11,-1
 197 740 l 1,12,-1
 197 435 l 1,13,-1
 202 435 l 1,14,15
 237 534 237 534 348 534 c 0,16,17
 432 534 432 534 474 478.5 c 128,-1,18
 516 423 516 423 516 330 c 2,19,-1
 516 0 l 1,0,-1
258 741 m 1,20,-1
 138 857 l 1,21,-1
 18 741 l 1,22,-1
 -43 789 l 1,23,-1
 81 942 l 1,24,-1
 195 942 l 1,25,-1
 319 789 l 1,26,-1
 258 741 l 1,20,-1
EndSplineSet
EndChar

StartChar: Hbar
Encoding: 294 294 229
Width: 726
Flags: W
LayerCount: 2
Fore
SplineSet
639 0 m 1,0,-1
 513 0 l 1,1,-1
 513 298 l 1,2,-1
 213 298 l 1,3,-1
 213 0 l 1,4,-1
 87 0 l 1,5,-1
 87 511 l 1,6,-1
 15 511 l 1,7,-1
 15 605 l 1,8,-1
 87 605 l 1,9,-1
 87 698 l 1,10,-1
 213 698 l 1,11,-1
 213 605 l 1,12,-1
 513 605 l 1,13,-1
 513 698 l 1,14,-1
 639 698 l 1,15,-1
 639 605 l 1,16,-1
 711 605 l 1,17,-1
 711 511 l 1,18,-1
 639 511 l 1,19,-1
 639 0 l 1,0,-1
513 409 m 1,20,-1
 513 511 l 1,21,-1
 213 511 l 1,22,-1
 213 409 l 1,23,-1
 513 409 l 1,20,-1
EndSplineSet
EndChar

StartChar: hbar
Encoding: 295 295 230
Width: 585
Flags: W
LayerCount: 2
Fore
SplineSet
516 0 m 1,0,-1
 394 0 l 1,1,-1
 394 317 l 2,2,3
 394 376 394 376 371.5 403.5 c 128,-1,4
 349 431 349 431 304 431 c 0,5,6
 263 431 263 431 230 409.5 c 128,-1,7
 197 388 197 388 197 346 c 2,8,-1
 197 0 l 1,9,-1
 75 0 l 1,10,-1
 75 597 l 1,11,-1
 12 597 l 1,12,-1
 12 683 l 1,13,-1
 75 683 l 1,14,-1
 75 740 l 1,15,-1
 197 740 l 1,16,-1
 197 683 l 1,17,-1
 341 683 l 1,18,-1
 341 597 l 1,19,-1
 197 597 l 1,20,-1
 197 435 l 1,21,-1
 202 435 l 1,22,23
 237 534 237 534 348 534 c 0,24,25
 432 534 432 534 474 478.5 c 128,-1,26
 516 423 516 423 516 330 c 2,27,-1
 516 0 l 1,0,-1
EndSplineSet
EndChar

StartChar: itilde
Encoding: 297 297 232
Width: 272
Flags: W
LayerCount: 2
Fore
SplineSet
197 0 m 1,0,-1
 75 0 l 1,1,-1
 75 522 l 1,2,-1
 197 522 l 1,3,-1
 197 0 l 1,0,-1
212 605 m 0,4,5
 192 605 192 605 177 610 c 128,-1,6
 162 615 162 615 149 621.5 c 128,-1,7
 136 628 136 628 122 633 c 0,8,9
 87 651 87 651 59 651 c 0,10,11
 41 651 41 651 28 644 c 128,-1,12
 15 637 15 637 1 625 c 1,13,-1
 -44 682 l 1,14,15
 -7 742 -7 742 63 742 c 0,16,17
 83 742 83 742 98.5 736.5 c 128,-1,18
 114 731 114 731 127 725 c 128,-1,19
 140 719 140 719 153 714 c 0,20,21
 187 696 187 696 216 696 c 0,22,23
 247 696 247 696 274 722 c 1,24,-1
 319 665 l 1,25,26
 281 605 281 605 212 605 c 0,4,5
EndSplineSet
EndChar

StartChar: imacron
Encoding: 299 299 234
Width: 272
Flags: W
LayerCount: 2
Fore
SplineSet
197 0 m 1,0,-1
 75 0 l 1,1,-1
 75 522 l 1,2,-1
 197 522 l 1,3,-1
 197 0 l 1,0,-1
286 629 m 1,4,-1
 -11 629 l 1,5,-1
 -11 718 l 1,6,-1
 286 718 l 1,7,-1
 286 629 l 1,4,-1
EndSplineSet
EndChar

StartChar: ibreve
Encoding: 301 301 236
Width: 272
Flags: W
LayerCount: 2
Fore
SplineSet
197 0 m 1,0,-1
 75 0 l 1,1,-1
 75 522 l 1,2,-1
 197 522 l 1,3,-1
 197 0 l 1,0,-1
137 586 m 0,4,5
 63 586 63 586 21.5 629 c 128,-1,6
 -20 672 -20 672 -39 738 c 1,7,-1
 28 772 l 1,8,-1
 49 739 l 2,9,10
 65 709 65 709 85 691 c 128,-1,11
 105 673 105 673 137 673 c 0,12,13
 168 673 168 673 187 690 c 128,-1,14
 206 707 206 707 225 739 c 2,15,-1
 245 772 l 1,16,-1
 312 738 l 1,17,18
 267 586 267 586 137 586 c 0,4,5
EndSplineSet
EndChar

StartChar: Iogonek
Encoding: 302 302 237
Width: 292
Flags: W
LayerCount: 2
Fore
SplineSet
128 -210 m 0,0,1
 84 -210 84 -210 49.5 -192.5 c 128,-1,2
 15 -175 15 -175 15 -128 c 0,3,4
 15 -88 15 -88 43 -59.5 c 128,-1,5
 71 -31 71 -31 127 -5 c 1,6,-1
 126 0 l 1,7,-1
 83 0 l 1,8,-1
 83 698 l 1,9,-1
 209 698 l 1,10,-1
 209 0 l 1,11,12
 144 -45 144 -45 122.5 -68 c 128,-1,13
 101 -91 101 -91 101 -112 c 0,14,15
 101 -144 101 -144 136 -144 c 0,16,17
 166 -144 166 -144 189 -117 c 1,18,-1
 237 -164 l 1,19,20
 212 -210 212 -210 128 -210 c 0,0,1
EndSplineSet
EndChar

StartChar: iogonek
Encoding: 303 303 238
Width: 272
Flags: W
LayerCount: 2
Fore
SplineSet
116 -210 m 0,0,1
 72 -210 72 -210 37.5 -192.5 c 128,-1,2
 3 -175 3 -175 3 -128 c 0,3,4
 3 -86 3 -86 34 -58 c 128,-1,5
 65 -30 65 -30 115 -4 c 1,6,-1
 114 0 l 1,7,-1
 75 0 l 1,8,-1
 75 522 l 1,9,-1
 197 522 l 1,10,-1
 197 0 l 1,11,12
 132 -45 132 -45 110.5 -68 c 128,-1,13
 89 -91 89 -91 89 -112 c 0,14,15
 89 -144 89 -144 124 -144 c 0,16,17
 154 -144 154 -144 177 -117 c 1,18,-1
 225 -164 l 1,19,20
 200 -210 200 -210 116 -210 c 0,0,1
136 602 m 256,21,22
 64 602 64 602 64 665 c 2,23,-1
 64 683 l 2,24,25
 64 709 64 709 80.5 727.5 c 128,-1,26
 97 746 97 746 136 746 c 256,27,28
 175 746 175 746 191.5 727.5 c 128,-1,29
 208 709 208 709 208 683 c 2,30,-1
 208 665 l 2,31,32
 208 602 208 602 136 602 c 256,21,22
EndSplineSet
EndChar

StartChar: dotlessi
Encoding: 305 305 240
Width: 272
Flags: W
LayerCount: 2
Fore
SplineSet
197 0 m 1,0,-1
 75 0 l 1,1,-1
 75 522 l 1,2,-1
 197 522 l 1,3,-1
 197 0 l 1,0,-1
EndSplineSet
EndChar

StartChar: ij
Encoding: 307 307 242
Width: 539
Flags: W
LayerCount: 2
Fore
SplineSet
136 602 m 256,0,1
 64 602 64 602 64 665 c 2,2,-1
 64 683 l 2,3,4
 64 709 64 709 80.5 727.5 c 128,-1,5
 97 746 97 746 136 746 c 256,6,7
 175 746 175 746 191.5 727.5 c 128,-1,8
 208 709 208 709 208 683 c 2,9,-1
 208 665 l 2,10,11
 208 602 208 602 136 602 c 256,0,1
197 0 m 1,12,-1
 75 0 l 1,13,-1
 75 522 l 1,14,-1
 197 522 l 1,15,-1
 197 0 l 1,12,-1
330 -200 m 2,16,-1
 262 -200 l 1,17,-1
 262 -102 l 1,18,-1
 342 -102 l 1,19,-1
 342 522 l 1,20,-1
 464 522 l 1,21,-1
 464 -65 l 2,22,23
 464 -200 464 -200 330 -200 c 2,16,-1
404 602 m 0,24,25
 332 602 332 602 332 665 c 2,26,-1
 332 683 l 2,27,28
 332 709 332 709 348.5 727.5 c 128,-1,29
 365 746 365 746 404 746 c 256,30,31
 443 746 443 746 459 727.5 c 128,-1,32
 475 709 475 709 475 683 c 2,33,-1
 475 665 l 2,34,35
 475 636 475 636 458 619 c 128,-1,36
 441 602 441 602 404 602 c 0,24,25
EndSplineSet
EndChar

StartChar: Jcircumflex
Encoding: 308 308 243
Width: 540
Flags: W
LayerCount: 2
Fore
SplineSet
243 -12 m 0,0,1
 176 -12 176 -12 131.5 12 c 128,-1,2
 87 36 87 36 61 77 c 128,-1,3
 35 118 35 118 26 170 c 1,4,-1
 143 195 l 1,5,6
 161 100 161 100 243 100 c 0,7,8
 335 100 335 100 335 216 c 2,9,-1
 335 698 l 1,10,-1
 461 698 l 1,11,-1
 461 194 l 2,12,13
 461 100 461 100 401.5 44 c 128,-1,14
 342 -12 342 -12 243 -12 c 0,0,1
408 748 m 1,15,-1
 288 863 l 1,16,-1
 169 748 l 1,17,-1
 107 795 l 1,18,-1
 231 948 l 1,19,-1
 346 948 l 1,20,-1
 470 795 l 1,21,-1
 408 748 l 1,15,-1
EndSplineSet
EndChar

StartChar: jcircumflex
Encoding: 309 309 244
Width: 272
Flags: W
LayerCount: 2
Fore
SplineSet
63 -200 m 2,0,-1
 -5 -200 l 1,1,-1
 -5 -102 l 1,2,-1
 75 -102 l 1,3,-1
 75 522 l 1,4,-1
 197 522 l 1,5,-1
 197 -65 l 2,6,7
 197 -200 197 -200 63 -200 c 2,0,-1
257 583 m 1,8,-1
 137 699 l 1,9,-1
 18 583 l 1,10,-1
 -44 631 l 1,11,-1
 80 784 l 1,12,-1
 195 784 l 1,13,-1
 319 631 l 1,14,-1
 257 583 l 1,8,-1
EndSplineSet
EndChar

StartChar: Kcedilla
Encoding: 310 310 245
Width: 672
Flags: W
LayerCount: 2
Fore
SplineSet
657 0 m 1,0,-1
 506 0 l 1,1,-1
 303 319 l 1,2,-1
 209 209 l 1,3,-1
 209 0 l 1,4,-1
 83 0 l 1,5,-1
 83 698 l 1,6,-1
 209 698 l 1,7,-1
 209 351 l 1,8,-1
 214 351 l 1,9,-1
 334 507 l 2,10,11
 379 563 379 563 426 619 c 2,12,-1
 491 698 l 1,13,-1
 636 698 l 1,14,-1
 392 406 l 1,15,-1
 657 0 l 1,0,-1
351 -264 m 1,16,-1
 277 -264 l 1,17,18
 322 -223 322 -223 334 -173 c 1,19,20
 307 -169 307 -169 298.5 -152 c 128,-1,21
 290 -135 290 -135 290 -111 c 0,22,23
 291 -51 291 -51 353 -51 c 0,24,25
 415 -53 415 -53 415 -107 c 0,26,27
 415 -134 415 -134 412 -154.5 c 128,-1,28
 409 -175 409 -175 398 -199 c 0,29,30
 380 -238 380 -238 351 -264 c 1,16,-1
EndSplineSet
EndChar

StartChar: kcedilla
Encoding: 311 311 246
Width: 557
Flags: W
LayerCount: 2
Fore
SplineSet
551 0 m 1,0,-1
 406 0 l 1,1,-1
 267 239 l 1,2,-1
 197 163 l 1,3,-1
 197 0 l 1,4,-1
 75 0 l 1,5,-1
 75 740 l 1,6,-1
 197 740 l 1,7,-1
 197 292 l 1,8,-1
 202 292 l 1,9,-1
 272 386 l 1,10,-1
 390 522 l 1,11,-1
 530 522 l 1,12,-1
 350 321 l 1,13,-1
 551 0 l 1,0,-1
309 -264 m 1,14,-1
 235 -264 l 1,15,16
 280 -223 280 -223 292 -173 c 1,17,18
 264 -169 264 -169 256 -150.5 c 128,-1,19
 248 -132 248 -132 248 -107 c 0,20,21
 250 -51 250 -51 311 -51 c 0,22,23
 374 -51 374 -51 374 -107 c 0,24,25
 374 -134 374 -134 371 -154.5 c 128,-1,26
 368 -175 368 -175 356 -199 c 0,27,28
 338 -238 338 -238 309 -264 c 1,14,-1
EndSplineSet
EndChar

StartChar: kgreenlandic
Encoding: 312 312 247
Width: 557
Flags: W
LayerCount: 2
Fore
SplineSet
551 0 m 1,0,-1
 407 0 l 1,1,-1
 267 236 l 1,2,-1
 197 163 l 1,3,-1
 197 0 l 1,4,-1
 75 0 l 1,5,-1
 75 522 l 1,6,-1
 197 522 l 1,7,-1
 197 292 l 1,8,-1
 202 292 l 1,9,-1
 275 383 l 1,10,-1
 402 522 l 1,11,-1
 542 522 l 1,12,-1
 352 318 l 1,13,-1
 551 0 l 1,0,-1
EndSplineSet
EndChar

StartChar: Lacute
Encoding: 313 313 248
Width: 519
Flags: W
LayerCount: 2
Fore
SplineSet
487 0 m 1,0,-1
 83 0 l 1,1,-1
 83 698 l 1,2,-1
 209 698 l 1,3,-1
 209 112 l 1,4,-1
 487 112 l 1,5,-1
 487 0 l 1,0,-1
160 746 m 1,6,-1
 85 782 l 1,7,-1
 179 966 l 1,8,-1
 283 915 l 1,9,-1
 160 746 l 1,6,-1
EndSplineSet
EndChar

StartChar: lacute
Encoding: 314 314 249
Width: 291
Flags: W
LayerCount: 2
Fore
SplineSet
150 781 m 1,0,-1
 75 817 l 1,1,-1
 169 1002 l 1,2,-1
 273 951 l 1,3,-1
 150 781 l 1,0,-1
267 0 m 1,4,-1
 198 0 l 2,5,6
 75 0 75 0 75 120 c 2,7,-1
 75 740 l 1,8,-1
 197 740 l 1,9,-1
 197 98 l 1,10,-1
 267 98 l 1,11,-1
 267 0 l 1,4,-1
EndSplineSet
EndChar

StartChar: Lcedilla
Encoding: 315 315 250
Width: 519
Flags: W
LayerCount: 2
Fore
SplineSet
487 0 m 1,0,-1
 83 0 l 1,1,-1
 83 698 l 1,2,-1
 209 698 l 1,3,-1
 209 112 l 1,4,-1
 487 112 l 1,5,-1
 487 0 l 1,0,-1
288 -264 m 1,6,-1
 214 -264 l 1,7,8
 259 -223 259 -223 271 -173 c 1,9,10
 243 -169 243 -169 235 -150.5 c 128,-1,11
 227 -132 227 -132 227 -107 c 0,12,13
 229 -51 229 -51 290 -51 c 0,14,15
 352 -51 352 -51 352 -107 c 0,16,17
 352 -134 352 -134 349 -154.5 c 128,-1,18
 346 -175 346 -175 335 -199 c 0,19,20
 317 -238 317 -238 288 -264 c 1,6,-1
EndSplineSet
EndChar

StartChar: lcedilla
Encoding: 316 316 251
Width: 291
Flags: W
LayerCount: 2
Fore
SplineSet
267 0 m 1,0,-1
 198 0 l 2,1,2
 75 0 75 0 75 120 c 2,3,-1
 75 740 l 1,4,-1
 197 740 l 1,5,-1
 197 98 l 1,6,-1
 267 98 l 1,7,-1
 267 0 l 1,0,-1
168 -264 m 1,8,-1
 94 -264 l 1,9,10
 139 -223 139 -223 151 -173 c 1,11,12
 123 -169 123 -169 115 -150.5 c 128,-1,13
 107 -132 107 -132 107 -107 c 0,14,15
 109 -51 109 -51 170 -51 c 0,16,17
 233 -51 233 -51 233 -107 c 0,18,19
 233 -134 233 -134 230 -155 c 128,-1,20
 227 -176 227 -176 215 -200 c 0,21,22
 197 -238 197 -238 168 -264 c 1,8,-1
EndSplineSet
EndChar

StartChar: Lcaron
Encoding: 317 317 252
Width: 519
Flags: W
LayerCount: 2
Fore
SplineSet
487 0 m 1,0,-1
 83 0 l 1,1,-1
 83 698 l 1,2,-1
 209 698 l 1,3,-1
 209 112 l 1,4,-1
 487 112 l 1,5,-1
 487 0 l 1,0,-1
364 536 m 1,6,-1
 284 536 l 1,7,-1
 292 740 l 1,8,-1
 425 740 l 1,9,-1
 364 536 l 1,6,-1
EndSplineSet
EndChar

StartChar: lcaron
Encoding: 318 318 253
Width: 327
Flags: W
LayerCount: 2
Fore
SplineSet
336 536 m 1,0,-1
 255 536 l 1,1,-1
 264 740 l 1,2,-1
 396 740 l 1,3,-1
 336 536 l 1,0,-1
267 0 m 1,4,-1
 198 0 l 2,5,6
 75 0 75 0 75 120 c 2,7,-1
 75 740 l 1,8,-1
 197 740 l 1,9,-1
 197 98 l 1,10,-1
 267 98 l 1,11,-1
 267 0 l 1,4,-1
EndSplineSet
EndChar

StartChar: Ldot
Encoding: 319 319 254
Width: 519
Flags: W
LayerCount: 2
Fore
SplineSet
487 0 m 1,0,-1
 83 0 l 1,1,-1
 83 698 l 1,2,-1
 209 698 l 1,3,-1
 209 112 l 1,4,-1
 487 112 l 1,5,-1
 487 0 l 1,0,-1
403 311 m 0,6,7
 329 311 329 311 329 373 c 2,8,-1
 329 394 l 2,9,10
 329 456 329 456 403 456 c 0,11,12
 478 456 478 456 478 394 c 2,13,-1
 478 373 l 2,14,15
 478 311 478 311 403 311 c 0,6,7
EndSplineSet
EndChar

StartChar: ldot
Encoding: 320 320 255
Width: 413
Flags: W
LayerCount: 2
Fore
SplineSet
341 267 m 256,0,1
 267 267 267 267 267 328 c 2,2,-1
 267 350 l 2,3,4
 267 411 267 411 341 411 c 256,5,6
 415 411 415 411 415 350 c 2,7,-1
 415 328 l 2,8,9
 415 267 415 267 341 267 c 256,0,1
267 0 m 1,10,-1
 198 0 l 2,11,12
 75 0 75 0 75 120 c 2,13,-1
 75 740 l 1,14,-1
 197 740 l 1,15,-1
 197 98 l 1,16,-1
 267 98 l 1,17,-1
 267 0 l 1,10,-1
EndSplineSet
EndChar

StartChar: Lslash
Encoding: 321 321 256
Width: 528
Flags: W
LayerCount: 2
Fore
SplineSet
491 0 m 1,0,-1
 87 0 l 1,1,-1
 87 254 l 1,2,-1
 -7 223 l 1,3,-1
 -7 318 l 1,4,-1
 87 349 l 1,5,-1
 87 698 l 1,6,-1
 213 698 l 1,7,-1
 213 390 l 1,8,-1
 380 445 l 1,9,-1
 380 348 l 1,10,-1
 213 294 l 1,11,-1
 213 112 l 1,12,-1
 491 112 l 1,13,-1
 491 0 l 1,0,-1
EndSplineSet
EndChar

StartChar: lslash
Encoding: 322 322 257
Width: 299
Flags: W
LayerCount: 2
Fore
SplineSet
272 0 m 1,0,-1
 203 0 l 2,1,2
 151 0 151 0 124.5 18.5 c 128,-1,3
 98 37 98 37 89 71.5 c 128,-1,4
 80 106 80 106 80 154 c 2,5,-1
 80 306 l 1,6,-1
 5 282 l 1,7,-1
 5 376 l 1,8,-1
 80 400 l 1,9,-1
 80 740 l 1,10,-1
 202 740 l 1,11,-1
 202 440 l 1,12,-1
 305 474 l 1,13,-1
 305 380 l 1,14,-1
 202 346 l 1,15,-1
 202 98 l 1,16,-1
 272 98 l 1,17,-1
 272 0 l 1,0,-1
EndSplineSet
EndChar

StartChar: Nacute
Encoding: 323 323 258
Width: 717
Flags: W
LayerCount: 2
Fore
SplineSet
634 0 m 1,0,-1
 495 0 l 1,1,-1
 279 367 l 1,2,-1
 206 513 l 1,3,-1
 203 513 l 1,4,-1
 203 0 l 1,5,-1
 83 0 l 1,6,-1
 83 698 l 1,7,-1
 222 698 l 1,8,-1
 438 331 l 1,9,-1
 512 185 l 1,10,-1
 515 185 l 1,11,-1
 515 698 l 1,12,-1
 634 698 l 1,13,-1
 634 0 l 1,0,-1
371 746 m 1,14,-1
 296 782 l 1,15,-1
 390 966 l 1,16,-1
 494 915 l 1,17,-1
 371 746 l 1,14,-1
EndSplineSet
EndChar

StartChar: nacute
Encoding: 324 324 259
Width: 585
Flags: W
LayerCount: 2
Fore
SplineSet
516 0 m 1,0,-1
 394 0 l 1,1,-1
 394 316 l 2,2,3
 394 431 394 431 307 431 c 0,4,5
 265 431 265 431 231 410 c 128,-1,6
 197 389 197 389 197 345 c 2,7,-1
 197 0 l 1,8,-1
 75 0 l 1,9,-1
 75 522 l 1,10,-1
 197 522 l 1,11,-1
 197 435 l 1,12,-1
 202 435 l 1,13,14
 238 534 238 534 348 534 c 0,15,16
 432 534 432 534 474 478.5 c 128,-1,17
 516 423 516 423 516 330 c 2,18,-1
 516 0 l 1,0,-1
309 581 m 1,19,-1
 234 617 l 1,20,-1
 328 802 l 1,21,-1
 432 751 l 1,22,-1
 309 581 l 1,19,-1
EndSplineSet
EndChar

StartChar: Ncedilla
Encoding: 325 325 260
Width: 717
Flags: W
LayerCount: 2
Fore
SplineSet
634 0 m 1,0,-1
 495 0 l 1,1,-1
 310 316 l 1,2,-1
 272 384 l 2,3,4
 258 409 258 409 243 440 c 2,5,-1
 206 513 l 1,6,-1
 203 513 l 1,7,-1
 203 0 l 1,8,-1
 83 0 l 1,9,-1
 83 698 l 1,10,-1
 222 698 l 1,11,-1
 407 382 l 1,12,-1
 448 309 l 1,13,-1
 512 185 l 1,14,-1
 515 185 l 1,15,-1
 515 698 l 1,16,-1
 634 698 l 1,17,-1
 634 0 l 1,0,-1
356 -264 m 1,18,-1
 281 -264 l 1,19,20
 325 -226 325 -226 339 -173 c 1,21,22
 312 -169 312 -169 303.5 -152 c 128,-1,23
 295 -135 295 -135 295 -111 c 0,24,25
 295 -51 295 -51 357 -51 c 0,26,27
 420 -53 420 -53 420 -107 c 0,28,29
 420 -134 420 -134 417 -154.5 c 128,-1,30
 414 -175 414 -175 403 -199 c 0,31,32
 385 -238 385 -238 356 -264 c 1,18,-1
EndSplineSet
EndChar

StartChar: ncedilla
Encoding: 326 326 261
Width: 585
Flags: W
LayerCount: 2
Fore
SplineSet
516 0 m 1,0,-1
 394 0 l 1,1,-1
 394 316 l 2,2,3
 394 431 394 431 307 431 c 0,4,5
 265 431 265 431 231 410 c 128,-1,6
 197 389 197 389 197 345 c 2,7,-1
 197 0 l 1,8,-1
 75 0 l 1,9,-1
 75 522 l 1,10,-1
 197 522 l 1,11,-1
 197 435 l 1,12,-1
 202 435 l 1,13,14
 238 534 238 534 348 534 c 0,15,16
 432 534 432 534 474 478.5 c 128,-1,17
 516 423 516 423 516 330 c 2,18,-1
 516 0 l 1,0,-1
293 -264 m 1,19,-1
 219 -264 l 1,20,21
 264 -223 264 -223 276 -173 c 1,22,23
 248 -169 248 -169 240 -150.5 c 128,-1,24
 232 -132 232 -132 232 -107 c 0,25,26
 234 -51 234 -51 295 -51 c 0,27,28
 358 -51 358 -51 358 -107 c 0,29,30
 358 -134 358 -134 355 -154.5 c 128,-1,31
 352 -175 352 -175 340 -199 c 0,32,33
 322 -238 322 -238 293 -264 c 1,19,-1
EndSplineSet
EndChar

StartChar: Ncaron
Encoding: 327 327 262
Width: 717
Flags: W
LayerCount: 2
Fore
SplineSet
634 0 m 1,0,-1
 495 0 l 1,1,-1
 279 367 l 1,2,-1
 206 513 l 1,3,-1
 203 513 l 1,4,-1
 203 0 l 1,5,-1
 83 0 l 1,6,-1
 83 698 l 1,7,-1
 222 698 l 1,8,-1
 438 331 l 1,9,-1
 512 185 l 1,10,-1
 515 185 l 1,11,-1
 515 698 l 1,12,-1
 634 698 l 1,13,-1
 634 0 l 1,0,-1
416 756 m 1,14,-1
 301 756 l 1,15,-1
 177 909 l 1,16,-1
 239 956 l 1,17,-1
 358 841 l 1,18,-1
 478 956 l 1,19,-1
 540 909 l 1,20,-1
 416 756 l 1,14,-1
EndSplineSet
EndChar

StartChar: ncaron
Encoding: 328 328 263
Width: 585
Flags: W
LayerCount: 2
Fore
SplineSet
516 0 m 1,0,-1
 394 0 l 1,1,-1
 394 316 l 2,2,3
 394 431 394 431 307 431 c 0,4,5
 265 431 265 431 231 410 c 128,-1,6
 197 389 197 389 197 345 c 2,7,-1
 197 0 l 1,8,-1
 75 0 l 1,9,-1
 75 522 l 1,10,-1
 197 522 l 1,11,-1
 197 435 l 1,12,-1
 202 435 l 1,13,14
 238 534 238 534 348 534 c 0,15,16
 432 534 432 534 474 478.5 c 128,-1,17
 516 423 516 423 516 330 c 2,18,-1
 516 0 l 1,0,-1
353 592 m 1,19,-1
 239 592 l 1,20,-1
 115 745 l 1,21,-1
 176 792 l 1,22,-1
 296 676 l 1,23,-1
 416 792 l 1,24,-1
 477 745 l 1,25,-1
 353 592 l 1,19,-1
EndSplineSet
EndChar

StartChar: napostrophe
Encoding: 329 329 264
Width: 858
GlyphClass: 2
Flags: W
LayerCount: 2
Fore
SplineSet
122 469 m 1,0,-1
 39 469 l 1,1,2
 103 527 103 527 125 597 c 1,3,4
 71 607 71 607 71 662 c 2,5,-1
 71 683 l 2,6,7
 71 747 71 747 147 750 c 0,8,9
 224 750 224 750 224 685 c 2,10,-1
 224 664 l 2,11,12
 224 609 224 609 194.5 557.5 c 128,-1,13
 165 506 165 506 122 469 c 1,0,-1
788 0 m 1,14,-1
 666 0 l 1,15,-1
 666 316 l 2,16,17
 666 431 666 431 583 431 c 0,18,19
 538 431 538 431 504 410 c 128,-1,20
 470 389 470 389 470 345 c 2,21,-1
 470 0 l 1,22,-1
 348 0 l 1,23,-1
 348 522 l 1,24,-1
 470 522 l 1,25,-1
 470 435 l 1,26,-1
 475 435 l 1,27,28
 511 534 511 534 621 534 c 0,29,30
 706 534 706 534 747 478.5 c 128,-1,31
 788 423 788 423 788 330 c 2,32,-1
 788 0 l 1,14,-1
EndSplineSet
EndChar

StartChar: Eng
Encoding: 330 330 265
Width: 717
GlyphClass: 5
Flags: W
LayerCount: 2
Fore
SplineSet
500 -200 m 2,0,-1
 430 -200 l 1,1,-1
 430 -100 l 1,2,-1
 515 -100 l 1,3,-1
 515 0 l 1,4,-1
 495 0 l 1,5,-1
 279 367 l 2,6,7
 272 383 272 383 206 513 c 1,8,-1
 203 513 l 1,9,-1
 203 0 l 1,10,-1
 83 0 l 1,11,-1
 83 698 l 1,12,-1
 222 698 l 1,13,-1
 438 331 l 2,14,15
 445 315 445 315 512 185 c 1,16,-1
 515 185 l 1,17,-1
 515 698 l 1,18,-1
 634 698 l 1,19,-1
 634 -63 l 2,20,21
 634 -200 634 -200 500 -200 c 2,0,-1
EndSplineSet
EndChar

StartChar: eng
Encoding: 331 331 266
Width: 585
GlyphClass: 1
Flags: W
LayerCount: 2
Fore
SplineSet
383 -200 m 2,0,-1
 314 -200 l 1,1,-1
 314 -102 l 1,2,-1
 394 -102 l 1,3,-1
 394 317 l 2,4,5
 394 376 394 376 371.5 403.5 c 128,-1,6
 349 431 349 431 304 431 c 0,7,8
 260 431 260 431 228.5 409.5 c 128,-1,9
 197 388 197 388 197 346 c 2,10,-1
 197 0 l 1,11,-1
 75 0 l 1,12,-1
 75 522 l 1,13,-1
 197 522 l 1,14,-1
 197 435 l 1,15,-1
 202 435 l 1,16,17
 237 534 237 534 348 534 c 0,18,19
 432 534 432 534 474 478.5 c 128,-1,20
 516 423 516 423 516 330 c 2,21,-1
 516 -66 l 2,22,23
 516 -200 516 -200 383 -200 c 2,0,-1
EndSplineSet
EndChar

StartChar: Omacron
Encoding: 332 332 267
Width: 713
GlyphClass: 2
Flags: W
LayerCount: 2
Fore
SplineSet
356 -12 m 0,0,1
 215 -12 215 -12 134 83 c 128,-1,2
 53 178 53 178 53 349 c 0,3,4
 53 518 53 518 133.5 614 c 128,-1,5
 214 710 214 710 356 710 c 0,6,7
 500 710 500 710 579.5 613.5 c 128,-1,8
 659 517 659 517 659 349 c 0,9,10
 659 176 659 176 576.5 82 c 128,-1,11
 494 -12 494 -12 356 -12 c 0,0,1
356 100 m 0,12,13
 430 100 430 100 477.5 149.5 c 128,-1,14
 525 199 525 199 525 304 c 2,15,-1
 525 403 l 2,16,17
 525 500 525 500 477.5 549 c 128,-1,18
 430 598 430 598 356 598 c 0,19,20
 272 598 272 598 230 542 c 128,-1,21
 188 486 188 486 188 394 c 2,22,-1
 188 295 l 2,23,24
 188 198 188 198 235.5 149 c 128,-1,25
 283 100 283 100 356 100 c 0,12,13
505 794 m 1,26,-1
 208 794 l 1,27,-1
 208 883 l 1,28,-1
 505 883 l 1,29,-1
 505 794 l 1,26,-1
EndSplineSet
EndChar

StartChar: omacron
Encoding: 333 333 268
Width: 564
Flags: W
LayerCount: 2
Fore
SplineSet
282 -12 m 0,0,1
 167 -12 167 -12 104 64.5 c 128,-1,2
 41 141 41 141 41 261 c 0,3,4
 41 388 41 388 106.5 461 c 128,-1,5
 172 534 172 534 282 534 c 0,6,7
 391 534 391 534 457 460.5 c 128,-1,8
 523 387 523 387 523 261 c 0,9,10
 523 139 523 139 458.5 63.5 c 128,-1,11
 394 -12 394 -12 282 -12 c 0,0,1
282 87 m 0,12,13
 395 87 395 87 395 226 c 2,14,-1
 395 308 l 2,15,16
 395 375 395 375 363 405 c 128,-1,17
 331 435 331 435 282 435 c 0,18,19
 169 435 169 435 169 296 c 2,20,-1
 169 214 l 2,21,22
 169 149 169 149 199 118 c 128,-1,23
 229 87 229 87 282 87 c 0,12,13
430 629 m 1,24,-1
 134 629 l 1,25,-1
 134 718 l 1,26,-1
 430 718 l 1,27,-1
 430 629 l 1,24,-1
EndSplineSet
EndChar

StartChar: Obreve
Encoding: 334 334 269
Width: 713
Flags: W
LayerCount: 2
Fore
SplineSet
356 -12 m 0,0,1
 215 -12 215 -12 134 83 c 128,-1,2
 53 178 53 178 53 349 c 0,3,4
 53 518 53 518 133.5 614 c 128,-1,5
 214 710 214 710 356 710 c 0,6,7
 500 710 500 710 579.5 613.5 c 128,-1,8
 659 517 659 517 659 349 c 0,9,10
 659 176 659 176 576.5 82 c 128,-1,11
 494 -12 494 -12 356 -12 c 0,0,1
356 100 m 0,12,13
 430 100 430 100 477.5 149.5 c 128,-1,14
 525 199 525 199 525 304 c 2,15,-1
 525 403 l 2,16,17
 525 500 525 500 477.5 549 c 128,-1,18
 430 598 430 598 356 598 c 0,19,20
 272 598 272 598 230 542 c 128,-1,21
 188 486 188 486 188 394 c 2,22,-1
 188 295 l 2,23,24
 188 198 188 198 235.5 149 c 128,-1,25
 283 100 283 100 356 100 c 0,12,13
356 750 m 0,26,27
 306 750 306 750 270.5 771.5 c 128,-1,28
 235 793 235 793 212.5 827.5 c 128,-1,29
 190 862 190 862 180 903 c 1,30,-1
 247 937 l 1,31,-1
 267 905 l 2,32,33
 283 873 283 873 303.5 855.5 c 128,-1,34
 324 838 324 838 356 838 c 0,35,36
 387 838 387 838 406 855 c 128,-1,37
 425 872 425 872 445 905 c 2,38,-1
 464 937 l 1,39,-1
 531 903 l 1,40,41
 486 750 486 750 356 750 c 0,26,27
EndSplineSet
EndChar

StartChar: obreve
Encoding: 335 335 270
Width: 564
Flags: W
LayerCount: 2
Fore
SplineSet
282 -12 m 0,0,1
 167 -12 167 -12 104 64.5 c 128,-1,2
 41 141 41 141 41 261 c 0,3,4
 41 388 41 388 106.5 461 c 128,-1,5
 172 534 172 534 282 534 c 0,6,7
 391 534 391 534 457 460.5 c 128,-1,8
 523 387 523 387 523 261 c 0,9,10
 523 139 523 139 458.5 63.5 c 128,-1,11
 394 -12 394 -12 282 -12 c 0,0,1
282 87 m 0,12,13
 395 87 395 87 395 226 c 2,14,-1
 395 308 l 2,15,16
 395 375 395 375 363 405 c 128,-1,17
 331 435 331 435 282 435 c 0,18,19
 169 435 169 435 169 296 c 2,20,-1
 169 214 l 2,21,22
 169 149 169 149 199 118 c 128,-1,23
 229 87 229 87 282 87 c 0,12,13
281 586 m 0,24,25
 232 586 232 586 197 606.5 c 128,-1,26
 162 627 162 627 140 661.5 c 128,-1,27
 118 696 118 696 106 738 c 1,28,-1
 173 772 l 1,29,-1
 194 739 l 2,30,31
 210 709 210 709 229.5 691 c 128,-1,32
 249 673 249 673 281 673 c 0,33,34
 312 673 312 673 331 690 c 128,-1,35
 350 707 350 707 369 739 c 2,36,-1
 390 772 l 1,37,-1
 457 738 l 1,38,39
 412 586 412 586 281 586 c 0,24,25
EndSplineSet
EndChar

StartChar: Odblacute
Encoding: 336 336 271
Width: 713
Flags: W
LayerCount: 2
Fore
SplineSet
356 -12 m 0,0,1
 215 -12 215 -12 134 83 c 128,-1,2
 53 178 53 178 53 349 c 0,3,4
 53 518 53 518 133.5 614 c 128,-1,5
 214 710 214 710 356 710 c 0,6,7
 500 710 500 710 579.5 613.5 c 128,-1,8
 659 517 659 517 659 349 c 0,9,10
 659 176 659 176 576.5 82 c 128,-1,11
 494 -12 494 -12 356 -12 c 0,0,1
356 100 m 0,12,13
 430 100 430 100 477.5 149.5 c 128,-1,14
 525 199 525 199 525 304 c 2,15,-1
 525 403 l 2,16,17
 525 500 525 500 477.5 549 c 128,-1,18
 430 598 430 598 356 598 c 0,19,20
 272 598 272 598 230 542 c 128,-1,21
 188 486 188 486 188 394 c 2,22,-1
 188 295 l 2,23,24
 188 198 188 198 235.5 149 c 128,-1,25
 283 100 283 100 356 100 c 0,12,13
273 746 m 1,26,-1
 205 778 l 1,27,-1
 298 964 l 1,28,-1
 396 915 l 1,29,-1
 273 746 l 1,26,-1
461 746 m 1,30,-1
 392 778 l 1,31,-1
 486 964 l 1,32,-1
 584 915 l 1,33,-1
 461 746 l 1,30,-1
EndSplineSet
EndChar

StartChar: odblacute
Encoding: 337 337 272
Width: 564
GlyphClass: 3
Flags: W
LayerCount: 2
Fore
SplineSet
282 -12 m 0,0,1
 167 -12 167 -12 104 64.5 c 128,-1,2
 41 141 41 141 41 261 c 0,3,4
 41 388 41 388 106.5 461 c 128,-1,5
 172 534 172 534 282 534 c 0,6,7
 391 534 391 534 457 460.5 c 128,-1,8
 523 387 523 387 523 261 c 0,9,10
 523 139 523 139 458.5 63.5 c 128,-1,11
 394 -12 394 -12 282 -12 c 0,0,1
282 87 m 0,12,13
 395 87 395 87 395 226 c 2,14,-1
 395 308 l 2,15,16
 395 375 395 375 363 405 c 128,-1,17
 331 435 331 435 282 435 c 0,18,19
 169 435 169 435 169 296 c 2,20,-1
 169 214 l 2,21,22
 169 149 169 149 199 118 c 128,-1,23
 229 87 229 87 282 87 c 0,12,13
199 582 m 1,24,-1
 130 614 l 1,25,-1
 224 799 l 1,26,-1
 322 751 l 1,27,-1
 199 582 l 1,24,-1
386 582 m 1,28,-1
 318 614 l 1,29,-1
 412 799 l 1,30,-1
 510 751 l 1,31,-1
 386 582 l 1,28,-1
EndSplineSet
EndChar

StartChar: OE
Encoding: 338 338 273
Width: 993
Flags: W
LayerCount: 2
Fore
SplineSet
361 -12 m 1,0,1
 289 -12 289 -12 231.5 12 c 128,-1,2
 174 36 174 36 134.5 82.5 c 128,-1,3
 95 129 95 129 74 196.5 c 128,-1,4
 53 264 53 264 53 349 c 0,5,6
 53 438 53 438 75.5 505.5 c 128,-1,7
 98 573 98 573 138 618.5 c 128,-1,8
 178 664 178 664 235 687 c 128,-1,9
 292 710 292 710 361 710 c 0,10,11
 426 710 426 710 486 698 c 1,12,-1
 934 698 l 1,13,-1
 934 586 l 1,14,-1
 604 586 l 1,15,-1
 604 409 l 1,16,-1
 898 409 l 1,17,-1
 898 298 l 1,18,-1
 604 298 l 1,19,-1
 604 112 l 1,20,-1
 934 112 l 1,21,-1
 934 0 l 1,22,-1
 501 0 l 1,23,24
 457 -8 457 -8 399 -8 c 2,25,-1
 339 -12 l 1,26,-1
 361 -12 l 1,0,1
365 100 m 0,27,28
 423 100 423 100 478 113 c 1,29,-1
 478 585 l 1,30,31
 423 598 423 598 365 598 c 0,32,33
 272 598 272 598 230 544 c 128,-1,34
 188 490 188 490 188 403 c 2,35,-1
 188 295 l 2,36,37
 188 207 188 207 230.5 153.5 c 128,-1,38
 273 100 273 100 365 100 c 0,27,28
EndSplineSet
EndChar

StartChar: oe
Encoding: 339 339 274
Width: 914
GlyphClass: 2
Flags: W
LayerCount: 2
Fore
SplineSet
282 87 m 0,0,1
 395 87 395 87 395 226 c 2,2,-1
 395 308 l 2,3,4
 395 375 395 375 363 405 c 128,-1,5
 331 435 331 435 282 435 c 0,6,7
 169 435 169 435 169 296 c 2,8,-1
 169 214 l 2,9,10
 169 149 169 149 199 118 c 128,-1,11
 229 87 229 87 282 87 c 0,0,1
746 307 m 1,12,-1
 746 316 l 2,13,14
 746 370 746 370 719 405.5 c 128,-1,15
 692 441 692 441 639 441 c 0,16,17
 583 441 583 441 553 403 c 128,-1,18
 523 365 523 365 523 307 c 1,19,-1
 746 307 l 1,12,-1
645 -12 m 0,20,21
 574 -12 574 -12 528 11.5 c 128,-1,22
 482 35 482 35 462 77 c 1,23,-1
 456 77 l 1,24,25
 434 36 434 36 390.5 12 c 128,-1,26
 347 -12 347 -12 282 -12 c 0,27,28
 168 -12 168 -12 104.5 64 c 128,-1,29
 41 140 41 140 41 262 c 0,30,31
 41 390 41 390 106.5 462 c 128,-1,32
 172 534 172 534 282 534 c 0,33,34
 404 534 404 534 456 444 c 1,35,-1
 462 444 l 1,36,37
 511 534 511 534 640 534 c 0,38,39
 747 534 747 534 810.5 463 c 128,-1,40
 874 392 874 392 874 272 c 2,41,-1
 874 230 l 1,42,-1
 523 230 l 1,43,44
 523 194 523 194 529.5 169 c 128,-1,45
 536 144 536 144 556 123 c 0,46,47
 589 87 589 87 656 87 c 0,48,49
 741 87 741 87 790 160 c 1,50,-1
 857 87 l 1,51,52
 787 -12 787 -12 645 -12 c 0,20,21
EndSplineSet
EndChar

StartChar: Racute
Encoding: 340 340 275
Width: 661
GlyphClass: 3
Flags: W
LayerCount: 2
Fore
SplineSet
612 0 m 1,0,-1
 472 0 l 1,1,-1
 338 273 l 1,2,-1
 209 273 l 1,3,-1
 209 0 l 1,4,-1
 83 0 l 1,5,-1
 83 698 l 1,6,-1
 394 698 l 2,7,8
 490 698 490 698 544.5 639 c 128,-1,9
 599 580 599 580 599 484 c 0,10,11
 599 334 599 334 466 287 c 1,12,-1
 612 0 l 1,0,-1
382 379 m 2,13,14
 467 382 467 382 467 460 c 2,15,-1
 467 507 l 2,16,17
 467 588 467 588 369 588 c 2,18,-1
 209 588 l 1,19,-1
 209 379 l 1,20,-1
 382 379 l 2,13,14
330 746 m 1,21,-1
 255 782 l 1,22,-1
 349 966 l 1,23,-1
 453 915 l 1,24,-1
 330 746 l 1,21,-1
EndSplineSet
EndChar

StartChar: racute
Encoding: 341 341 276
Width: 390
GlyphClass: 2
Flags: W
LayerCount: 2
Fore
SplineSet
197 0 m 1,0,-1
 75 0 l 1,1,-1
 75 522 l 1,2,-1
 197 522 l 1,3,-1
 197 417 l 1,4,-1
 202 417 l 1,5,6
 210 458 210 458 245 490 c 128,-1,7
 280 522 280 522 342 522 c 2,8,-1
 370 522 l 1,9,-1
 370 406 l 1,10,-1
 329 406 l 2,11,12
 259 406 259 406 228 385.5 c 128,-1,13
 197 365 197 365 197 324 c 2,14,-1
 197 0 l 1,0,-1
236 581 m 1,15,-1
 161 617 l 1,16,-1
 255 802 l 1,17,-1
 359 751 l 1,18,-1
 236 581 l 1,15,-1
EndSplineSet
EndChar

StartChar: Rcedilla
Encoding: 342 342 277
Width: 661
GlyphClass: 3
Flags: W
LayerCount: 2
Fore
SplineSet
612 0 m 1,0,-1
 472 0 l 1,1,-1
 338 273 l 1,2,-1
 209 273 l 1,3,-1
 209 0 l 1,4,-1
 83 0 l 1,5,-1
 83 698 l 1,6,-1
 394 698 l 2,7,8
 490 698 490 698 544.5 639 c 128,-1,9
 599 580 599 580 599 484 c 0,10,11
 599 334 599 334 466 287 c 1,12,-1
 612 0 l 1,0,-1
382 379 m 2,13,14
 467 382 467 382 467 460 c 2,15,-1
 467 507 l 2,16,17
 467 588 467 588 369 588 c 2,18,-1
 209 588 l 1,19,-1
 209 379 l 1,20,-1
 382 379 l 2,13,14
340 -264 m 1,21,-1
 266 -264 l 1,22,23
 311 -223 311 -223 323 -173 c 1,24,25
 296 -169 296 -169 287.5 -152 c 128,-1,26
 279 -135 279 -135 279 -111 c 0,27,28
 280 -51 280 -51 342 -51 c 0,29,30
 404 -53 404 -53 404 -107 c 0,31,32
 404 -134 404 -134 401 -154.5 c 128,-1,33
 398 -175 398 -175 387 -199 c 0,34,35
 369 -238 369 -238 340 -264 c 1,21,-1
EndSplineSet
EndChar

StartChar: rcedilla
Encoding: 343 343 278
Width: 390
GlyphClass: 7
Flags: W
LayerCount: 2
Fore
SplineSet
197 0 m 1,0,-1
 75 0 l 1,1,-1
 75 522 l 1,2,-1
 197 522 l 1,3,-1
 197 417 l 1,4,-1
 202 417 l 1,5,6
 210 458 210 458 245 490 c 128,-1,7
 280 522 280 522 342 522 c 2,8,-1
 370 522 l 1,9,-1
 370 406 l 1,10,-1
 329 406 l 2,11,12
 259 406 259 406 228 385.5 c 128,-1,13
 197 365 197 365 197 324 c 2,14,-1
 197 0 l 1,0,-1
134 -264 m 1,15,-1
 60 -264 l 1,16,17
 105 -223 105 -223 117 -173 c 1,18,19
 89 -169 89 -169 81 -150.5 c 128,-1,20
 73 -132 73 -132 73 -107 c 0,21,22
 75 -51 75 -51 136 -51 c 0,23,24
 199 -51 199 -51 199 -107 c 0,25,26
 199 -134 199 -134 196 -155 c 128,-1,27
 193 -176 193 -176 181 -200 c 0,28,29
 163 -238 163 -238 134 -264 c 1,15,-1
EndSplineSet
EndChar

StartChar: Rcaron
Encoding: 344 344 279
Width: 661
GlyphClass: 5
Flags: W
LayerCount: 2
Fore
SplineSet
612 0 m 1,0,-1
 472 0 l 1,1,-1
 338 273 l 1,2,-1
 209 273 l 1,3,-1
 209 0 l 1,4,-1
 83 0 l 1,5,-1
 83 698 l 1,6,-1
 394 698 l 2,7,8
 490 698 490 698 544.5 639 c 128,-1,9
 599 580 599 580 599 484 c 0,10,11
 599 334 599 334 466 287 c 1,12,-1
 612 0 l 1,0,-1
382 379 m 2,13,14
 467 382 467 382 467 460 c 2,15,-1
 467 507 l 2,16,17
 467 588 467 588 369 588 c 2,18,-1
 209 588 l 1,19,-1
 209 379 l 1,20,-1
 382 379 l 2,13,14
375 756 m 1,21,-1
 260 756 l 1,22,-1
 136 909 l 1,23,-1
 198 956 l 1,24,-1
 317 841 l 1,25,-1
 437 956 l 1,26,-1
 499 909 l 1,27,-1
 375 756 l 1,21,-1
EndSplineSet
EndChar

StartChar: rcaron
Encoding: 345 345 280
Width: 390
GlyphClass: 2
Flags: W
LayerCount: 2
Fore
SplineSet
197 0 m 1,0,-1
 75 0 l 1,1,-1
 75 522 l 1,2,-1
 197 522 l 1,3,-1
 197 417 l 1,4,-1
 202 417 l 1,5,6
 210 458 210 458 245 490 c 128,-1,7
 280 522 280 522 342 522 c 2,8,-1
 370 522 l 1,9,-1
 370 406 l 1,10,-1
 329 406 l 2,11,12
 259 406 259 406 228 385.5 c 128,-1,13
 197 365 197 365 197 324 c 2,14,-1
 197 0 l 1,0,-1
280 592 m 1,15,-1
 166 592 l 1,16,-1
 42 745 l 1,17,-1
 103 792 l 1,18,-1
 223 676 l 1,19,-1
 343 792 l 1,20,-1
 404 745 l 1,21,-1
 280 592 l 1,15,-1
EndSplineSet
EndChar

StartChar: Sacute
Encoding: 346 346 281
Width: 607
GlyphClass: 3
Flags: W
LayerCount: 2
Fore
SplineSet
298 -12 m 0,0,1
 133 -12 133 -12 39 104 c 1,2,-1
 125 187 l 1,3,4
 197 99 197 99 305 99 c 0,5,6
 370 99 370 99 401 126.5 c 128,-1,7
 432 154 432 154 432 201 c 0,8,9
 432 238 432 238 409 261.5 c 128,-1,10
 386 285 386 285 332 294 c 2,11,-1
 268 304 l 2,12,13
 60 337 60 337 60 506 c 0,14,15
 60 593 60 593 124 651.5 c 128,-1,16
 188 710 188 710 310 710 c 0,17,18
 464 710 464 710 548 606 c 1,19,-1
 462 525 l 1,20,21
 406 599 406 599 303 599 c 0,22,23
 242 599 242 599 214 576 c 128,-1,24
 186 553 186 553 186 513 c 256,25,26
 186 473 186 473 210 452 c 128,-1,27
 234 431 234 431 287 423 c 2,28,-1
 352 411 l 2,29,30
 462 391 462 391 509.5 341.5 c 128,-1,31
 557 292 557 292 557 208 c 0,32,33
 557 109 557 109 487.5 48.5 c 128,-1,34
 418 -12 418 -12 298 -12 c 0,0,1
313 746 m 1,35,-1
 239 782 l 1,36,-1
 332 966 l 1,37,-1
 437 915 l 1,38,-1
 313 746 l 1,35,-1
EndSplineSet
EndChar

StartChar: sacute
Encoding: 347 347 282
Width: 497
Flags: W
LayerCount: 2
Fore
SplineSet
244 -12 m 0,0,1
 173 -12 173 -12 121 12 c 128,-1,2
 69 36 69 36 30 85 c 1,3,-1
 106 157 l 1,4,5
 162 85 162 85 250 85 c 0,6,7
 339 85 339 85 339 148 c 0,8,9
 339 196 339 196 272 206 c 0,10,11
 195 217 195 217 162 225 c 0,12,13
 121 235 121 235 91 262 c 0,14,15
 48 300 48 300 48 370 c 0,16,17
 48 446 48 446 102 490 c 128,-1,18
 156 534 156 534 245 534 c 0,19,20
 320 534 320 534 366 511.5 c 128,-1,21
 412 489 412 489 446 451 c 1,22,-1
 373 379 l 1,23,24
 321 437 321 437 248 437 c 0,25,26
 205 437 205 437 185.5 420.5 c 128,-1,27
 166 404 166 404 166 379 c 0,28,29
 166 323 166 323 237 318 c 1,30,-1
 289 311 l 2,31,32
 457 288 457 288 457 158 c 0,33,34
 457 80 457 80 397.5 34 c 128,-1,35
 338 -12 338 -12 244 -12 c 0,0,1
259 581 m 1,36,-1
 184 617 l 1,37,-1
 278 802 l 1,38,-1
 382 751 l 1,39,-1
 259 581 l 1,36,-1
EndSplineSet
EndChar

StartChar: Scircumflex
Encoding: 348 348 283
Width: 607
Flags: W
LayerCount: 2
Fore
SplineSet
298 -12 m 0,0,1
 133 -12 133 -12 39 104 c 1,2,-1
 125 187 l 1,3,4
 197 99 197 99 305 99 c 0,5,6
 370 99 370 99 401 126.5 c 128,-1,7
 432 154 432 154 432 201 c 0,8,9
 432 238 432 238 409 261.5 c 128,-1,10
 386 285 386 285 332 294 c 2,11,-1
 268 304 l 2,12,13
 60 337 60 337 60 506 c 0,14,15
 60 593 60 593 124 651.5 c 128,-1,16
 188 710 188 710 310 710 c 0,17,18
 464 710 464 710 548 606 c 1,19,-1
 462 525 l 1,20,21
 406 599 406 599 303 599 c 0,22,23
 242 599 242 599 214 576 c 128,-1,24
 186 553 186 553 186 513 c 256,25,26
 186 473 186 473 210 452 c 128,-1,27
 234 431 234 431 287 423 c 2,28,-1
 352 411 l 2,29,30
 462 391 462 391 509.5 341.5 c 128,-1,31
 557 292 557 292 557 208 c 0,32,33
 557 109 557 109 487.5 48.5 c 128,-1,34
 418 -12 418 -12 298 -12 c 0,0,1
420 748 m 1,35,-1
 301 863 l 1,36,-1
 181 748 l 1,37,-1
 119 795 l 1,38,-1
 243 948 l 1,39,-1
 358 948 l 1,40,-1
 482 795 l 1,41,-1
 420 748 l 1,35,-1
EndSplineSet
EndChar

StartChar: scircumflex
Encoding: 349 349 284
Width: 497
GlyphClass: 2
Flags: W
LayerCount: 2
Fore
SplineSet
244 -12 m 0,0,1
 173 -12 173 -12 121 12 c 128,-1,2
 69 36 69 36 30 85 c 1,3,-1
 106 157 l 1,4,5
 162 85 162 85 250 85 c 0,6,7
 339 85 339 85 339 148 c 0,8,9
 339 196 339 196 272 206 c 0,10,11
 195 217 195 217 162 225 c 0,12,13
 121 235 121 235 91 262 c 0,14,15
 48 300 48 300 48 370 c 0,16,17
 48 446 48 446 102 490 c 128,-1,18
 156 534 156 534 245 534 c 0,19,20
 320 534 320 534 366 511.5 c 128,-1,21
 412 489 412 489 446 451 c 1,22,-1
 373 379 l 1,23,24
 321 437 321 437 248 437 c 0,25,26
 205 437 205 437 185.5 420.5 c 128,-1,27
 166 404 166 404 166 379 c 0,28,29
 166 323 166 323 237 318 c 1,30,-1
 289 311 l 2,31,32
 457 288 457 288 457 158 c 0,33,34
 457 80 457 80 397.5 34 c 128,-1,35
 338 -12 338 -12 244 -12 c 0,0,1
366 583 m 1,36,-1
 246 699 l 1,37,-1
 127 583 l 1,38,-1
 65 631 l 1,39,-1
 189 784 l 1,40,-1
 304 784 l 1,41,-1
 428 631 l 1,42,-1
 366 583 l 1,36,-1
EndSplineSet
EndChar

StartChar: Scedilla
Encoding: 350 350 285
Width: 607
Flags: W
LayerCount: 2
Fore
SplineSet
311 -210 m 0,0,1
 266 -210 266 -210 237.5 -197 c 128,-1,2
 209 -184 209 -184 197 -167 c 1,3,-1
 240 -117 l 1,4,5
 261 -146 261 -146 304 -146 c 0,6,7
 321 -146 321 -146 334.5 -139 c 128,-1,8
 348 -132 348 -132 348 -118 c 0,9,10
 348 -101 348 -101 326.5 -90.5 c 128,-1,11
 305 -80 305 -80 252 -75 c 1,12,-1
 265 -11 l 1,13,14
 119 3 119 3 39 104 c 1,15,-1
 125 187 l 1,16,17
 194 99 194 99 305 99 c 0,18,19
 370 99 370 99 401 127 c 128,-1,20
 432 155 432 155 432 201 c 0,21,22
 432 238 432 238 408.5 261.5 c 128,-1,23
 385 285 385 285 332 294 c 2,24,-1
 268 304 l 2,25,26
 60 336 60 336 60 506 c 0,27,28
 60 594 60 594 125 652 c 128,-1,29
 190 710 190 710 310 710 c 0,30,31
 465 710 465 710 548 606 c 1,32,-1
 462 525 l 1,33,34
 406 599 406 599 303 599 c 0,35,36
 242 599 242 599 214 576 c 128,-1,37
 186 553 186 553 186 513 c 256,38,39
 186 473 186 473 210 452 c 128,-1,40
 234 431 234 431 287 423 c 2,41,-1
 352 411 l 2,42,43
 455 391 455 391 506 345 c 128,-1,44
 557 299 557 299 557 208 c 0,45,46
 557 116 557 116 497.5 57.5 c 128,-1,47
 438 -1 438 -1 325 -11 c 1,48,-1
 316 -57 l 1,49,-1
 319 -61 l 1,50,51
 340 -54 340 -54 364 -54 c 0,52,53
 392 -54 392 -54 413.5 -69 c 128,-1,54
 435 -84 435 -84 435 -122 c 0,55,56
 435 -154 435 -154 417 -173 c 128,-1,57
 399 -192 399 -192 370.5 -201 c 128,-1,58
 342 -210 342 -210 311 -210 c 0,0,1
EndSplineSet
EndChar

StartChar: scedilla
Encoding: 351 351 286
Width: 497
GlyphClass: 3
Flags: W
LayerCount: 2
Fore
SplineSet
258 -210 m 0,0,1
 212 -210 212 -210 184 -197 c 128,-1,2
 156 -184 156 -184 144 -167 c 1,3,-1
 187 -117 l 1,4,5
 208 -146 208 -146 251 -146 c 0,6,7
 268 -146 268 -146 281.5 -139 c 128,-1,8
 295 -132 295 -132 295 -118 c 0,9,10
 295 -101 295 -101 273.5 -90.5 c 128,-1,11
 252 -80 252 -80 199 -75 c 1,12,-1
 212 -11 l 1,13,14
 93 3 93 3 30 85 c 1,15,-1
 106 157 l 1,16,17
 162 85 162 85 250 85 c 0,18,19
 339 85 339 85 339 145 c 2,20,-1
 339 148 l 2,21,22
 339 198 339 198 272 206 c 0,23,24
 192 217 192 217 164 225 c 0,25,26
 125 234 125 234 94 261 c 0,27,28
 48 298 48 298 48 370 c 0,29,30
 48 446 48 446 102 490 c 128,-1,31
 156 534 156 534 245 534 c 0,32,33
 318 534 318 534 364.5 512.5 c 128,-1,34
 411 491 411 491 446 451 c 1,35,-1
 373 379 l 1,36,37
 322 437 322 437 248 437 c 0,38,39
 205 437 205 437 185.5 420.5 c 128,-1,40
 166 404 166 404 166 379 c 0,41,42
 166 340 166 340 192 329 c 128,-1,43
 218 318 218 318 275 313 c 2,44,-1
 289 311 l 2,45,46
 457 288 457 288 457 158 c 0,47,48
 457 83 457 83 406 40.5 c 128,-1,49
 355 -2 355 -2 272 -11 c 1,50,-1
 263 -57 l 1,51,-1
 266 -61 l 1,52,53
 287 -54 287 -54 311 -54 c 0,54,55
 340 -54 340 -54 361 -69.5 c 128,-1,56
 382 -85 382 -85 382 -122 c 0,57,58
 382 -167 382 -167 345 -188.5 c 128,-1,59
 308 -210 308 -210 258 -210 c 0,0,1
EndSplineSet
EndChar

StartChar: Scaron
Encoding: 352 352 287
Width: 607
Flags: W
LayerCount: 2
Fore
SplineSet
298 -12 m 0,0,1
 133 -12 133 -12 39 104 c 1,2,-1
 125 187 l 1,3,4
 197 99 197 99 305 99 c 0,5,6
 370 99 370 99 401 126.5 c 128,-1,7
 432 154 432 154 432 201 c 0,8,9
 432 238 432 238 409 261.5 c 128,-1,10
 386 285 386 285 332 294 c 2,11,-1
 268 304 l 2,12,13
 60 337 60 337 60 506 c 0,14,15
 60 593 60 593 124 651.5 c 128,-1,16
 188 710 188 710 310 710 c 0,17,18
 464 710 464 710 548 606 c 1,19,-1
 462 525 l 1,20,21
 406 599 406 599 303 599 c 0,22,23
 242 599 242 599 214 576 c 128,-1,24
 186 553 186 553 186 513 c 256,25,26
 186 473 186 473 210 452 c 128,-1,27
 234 431 234 431 287 423 c 2,28,-1
 352 411 l 2,29,30
 462 391 462 391 509.5 341.5 c 128,-1,31
 557 292 557 292 557 208 c 0,32,33
 557 109 557 109 487.5 48.5 c 128,-1,34
 418 -12 418 -12 298 -12 c 0,0,1
358 756 m 1,35,-1
 243 756 l 1,36,-1
 119 909 l 1,37,-1
 181 956 l 1,38,-1
 301 841 l 1,39,-1
 420 956 l 1,40,-1
 482 909 l 1,41,-1
 358 756 l 1,35,-1
EndSplineSet
EndChar

StartChar: scaron
Encoding: 353 353 288
Width: 497
GlyphClass: 5
Flags: W
LayerCount: 2
Fore
SplineSet
244 -12 m 0,0,1
 173 -12 173 -12 121 12 c 128,-1,2
 69 36 69 36 30 85 c 1,3,-1
 106 157 l 1,4,5
 162 85 162 85 250 85 c 0,6,7
 339 85 339 85 339 148 c 0,8,9
 339 196 339 196 272 206 c 0,10,11
 195 217 195 217 162 225 c 0,12,13
 121 235 121 235 91 262 c 0,14,15
 48 300 48 300 48 370 c 0,16,17
 48 446 48 446 102 490 c 128,-1,18
 156 534 156 534 245 534 c 0,19,20
 320 534 320 534 366 511.5 c 128,-1,21
 412 489 412 489 446 451 c 1,22,-1
 373 379 l 1,23,24
 321 437 321 437 248 437 c 0,25,26
 205 437 205 437 185.5 420.5 c 128,-1,27
 166 404 166 404 166 379 c 0,28,29
 166 323 166 323 237 318 c 1,30,-1
 289 311 l 2,31,32
 457 288 457 288 457 158 c 0,33,34
 457 80 457 80 397.5 34 c 128,-1,35
 338 -12 338 -12 244 -12 c 0,0,1
304 592 m 1,36,-1
 189 592 l 1,37,-1
 65 745 l 1,38,-1
 127 792 l 1,39,-1
 246 676 l 1,40,-1
 366 792 l 1,41,-1
 428 745 l 1,42,-1
 304 592 l 1,36,-1
EndSplineSet
EndChar

StartChar: Tcedilla
Encoding: 354 354 289
Width: 579
GlyphClass: 3
Flags: W
LayerCount: 2
Fore
SplineSet
353 0 m 1,0,-1
 227 0 l 1,1,-1
 227 586 l 1,2,-1
 25 586 l 1,3,-1
 25 698 l 1,4,-1
 554 698 l 1,5,-1
 554 586 l 1,6,-1
 353 586 l 1,7,-1
 353 0 l 1,0,-1
287 -264 m 1,8,-1
 212 -264 l 1,9,10
 256 -226 256 -226 270 -173 c 1,11,12
 242 -169 242 -169 234 -150.5 c 128,-1,13
 226 -132 226 -132 226 -107 c 0,14,15
 228 -51 228 -51 288 -51 c 0,16,17
 351 -51 351 -51 351 -107 c 0,18,19
 351 -134 351 -134 348 -154.5 c 128,-1,20
 345 -175 345 -175 334 -199 c 0,21,22
 316 -238 316 -238 287 -264 c 1,8,-1
EndSplineSet
EndChar

StartChar: tcedilla
Encoding: 355 355 290
Width: 371
GlyphClass: 3
Flags: W
LayerCount: 2
Fore
SplineSet
325 0 m 1,0,-1
 232 0 l 2,1,2
 104 0 104 0 104 126 c 2,3,-1
 104 424 l 1,4,-1
 25 424 l 1,5,-1
 25 522 l 1,6,-1
 70 522 l 2,7,8
 116 522 116 522 116 574 c 2,9,-1
 116 664 l 1,10,-1
 226 664 l 1,11,-1
 226 522 l 1,12,-1
 333 522 l 1,13,-1
 333 424 l 1,14,-1
 226 424 l 1,15,-1
 226 98 l 1,16,-1
 325 98 l 1,17,-1
 325 0 l 1,0,-1
220 -264 m 1,18,-1
 146 -264 l 1,19,20
 191 -223 191 -223 203 -173 c 1,21,22
 175 -169 175 -169 167 -150.5 c 128,-1,23
 159 -132 159 -132 159 -107 c 0,24,25
 161 -51 161 -51 222 -51 c 0,26,27
 285 -51 285 -51 285 -107 c 0,28,29
 285 -134 285 -134 282 -154.5 c 128,-1,30
 279 -175 279 -175 267 -199 c 0,31,32
 249 -238 249 -238 220 -264 c 1,18,-1
EndSplineSet
EndChar

StartChar: Tcaron
Encoding: 356 356 291
Width: 579
GlyphClass: 5
Flags: W
LayerCount: 2
Fore
SplineSet
353 0 m 1,0,-1
 227 0 l 1,1,-1
 227 586 l 1,2,-1
 25 586 l 1,3,-1
 25 698 l 1,4,-1
 554 698 l 1,5,-1
 554 586 l 1,6,-1
 353 586 l 1,7,-1
 353 0 l 1,0,-1
348 756 m 1,8,-1
 233 756 l 1,9,-1
 109 909 l 1,10,-1
 171 956 l 1,11,-1
 290 841 l 1,12,-1
 410 956 l 1,13,-1
 472 909 l 1,14,-1
 348 756 l 1,8,-1
EndSplineSet
EndChar

StartChar: tcaron
Encoding: 357 357 292
Width: 374
GlyphClass: 6
Flags: W
LayerCount: 2
Fore
SplineSet
370 571 m 1,0,-1
 289 571 l 1,1,-1
 298 775 l 1,2,-1
 430 775 l 1,3,-1
 370 571 l 1,0,-1
325 0 m 1,4,-1
 232 0 l 2,5,6
 104 0 104 0 104 126 c 2,7,-1
 104 424 l 1,8,-1
 25 424 l 1,9,-1
 25 522 l 1,10,-1
 70 522 l 2,11,12
 116 522 116 522 116 574 c 2,13,-1
 116 664 l 1,14,-1
 226 664 l 1,15,-1
 226 522 l 1,16,-1
 333 522 l 1,17,-1
 333 424 l 1,18,-1
 226 424 l 1,19,-1
 226 98 l 1,20,-1
 325 98 l 1,21,-1
 325 0 l 1,4,-1
EndSplineSet
EndChar

StartChar: Tbar
Encoding: 358 358 293
Width: 591
Flags: W
LayerCount: 2
Fore
SplineSet
358 0 m 1,0,-1
 232 0 l 1,1,-1
 232 303 l 1,2,-1
 83 303 l 1,3,-1
 83 398 l 1,4,-1
 232 398 l 1,5,-1
 232 586 l 1,6,-1
 31 586 l 1,7,-1
 31 698 l 1,8,-1
 560 698 l 1,9,-1
 560 586 l 1,10,-1
 358 586 l 1,11,-1
 358 398 l 1,12,-1
 507 398 l 1,13,-1
 507 303 l 1,14,-1
 358 303 l 1,15,-1
 358 0 l 1,0,-1
EndSplineSet
EndChar

StartChar: tbar
Encoding: 359 359 294
Width: 378
GlyphClass: 7
Flags: W
LayerCount: 2
Fore
SplineSet
328 0 m 1,0,-1
 236 0 l 2,1,2
 107 0 107 0 107 126 c 2,3,-1
 107 231 l 1,4,-1
 43 231 l 1,5,-1
 43 317 l 1,6,-1
 107 317 l 1,7,-1
 107 424 l 1,8,-1
 29 424 l 1,9,-1
 29 522 l 1,10,-1
 73 522 l 2,11,12
 119 522 119 522 119 574 c 2,13,-1
 119 664 l 1,14,-1
 229 664 l 1,15,-1
 229 522 l 1,16,-1
 336 522 l 1,17,-1
 336 424 l 1,18,-1
 229 424 l 1,19,-1
 229 317 l 1,20,-1
 317 317 l 1,21,-1
 317 231 l 1,22,-1
 229 231 l 1,23,-1
 229 98 l 1,24,-1
 328 98 l 1,25,-1
 328 0 l 1,0,-1
EndSplineSet
EndChar

StartChar: Utilde
Encoding: 360 360 295
Width: 689
Flags: W
LayerCount: 2
Fore
SplineSet
344 -12 m 0,0,1
 202 -12 202 -12 140.5 58.5 c 128,-1,2
 79 129 79 129 79 286 c 2,3,-1
 79 698 l 1,4,-1
 202 698 l 1,5,-1
 202 269 l 2,6,7
 202 180 202 180 235.5 140 c 128,-1,8
 269 100 269 100 344 100 c 0,9,10
 418 100 418 100 452 140 c 128,-1,11
 486 180 486 180 486 269 c 2,12,-1
 486 698 l 1,13,-1
 610 698 l 1,14,-1
 610 286 l 2,15,16
 610 129 610 129 549 58.5 c 128,-1,17
 488 -12 488 -12 344 -12 c 0,0,1
419 769 m 0,18,19
 395 769 395 769 379.5 774.5 c 128,-1,20
 364 780 364 780 348 789 c 2,21,-1
 332 796 l 2,22,23
 294 815 294 815 266 815 c 0,24,25
 248 815 248 815 235 808 c 128,-1,26
 222 801 222 801 208 789 c 1,27,-1
 163 846 l 1,28,29
 200 906 200 906 270 906 c 0,30,31
 290 906 290 906 305.5 901 c 128,-1,32
 321 896 321 896 334 889.5 c 128,-1,33
 347 883 347 883 360 879 c 0,34,35
 394 861 394 861 423 861 c 0,36,37
 439 861 439 861 452 867 c 128,-1,38
 465 873 465 873 481 887 c 1,39,-1
 526 829 l 1,40,41
 488 769 488 769 419 769 c 0,18,19
EndSplineSet
EndChar

StartChar: utilde
Encoding: 361 361 296
Width: 585
Flags: W
LayerCount: 2
Fore
SplineSet
238 -12 m 0,0,1
 154 -12 154 -12 112 41 c 128,-1,2
 70 94 70 94 70 191 c 2,3,-1
 70 522 l 1,4,-1
 192 522 l 1,5,-1
 192 205 l 2,6,7
 192 91 192 91 277 91 c 2,8,-1
 283 91 l 2,9,10
 308 91 308 91 332 99.5 c 128,-1,11
 356 108 356 108 372 127 c 128,-1,12
 388 146 388 146 388 176 c 2,13,-1
 388 522 l 1,14,-1
 510 522 l 1,15,-1
 510 0 l 1,16,-1
 388 0 l 1,17,-1
 388 87 l 1,18,-1
 384 87 l 1,19,20
 353 -12 353 -12 238 -12 c 0,0,1
366 605 m 0,21,22
 346 605 346 605 331 610 c 128,-1,23
 316 615 316 615 303 621.5 c 128,-1,24
 290 628 290 628 276 633 c 0,25,26
 241 651 241 651 213 651 c 0,27,28
 195 651 195 651 182 644 c 128,-1,29
 169 637 169 637 155 625 c 1,30,-1
 110 682 l 1,31,32
 147 742 147 742 217 742 c 0,33,34
 237 742 237 742 252.5 736.5 c 128,-1,35
 268 731 268 731 281 725 c 128,-1,36
 294 719 294 719 307 714 c 0,37,38
 341 696 341 696 370 696 c 0,39,40
 401 696 401 696 428 722 c 1,41,-1
 473 665 l 1,42,43
 435 605 435 605 366 605 c 0,21,22
EndSplineSet
EndChar

StartChar: Umacron
Encoding: 362 362 297
Width: 689
Flags: W
LayerCount: 2
Fore
SplineSet
344 -12 m 0,0,1
 202 -12 202 -12 140.5 58.5 c 128,-1,2
 79 129 79 129 79 286 c 2,3,-1
 79 698 l 1,4,-1
 202 698 l 1,5,-1
 202 269 l 2,6,7
 202 180 202 180 235.5 140 c 128,-1,8
 269 100 269 100 344 100 c 0,9,10
 418 100 418 100 452 140 c 128,-1,11
 486 180 486 180 486 269 c 2,12,-1
 486 698 l 1,13,-1
 610 698 l 1,14,-1
 610 286 l 2,15,16
 610 129 610 129 549 58.5 c 128,-1,17
 488 -12 488 -12 344 -12 c 0,0,1
493 794 m 1,18,-1
 196 794 l 1,19,-1
 196 883 l 1,20,-1
 493 883 l 1,21,-1
 493 794 l 1,18,-1
EndSplineSet
EndChar

StartChar: umacron
Encoding: 363 363 298
Width: 585
GlyphClass: 1
Flags: W
LayerCount: 2
Fore
SplineSet
238 -12 m 0,0,1
 154 -12 154 -12 112 41 c 128,-1,2
 70 94 70 94 70 191 c 2,3,-1
 70 522 l 1,4,-1
 192 522 l 1,5,-1
 192 205 l 2,6,7
 192 91 192 91 277 91 c 2,8,-1
 283 91 l 2,9,10
 308 91 308 91 332 99.5 c 128,-1,11
 356 108 356 108 372 127 c 128,-1,12
 388 146 388 146 388 176 c 2,13,-1
 388 522 l 1,14,-1
 510 522 l 1,15,-1
 510 0 l 1,16,-1
 388 0 l 1,17,-1
 388 87 l 1,18,-1
 384 87 l 1,19,20
 353 -12 353 -12 238 -12 c 0,0,1
440 629 m 1,21,-1
 143 629 l 1,22,-1
 143 718 l 1,23,-1
 440 718 l 1,24,-1
 440 629 l 1,21,-1
EndSplineSet
EndChar

StartChar: Ubreve
Encoding: 364 364 299
Width: 689
Flags: W
LayerCount: 2
Fore
SplineSet
344 -12 m 0,0,1
 202 -12 202 -12 140.5 58.5 c 128,-1,2
 79 129 79 129 79 286 c 2,3,-1
 79 698 l 1,4,-1
 202 698 l 1,5,-1
 202 269 l 2,6,7
 202 180 202 180 235.5 140 c 128,-1,8
 269 100 269 100 344 100 c 0,9,10
 418 100 418 100 452 140 c 128,-1,11
 486 180 486 180 486 269 c 2,12,-1
 486 698 l 1,13,-1
 610 698 l 1,14,-1
 610 286 l 2,15,16
 610 129 610 129 549 58.5 c 128,-1,17
 488 -12 488 -12 344 -12 c 0,0,1
344 750 m 0,18,19
 294 750 294 750 258.5 771.5 c 128,-1,20
 223 793 223 793 200.5 827.5 c 128,-1,21
 178 862 178 862 168 903 c 1,22,-1
 235 937 l 1,23,-1
 255 905 l 2,24,25
 271 873 271 873 291.5 855.5 c 128,-1,26
 312 838 312 838 344 838 c 0,27,28
 375 838 375 838 394 855 c 128,-1,29
 413 872 413 872 433 905 c 2,30,-1
 452 937 l 1,31,-1
 519 903 l 1,32,33
 474 750 474 750 344 750 c 0,18,19
EndSplineSet
EndChar

StartChar: ubreve
Encoding: 365 365 300
Width: 585
GlyphClass: 2
Flags: W
LayerCount: 2
Fore
SplineSet
238 -12 m 0,0,1
 154 -12 154 -12 112 41 c 128,-1,2
 70 94 70 94 70 191 c 2,3,-1
 70 522 l 1,4,-1
 192 522 l 1,5,-1
 192 205 l 2,6,7
 192 91 192 91 277 91 c 2,8,-1
 283 91 l 2,9,10
 308 91 308 91 332 99.5 c 128,-1,11
 356 108 356 108 372 127 c 128,-1,12
 388 146 388 146 388 176 c 2,13,-1
 388 522 l 1,14,-1
 510 522 l 1,15,-1
 510 0 l 1,16,-1
 388 0 l 1,17,-1
 388 87 l 1,18,-1
 384 87 l 1,19,20
 353 -12 353 -12 238 -12 c 0,0,1
291 586 m 0,21,22
 241 586 241 586 206 606.5 c 128,-1,23
 171 627 171 627 149 661.5 c 128,-1,24
 127 696 127 696 115 738 c 1,25,-1
 182 772 l 1,26,-1
 203 739 l 2,27,28
 219 709 219 709 239 691 c 128,-1,29
 259 673 259 673 291 673 c 0,30,31
 322 673 322 673 341 690 c 128,-1,32
 360 707 360 707 379 739 c 2,33,-1
 399 772 l 1,34,-1
 466 738 l 1,35,36
 421 586 421 586 291 586 c 0,21,22
EndSplineSet
EndChar

